<svg width="100" height="60" viewBox="0 0 100 60" xmlns="http://www.w3.org/2000/svg">
    <g fill="none" fill-rule="evenodd">
        <path d="M0 0h100v60H0z"/>
        <g fill="#FFF">
            <path d="M5.037 27.778h2.516c1.122 0 1.535.037 1.861.178.624.281 1.02.906 1.01 1.59 0 .663-.214.99-.852 1.338.75.307 1.095.768 1.095 1.644 0 1.105-.85 1.844-2.122 1.844H5.012v-1.076h.515v-4.443H5.03v-1.075h.006zm1.843 1.075v1.599h1.3c.56 0 .944-.346.944-.842 0-.439-.43-.757-1.039-.757H6.88zm0 2.637v1.806h1.382c.59 0 1.048-.384 1.048-.889 0-.551-.461-.921-1.178-.921l-1.252.004zM16.189 32.725c-.225 1.086-1.132 1.759-2.349 1.759-1.402 0-2.431-1.094-2.431-2.628s1.038-2.637 2.442-2.637c.774-.01 1.5.374 1.926 1.02.46.7.478 1.363.496 1.869h-3.61c.12 1.3.971 1.365 1.206 1.365.495 0 .824-.233 1.02-.748h1.3zm-1.281-1.477c-.085-.636-.461-.982-1.057-.982-.544 0-.964.364-1.123.982h2.18z" fill-rule="nonzero"/>
            <path d="M20.323 31.099h2.282v3.273h-.75v-1.019a2.113 2.113 0 0 1-.485.615c-.418.37-.957.573-1.515.57-1.536 0-2.731-1.497-2.731-3.422 0-1.926 1.187-3.46 2.712-3.46.627 0 1.366.176 1.965 1.14v-1.02h.692v2.096h-.72a1.944 1.944 0 0 0-.375-.805 1.83 1.83 0 0 0-1.402-.72c-.814 0-1.983.692-1.983 2.73 0 1.582.851 2.765 1.997 2.765.832 0 1.617-.684 1.804-1.562.031-.176.047-.355.046-.533h-1.535v-.645l-.002-.003z"/>
            <path d="M28.226 34.372H26.81v-.893c-.403.627-.945.982-1.69.982-.935 0-1.618-.645-1.618-1.515 0-.955.841-1.431 2.824-1.619.066-.009.272-.027.469-.047v-.513c0-.571-.44-.922-1.132-.922-.73 0-1.057.243-1.206.888h-.759c.112-.505.263-.768.562-1.029a2.078 2.078 0 0 1 1.347-.43c1.03 0 1.908.478 1.908 1.74v2.765h.71v.588l.002.005zm-1.43-2.573-.462.057c-1.536.187-2.049.46-2.049 1.104a.997.997 0 0 0 1.039.954c.887 0 1.468-.842 1.468-1.301v-.814h.003z" fill-rule="nonzero"/>
            <path d="M30.308 30.285c.224-.346.672-1.039 1.59-1.039.663 0 1.047.346 1.168 1.048.117-.234.28-.443.478-.614.29-.275.675-.429 1.075-.43.768 0 1.216.496 1.216 1.365v3.171h.693v.589h-1.413v-3.507c0-.702-.234-1.02-.72-1.02-.87 0-1.33 1.048-1.33 1.383v2.555h.721v.589h-1.44V30.76c0-.627-.234-.906-.72-.906-.776 0-1.328.963-1.328 1.422v2.51h.711v.588h-2.16v-.589h.724v-3.855h-.73v-.599h1.46v.954l.005-.001z"/>
            <path d="M37.276 27.49h1.402v2.908c.187-.354.768-1.113 1.646-1.113 1.132 0 1.997 1.15 1.997 2.63 0 1.374-.922 2.524-2.01 2.524-.888 0-1.32-.59-1.629-1.01v.944h-1.43v-.587h.71v-5.708h-.682v-.589h-.004zm1.402 4.76c0 .833.674 1.572 1.44 1.572.862 0 1.413-.777 1.413-1.983 0-1.16-.551-1.955-1.382-1.955-.73 0-1.47.814-1.47 1.525v.842h-.001z" fill-rule="nonzero"/>
            <path d="M42.886 27.488h1.431v6.295h.675v.589h-2.115v-.589h.72v-5.705h-.711v-.59z"/>
            <path d="M49.846 32.988c-.071.284-.21.547-.402.768a2.033 2.033 0 0 1-1.58.72c-1.366 0-2.32-1.066-2.32-2.6 0-1.478.954-2.611 2.198-2.611s2.217.974 2.217 2.73h-3.633c.066.74.234 1.152.58 1.489.252.247.593.382.945.373.58 0 .936-.261 1.188-.87h.807zm-.72-1.544c-.055-.626-.196-.972-.485-1.253a1.195 1.195 0 0 0-.834-.307c-.607 0-1.112.411-1.336 1.075-.05.159-.084.322-.103.487l2.758-.002zM53.024 27.778h1.584l1.813 5.518h.49v1.076h-1.516l-.43-1.432h-2.319l-.43 1.432H50.68v-1.076h.506l1.833-5.518h.005zm.794 1.229-.878 2.918h1.738l-.86-2.918z" fill-rule="nonzero"/>
            <path d="M56.877 29.368h2.002v.973h-.506l.693 2.946.823-3.92h1.29l.833 3.873.665-2.899h-.487v-.973h2.01v.973h-.43l-1.075 4.03h-1.328l-.833-3.478-.786 3.479h-1.347l-1.103-4.03h-.42v-.974z"/>
            <path d="M68.934 33.4h.43v.972h-1.548v-.586c-.515.515-.899.691-1.516.691-1 0-1.768-.672-1.768-1.561 0-1.469 1.656-1.628 3.256-1.777-.01-.768-.197-.963-.921-.963-.515 0-.871.29-.899.757l-1.216-.037c.066-1.001.87-1.647 2.058-1.647 1.382 0 2.133.627 2.133 1.768v2.385l-.01-.003zm-1.17-1.395c-1.179.112-1.945.216-1.945.907 0 .412.327.684.823.684a1.092 1.092 0 0 0 1.121-1.104v-.487z" fill-rule="nonzero"/>
            <path d="M71.946 30.145c.327-.637.69-.899 1.253-.899.188.003.376.025.56.066v1.17a2.765 2.765 0 0 0-.614-.067c-.654 0-1.206.469-1.206 1.038V33.4h.6v.973h-2.304v-.973h.487v-3.06h-.48v-.971h1.704v.777z"/>
            <path d="M78.792 32.725c-.225 1.086-1.132 1.759-2.348 1.759-1.402 0-2.431-1.094-2.431-2.628s1.038-2.637 2.44-2.637c.774-.01 1.5.374 1.928 1.02.46.7.476 1.363.494 1.869h-3.609c.121 1.3.972 1.365 1.206 1.365.496 0 .823-.233 1.02-.748h1.3zm-1.282-1.477c-.085-.636-.46-.982-1.057-.982-.542 0-.963.364-1.122.982h2.179z" fill-rule="nonzero"/>
            <path d="M79.479 33.736h.651v.636h-.651v-.636z"/>
            <path d="M80.895 32.482c0-1.147.706-1.936 1.728-1.936 1.021 0 1.728.817 1.728 1.936 0 1.17-.713 1.974-1.742 1.974-1.03 0-1.714-.797-1.714-1.974zm1.708 1.506c.712 0 1.14-.575 1.14-1.52 0-.887-.448-1.454-1.14-1.454-.693 0-1.1.567-1.1 1.484s.413 1.49 1.1 1.49z" fill-rule="nonzero"/>
            <path d="M85.91 31.469a1.81 1.81 0 0 1 .45-.671c.19-.166.432-.258.684-.26.136.005.272.019.406.042v.552a2.336 2.336 0 0 0-.398-.049c-1.021 0-1.141 1.057-1.141 1.114v1.734h.642v.44h-1.72v-.44h.537v-2.882h-.559v-.448h1.098v.868h.002z"/>
            <path d="M90.546 33.448c-.344.483-.722.644-1.133.644-.903 0-1.525-.742-1.525-1.812 0-1.014.614-1.734 1.462-1.734.692 0 1 .439 1.196.726v-.671h1.075v.448h-.525v3.092c0 .91-.58 1.427-1.602 1.427-.622 0-1.153-.273-1.405-.713a2.15 2.15 0 0 1-.154-.371h.614c.223.46.49.614.993.614.637 0 1.023-.329 1.023-.874v-.783l-.019.007zm0-1.454c0-.413-.504-1.001-1.075-1.001-.614 0-.994.503-.994 1.322 0 .819.386 1.336 1.03 1.336.552 0 1.042-.539 1.042-.98v-.677h-.003zM92.652 24.82h.812a.624.624 0 0 1 .416.12.416.416 0 0 1 .14.335.505.505 0 0 1-.035.2.416.416 0 0 1-.083.127.307.307 0 0 1-.092.069l-.068.028a.269.269 0 0 1 .163.084.321.321 0 0 1 .061.106c.018.053.027.11.025.166 0 .09.007.181.023.27a.376.376 0 0 0 .07.174h-.316a.276.276 0 0 1-.04-.122v-.125c0-.067-.004-.134-.015-.2a.349.349 0 0 0-.05-.14.224.224 0 0 0-.104-.081.46.46 0 0 0-.165-.026h-.435v.694h-.295v-1.69l-.012.011zm.295.768h.483a.307.307 0 0 0 .214-.068.258.258 0 0 0 .074-.2.324.324 0 0 0-.023-.133.194.194 0 0 0-.065-.078.249.249 0 0 0-.095-.039.64.64 0 0 0-.11-.009h-.478v.527z" fill-rule="nonzero"/>
            <path d="M93.334 27.353a1.633 1.633 0 1 1-.003-3.265 1.633 1.633 0 0 1 .003 3.265zm0-2.997a1.365 1.365 0 1 0 0 2.731 1.365 1.365 0 0 0 0-2.73z" fill-rule="nonzero"/>
        </g>
    </g>
</svg>
