<svg width="300" height="60" viewBox="0 0 300 60" xmlns="http://www.w3.org/2000/svg">
    <g fill-rule="nonzero" fill="none">
        <path d="M0 0h200v60H0z"/>
        <g fill="#FFF">
            <path d="M29.879 10C18.9 10 10 18.956 10 30s8.901 20 19.879 20c10.977 0 19.879-8.956 19.879-20s-8.902-20-19.88-20zm-1.792 27.64h-5.19V22.36h5.19v15.28zm8.774 0h-5.19V22.36h5.19v15.28zM67.273 37.63h-5.11V26.68h-3.737v-4.342h12.58v4.342h-3.737v10.95zM74.863 22.338h5.43l5.926 15.291h-5.562l-.794-2.246h-4.83l-.75 2.246h-5.408l5.991-15.291h-.003zm2.64 5.335-1.245 3.782h2.47l-1.225-3.782zM92.294 31.539h-.044v6.09h-4.96V22.338h4.938v5.636h.044l4.058-5.636h6.009l-5.71 6.999 5.99 8.292h-6.268l-4.057-6.09zM103.672 22.338h10.457v4.276h-5.646v1.32h5.303v3.993h-5.303v1.426h6.01v4.276h-10.82zM130.216 37.63h-5.11V26.68h-3.737v-4.342h12.58v4.342h-3.737v10.95zM135.519 22.338h5.153v15.291h-5.153zM147.36 28.992l.236 8.64h-4.767V22.339h6.683l2.75 8.23h.105l2.386-8.23h6.898v15.291h-4.982l.15-8.596-.128-.022-2.834 8.618h-3.606l-2.79-8.64h-.105zM163.815 22.338h10.456v4.276h-5.645v1.32h5.303v3.993h-5.303v1.426h6.01v4.276h-10.821zM190.358 37.63h-5.11V26.68h-3.736v-4.342h12.58v4.342h-3.737v10.95zM194.354 29.897c0-1.223.215-2.33.645-3.316a7.407 7.407 0 0 1 1.77-2.517c.75-.693 1.642-1.224 2.673-1.598 1.03-.374 2.145-.56 3.35-.56 1.206 0 2.32.186 3.351.56a7.998 7.998 0 0 1 2.685 1.598 7.336 7.336 0 0 1 1.78 2.517c.43.986.645 2.093.645 3.316 0 1.224-.214 2.342-.644 3.35a7.553 7.553 0 0 1-1.781 2.58 7.946 7.946 0 0 1-2.685 1.652c-1.03.388-2.145.583-3.35.583-1.206 0-2.32-.195-3.351-.583a7.827 7.827 0 0 1-2.673-1.653 7.664 7.664 0 0 1-1.77-2.58c-.43-1.007-.645-2.125-.645-3.349zm5.43 0c0 .506.077.964.226 1.382.15.418.357.777.623 1.08.266.305.583.536.954.704.372.165.772.25 1.202.25a2.816 2.816 0 0 0 2.145-.953c.273-.304.485-.663.634-1.081.15-.418.226-.88.226-1.382 0-.502-.077-.938-.226-1.348-.15-.41-.36-.755-.634-1.037a2.937 2.937 0 0 0-2.145-.898c-.43 0-.83.08-1.202.238a2.755 2.755 0 0 0-.954.66 2.968 2.968 0 0 0-.623 1.037c-.15.41-.226.861-.226 1.348zM225.52 37.63h-5.11V26.68h-3.737v-4.342h12.58v4.342h-3.737v10.95zM240.1 31.821h-4.164v5.812h-5.11V22.338h5.088v5.185h4.163v-5.185h5.132v15.291h-5.11v-5.811zM247.365 22.338h5.154v15.291h-5.154zM254.675 22.338h5.088l4.338 7.754h.087l-.215-7.754h4.852v15.291h-5.216l-4.207-7.3h-.087l.215 7.3h-4.851V22.338zM275.985 31.539h-.044v6.09h-4.96V22.338h4.939v5.636h.043l4.058-5.636h6.01l-5.712 6.999 5.992 8.292h-6.269z"/>
            <g>
                <path d="M287.822 22.602v1.136h-.342v-1.136h-.401v-.293h1.147v.293h-.4zM289.669 23.734l.007-1.011h-.007l-.368 1.011h-.24l-.361-1.011h-.008l.008 1.011h-.324v-1.43h.488l.324.917h.007l.31-.916H290v1.429h-.339z"/>
            </g>
        </g>
    </g>
</svg>
