<svg width="100" height="60" viewBox="0 0 100 60" xmlns="http://www.w3.org/2000/svg">
    <g fill-rule="nonzero" fill="none">
        <path d="M0 0h100v60H0z"/>
        <g fill="#FFF">
            <path d="M21.563 28.586c1.084 0 2.054.487 2.66 1.338l.047.065 1.401-1.368-.04-.048a5.648 5.648 0 0 0-.313-.341c-1.042-1.037-2.33-1.562-3.83-1.562-1.403 0-2.749.602-3.79 1.693-.955.992-1.46 2.267-1.46 3.686a5.36 5.36 0 0 0 1.535 3.743c1.018 1.05 2.3 1.58 3.81 1.58 1.509 0 2.819-.59 3.867-1.711.056-.06.11-.12.163-.186l.04-.046-1.399-1.369-.047.064a3.186 3.186 0 0 1-2.622 1.331c-1.887 0-3.313-1.473-3.313-3.426 0-1.952 1.415-3.443 3.293-3.443M34.609 33.79a3.19 3.19 0 0 1-2.833 1.665c-1.889 0-3.313-1.473-3.313-3.426 0-1.952 1.416-3.443 3.293-3.443 1.228 0 2.298.625 2.866 1.672l.043.079 1.437-1.406-.033-.046a5.73 5.73 0 0 0-.562-.656c-1.041-1.036-2.329-1.56-3.829-1.56-1.404 0-2.75.6-3.789 1.692-.955.992-1.46 2.267-1.46 3.686s.575 2.766 1.536 3.74c1.017 1.05 2.298 1.581 3.81 1.581 1.51 0 2.818-.59 3.867-1.712a4.94 4.94 0 0 0 .406-.502l.034-.046-1.43-1.4-.043.08v.001zM9.898 26.629C7.289 26.629 5 28.706 5 31.094v6.01h2.117v-6.039c0-1.336 1.496-2.372 2.783-2.372 1.288 0 2.781 1.036 2.781 2.372h.067l-.067.024v6.015h2.12v-6.03c0-2.368-2.29-4.445-4.899-4.445M64.56 31.747c0-1.331-.548-2.612-1.543-3.605-1.017-1.012-2.276-1.526-3.742-1.526-1.366 0-2.68.588-3.698 1.657-.947.984-1.428 2.197-1.428 3.61 0 1.336.561 2.707 1.505 3.664.992 1.023 2.244 1.544 3.72 1.544 1.475 0 2.751-.58 3.775-1.675.896-.97 1.41-2.309 1.41-3.669m-5.186 3.944c-2.121 0-3.72-1.646-3.72-3.83s1.592-3.848 3.702-3.848 3.702 1.646 3.702 3.83c0 2.185-1.582 3.848-3.681 3.848M42.618 41c3.21 0 5.126-2.062 5.126-5.516v-3.577c-.002-1.33-.55-2.606-1.542-3.597-1.017-1.012-2.276-1.526-3.742-1.526-1.366 0-2.68.588-3.7 1.657-.946.984-1.426 2.198-1.426 3.61 0 1.336.56 2.707 1.504 3.662.993 1.026 2.245 1.544 3.72 1.544 1.256 0 2.379-.42 3.338-1.253l.39-.339-.01.512c-.052 2.118-1.57 3.542-3.778 3.542-1.27 0-2.274-.51-2.913-1.478h-1.563C38.78 39.999 40.434 41 42.616 41m-.06-5.138c-2.122 0-3.72-1.646-3.72-3.83 0-2.185 1.592-3.849 3.702-3.849s3.7 1.649 3.7 3.831-1.583 3.85-3.682 3.85M53.993 28.262V26.76c-1.214.114-2.372.695-3.282 1.649-.935.968-1.417 2.162-1.438 3.55v5.012h1.594v-4.999c.025-1.921 1.328-3.454 3.123-3.712M75.29 27.08h-1.592l-.011 6.14c-.13 1.472-1.728 2.55-3.163 2.55-1.435 0-3.031-1.078-3.161-2.55h-.007l-.004-.222v-5.919h-1.59v5.919c0 2.31 2.227 4.32 4.762 4.32 2.535 0 4.764-2.01 4.764-4.298v-5.94h.002zM87.001 31.916c0-1.334-.547-2.615-1.542-3.606-1.017-1.012-2.278-1.526-3.742-1.526-1.366 0-2.68.588-3.7 1.657-.948.984-1.426 2.198-1.426 3.61v8.726h1.504v-5.026l.378.32c.926.788 2.05 1.188 3.342 1.188 1.447 0 2.752-.577 3.776-1.672.896-.971 1.41-2.307 1.41-3.667m-5.186 3.944c-2.121 0-3.72-1.646-3.72-3.83 0-2.185 1.592-3.848 3.702-3.848s3.7 1.648 3.7 3.83c0 2.182-1.58 3.85-3.682 3.85M95 23.14l-.009-.134a4.908 4.908 0 0 0-.373-.166c-1.163-.455-1.905.11-1.994.197-.074.067-.141.13-.208.188.722.035 1.31.31 1.64.332.32.02.642-.103.944-.42M90.97 22.855a2.266 2.266 0 0 1-.85.768h.1c.656.024 1.286-.39 1.66-.958.196-.295.435-.5.69-.638-.54-.027-1.227.264-1.603.826M94.282 24.593c-.968.046-1.844-.892-2.935-.568-.57.17-.974.76-1.76.993-1.16.345-1.823-.51-2.95-.175-.127.037-.25.091-.367.166a4.48 4.48 0 0 0 2.84 2.626c2.37.74 4.929-.551 5.687-2.869.04-.124.051-.18.08-.304-.183.06-.367.12-.595.131"/>
            <path d="M87.947 24.615c.528.118.914.151 1.285.042.378-.114.682-.265.995-.525a4.68 4.68 0 0 1-.483-.087c-.999-.226-1.63.203-1.772.358.18-.26.453-.426.737-.531-.444.006-1.365.098-1.792.71l-.03.04c-.017-.061.398-.932 1.59-1 1.191-.067 1.614-.389 2.255-1.602.06-.111.58-1.036 2.11-.905.374.033.66.194 1.203-.066.068-.032.128-.067.182-.102-.55-.818-1.344-1.42-2.366-1.739-2.371-.739-4.929.551-5.684 2.869a4.305 4.305 0 0 0 .082 2.908c.266-.201.85-.558 1.688-.37"/>
        </g>
    </g>
</svg>
