<svg width="200" height="60" viewBox="0 0 200 60" xmlns="http://www.w3.org/2000/svg">
    <g fill-rule="nonzero" fill="none">
        <path d="M0 0h100v60H0z"/>
        <g fill="#FFF">
            <path d="M75.698 13.979c-.837 0-1.31.5-1.31 1.403v1.393c0 .911.469 1.385 1.31 1.385.84 0 1.317-.474 1.317-1.385v-1.393c0-.902-.476-1.403-1.317-1.403zM80.887 34.765c1.16 0 1.813-.66 1.813-2.036v-4.508c0-1.358-.67-2.036-1.813-2.036-1.142 0-1.83.66-1.83 2.036v4.508c0 1.358.67 2.036 1.83 2.036zM112.62 49.349h-1.02c-.77 0-1.004.387-1.004.801 0 .565.437.934 1.507.934 1.07 0 1.56-.387 1.56-.952 0-.4-.224-.779-1.043-.779v-.004zM84.665 47.003c-.769.082-1.223.36-1.223 1.007 0 .555.373.933 1.02.933.648 0 1.174-.4 1.44-1.047v-.902a8.661 8.661 0 0 0-1.237.009zM91.73 29.122c1.143-.127 1.664-.806 1.664-1.54v-.218c0-.788-.526-1.448-1.664-1.448s-1.646.66-1.646 1.448v.219c0 .733.526 1.412 1.646 1.54zM94.222 44.644c-.819.009-1.304.5-1.304 1.375v.42h2.613v-.42c0-.87-.486-1.362-1.305-1.375h-.004zM102.524 44.694c-.85 0-1.327.5-1.327 1.403v1.393c0 .911.477 1.385 1.327 1.385s1.335-.474 1.335-1.385v-1.393c0-.902-.485-1.403-1.335-1.403zM111.99 47.112c.738 0 1.197-.387 1.197-1.188 0-.738-.396-1.221-1.214-1.221-.819 0-1.224.433-1.224 1.189s.437 1.22 1.246 1.22h-.004zM91.73 31.359c-1.178.145-1.83.86-1.83 1.703v.291c0 .898.652 1.594 1.83 1.594 1.179 0 1.849-.696 1.849-1.594v-.291c0-.843-.652-1.558-1.849-1.703zM59.166 34.765c1.16 0 1.812-.66 1.812-2.036v-4.508c0-1.358-.67-2.036-1.812-2.036-1.143 0-1.83.66-1.83 2.036v4.508c0 1.358.67 2.036 1.83 2.036zM64.283 47.003c-.769.082-1.223.36-1.223 1.007 0 .555.373.933 1.021.933.648 0 1.174-.4 1.44-1.047v-.902a8.661 8.661 0 0 0-1.238.009zM104.539 16.288c-.76.082-1.206.36-1.206 1.006 0 .556.37.934 1.008.934s1.155-.4 1.416-1.047v-.902a8.412 8.412 0 0 0-1.218.009zM118.993 18.164c.787 0 1.259-.473 1.259-1.416v-1.32c0-.935-.468-1.436-1.26-1.436-.696 0-1.335.501-1.335 1.444v1.312c0 .934.639 1.416 1.336 1.416zM178.663 15.322c0-.55-.302-.983-.958-.983-.657 0-.967.432-.967.983v.196h1.925v-.196zM106.68 29.122c1.142-.127 1.663-.806 1.663-1.54v-.218c0-.788-.526-1.448-1.664-1.448s-1.646.66-1.646 1.448v.219c0 .733.526 1.412 1.646 1.54zM63.586 16.288c-.76.082-1.205.36-1.205 1.006 0 .556.369.934 1.007.934.64 0 1.156-.4 1.417-1.047v-.902a8.412 8.412 0 0 0-1.219.009zM106.68 34.952c1.196 0 1.848-.697 1.848-1.594v-.292c0-.842-.652-1.557-1.849-1.703-1.178.146-1.83.86-1.83 1.703v.292c0 .897.652 1.594 1.83 1.594zM70.008 29.122c1.143-.127 1.664-.806 1.664-1.54v-.218c0-.788-.526-1.448-1.664-1.448-1.137 0-1.646.66-1.646 1.448v.219c0 .733.527 1.412 1.646 1.54zM70.008 34.952c1.197 0 1.849-.697 1.849-1.594v-.292c0-.842-.652-1.557-1.849-1.703-1.178.146-1.83.86-1.83 1.703v.292c0 .897.652 1.594 1.83 1.594zM87.049 16.288c-.76.082-1.206.36-1.206 1.006 0 .556.37.934 1.008.934s1.156-.4 1.416-1.047v-.902a8.412 8.412 0 0 0-1.218.009zM41.42 28.562H31.214c-.378 0-.63.255-.63.679v4.363c0 .464.252.678.63.678h4.682v1.016c0 3.598-1.84 5.251-5.352 5.251-4.268 0-5.69-2.541-5.69-5.97v-7.88c0-3.43 1.422-5.97 5.69-5.97 2.761 0 4.263 1.27 4.978 3.597.167.552.46.72 1.003.552l4.515-1.353c.46-.169.67-.51.504-1.102-1.214-3.899-4.263-7.793-11-7.793-8.325 0-12.21 4.996-12.21 11.86v8.303c0 6.863 3.89 11.86 12.21 11.86 7.025 0 11.544-4.7 11.544-10.927v-6.522c0-.423-.251-.637-.67-.637v-.005zM135.574 16.397c.729 0 1.179-.387 1.179-1.189 0-.737-.392-1.22-1.197-1.22s-1.205.433-1.205 1.189.427 1.22 1.228 1.22h-.005zM137.22 19.412c0-.4-.22-.779-1.03-.779h-1.007c-.76 0-.99.388-.99.797 0 .565.428.934 1.49.934 1.06 0 1.537-.387 1.537-.952zM160.885 16.534v-1.007c0-.687-.279-1.075-.918-1.075-.548 0-.957.392-.957 1.075v1.007c0 .706.409 1.116.957 1.116.64 0 .918-.433.918-1.116zM139.276 26.185c-1.179 0-1.83.66-1.83 2.036v4.508c0 1.358.67 2.036 1.83 2.036 1.16 0 1.812-.66 1.812-2.036v-4.508c0-1.358-.67-2.036-1.812-2.036zM117.558 26.185c-1.178 0-1.83.66-1.83 2.036v4.508c0 1.358.67 2.036 1.83 2.036 1.16 0 1.813-.66 1.813-2.036v-4.508c0-1.358-.67-2.036-1.813-2.036z"/>
            <path d="M172.717 4H8.652A.657.657 0 0 0 8 4.66v31.8C8 47.804 17.08 57 28.283 57h144.434C183.92 57 193 47.805 193 36.46V24.54C193 13.196 183.92 4 172.717 4zm2.582 11.395c0-1.293.787-2.304 2.424-2.304s2.316 1.015 2.316 2.277v.902c0 .155-.05.255-.261.255h-3.045v.214c0 .596.302 1.015 1.008 1.015s.877-.268 1.057-.605c.09-.155.13-.173.287-.105l.787.41c.162.082.171.164.1.319-.338.788-1.188 1.238-2.245 1.238-1.596 0-2.433-.974-2.433-2.304v-1.312h.005zm-8.779-4.122c0-.132.081-.214.211-.214h1.098c.13 0 .211.082.211.214v.966c0 .132-.08.214-.211.214h-1.098c-.13 0-.211-.082-.211-.214v-.966zm0 2.09c0-.09.058-.154.157-.154h1.206c.09 0 .148.06.148.155v5.37c0 .09-.058.154-.148.154h-1.206c-.099 0-.157-.063-.157-.154v-5.37zm-2.892-2.162c0-.092.059-.155.158-.155h1.205c.09 0 .148.059.148.155v7.533c0 .09-.058.154-.148.154h-1.205c-.1 0-.158-.063-.158-.154V11.2zm-9.03 0c0-.092.058-.155.157-.155h1.205c.09 0 .149.059.149.155v7.533c0 .09-.059.154-.149.154h-1.205c-.099 0-.157-.063-.157-.154V11.2zm-26.719 2.172c0-.073.032-.114.122-.114h.638c.09 0 .122.041.122.114v.738c.36-.524.94-.966 1.704-.966 1.048 0 1.606.76 1.606 1.854v3.762c0 .082-.04.123-.13.123h-.648c-.09 0-.13-.041-.13-.123v-3.607c0-.729-.32-1.148-1.008-1.148-.59 0-1.129.442-1.376 1.089v3.67c0 .082-.032.123-.122.123h-.647c-.1 0-.13-.04-.13-.123v-5.392zm-2.595-2.122c0-.091.041-.146.149-.146h.598c.108 0 .148.05.148.146v.993c0 .09-.04.145-.148.145h-.598c-.108 0-.149-.05-.149-.145v-.993zm0 2.131c0-.082.032-.123.13-.123h.649c.09 0 .121.041.121.123v5.383c0 .082-.032.123-.121.123h-.648c-.099 0-.13-.04-.13-.123v-5.383zm-8.53-2.163c0-.073.04-.114.107-.114h.68c.08 0 .107.04.107.114v2.81c.238-.442.787-.87 1.606-.87 1.155 0 1.893.852 1.893 2.14v1.567c0 1.29-.738 2.123-1.925 2.132-.796 0-1.358-.433-1.596-.87v.647c0 .082-.059.113-.122.113h-.638c-.081 0-.122-.031-.122-.113v-7.552l.01-.004zm-8.46 2.154c0-.073.031-.114.121-.114h.639c.09 0 .121.041.121.114v.738c.302-.492.828-.966 1.525-.966.76 0 1.17.474 1.336 1.016.39-.615.935-1.016 1.596-1.016.9 0 1.457.679 1.457 1.722v3.894c0 .082-.05.123-.14.123h-.62c-.09 0-.14-.041-.14-.123v-3.698c0-.688-.3-1.057-.836-1.057-.499 0-.935.369-1.205 1.025v3.73c0 .082-.04.123-.121.123h-.67c-.09 0-.122-.041-.122-.123v-3.698c0-.688-.288-1.057-.827-1.057-.54 0-.99.483-1.22 1.066v3.689c0 .082-.03.123-.12.123h-.657c-.09 0-.122-.041-.122-.123v-5.393l.005.005zm-3.643.551c-.67 0-.949.246-1.106.738-.032.105-.072.114-.171.091l-.59-.164c-.09-.018-.12-.073-.09-.155.18-.779.837-1.28 1.988-1.28 1.152 0 1.957.565 1.957 1.754v3.853c0 .082-.04.123-.13.123h-.599c-.09 0-.13-.041-.13-.123v-.729c-.351.597-.936.952-1.637.952-1.048 0-1.687-.697-1.687-1.649 0-1.033.68-1.598 1.997-1.703.477-.041.9-.032 1.295-.01v-.655c0-.738-.418-1.047-1.097-1.047v.004zm-2.63 19.37c0-1.703.975-2.66 2.081-3.042-1.048-.46-1.884-1.43-1.884-2.86v-.219c0-2.018 1.52-3.63 4.452-3.63s4.47 1.612 4.47 3.648v.255c0 1.34-.831 2.346-1.92 2.806 1.143.387 2.118 1.302 2.118 3.042v.255c0 2.346-1.92 3.849-4.672 3.849-2.753 0-4.65-1.503-4.65-3.849v-.255h.004zM90.803 11.22c0-.082.031-.123.13-.123h.648c.09 0 .121.04.121.123v7.542c0 .082-.031.123-.121.123h-.648c-.099 0-.13-.041-.13-.123v-7.542zm-3.643 2.705c-.67 0-.949.246-1.106.738-.032.105-.072.114-.171.091l-.59-.164c-.09-.018-.12-.073-.09-.155.18-.779.837-1.28 1.989-1.28 1.15 0 1.956.565 1.956 1.754v3.853c0 .082-.04.123-.13.123h-.599c-.09 0-.13-.041-.13-.123v-.729c-.35.597-.936.952-1.637.952-1.048 0-1.687-.697-1.687-1.649 0-1.033.68-1.598 1.997-1.703.477-.041.9-.032 1.295-.01v-.655c0-.738-.418-1.047-1.097-1.047v.004zm-7.73-.551c0-.073.03-.114.12-.114h.64c.09 0 .12.041.12.114v.738c.36-.524.94-.966 1.705-.966 1.048 0 1.606.76 1.606 1.854v3.762c0 .082-.04.123-.13.123h-.648c-.09 0-.13-.041-.13-.123v-3.607c0-.729-.32-1.148-1.008-1.148-.59 0-1.129.442-1.376 1.089v3.67c0 .082-.032.123-.122.123h-.647c-.1 0-.13-.04-.13-.123v-5.392zm-8.38-2.122c0-.091.041-.146.15-.146h.597c.108 0 .149.05.149.146v.993c0 .09-.04.145-.149.145H71.2c-.108 0-.148-.05-.148-.145v-.993zm0 2.131c0-.082.032-.123.131-.123h.648c.09 0 .121.041.121.123v5.383c0 .082-.031.123-.121.123h-.648c-.099 0-.13-.04-.13-.123v-5.383zm-4.272.05c0-.105.04-.146.108-.146h.76v-1.352c0-.073.032-.123.13-.123h.621c.1 0 .13.05.13.123v1.352h1.17c.081 0 .122.041.122.146v.501c0 .091-.04.132-.122.132h-1.17v3.248c0 .5.262.737.76.737h.401c.081 0 .13.032.13.123v.574c0 .091-.04.132-.13.132h-.53c-.976 0-1.516-.542-1.516-1.434V14.06h-.747c-.072 0-.108-.041-.108-.132v-.501l-.009.004zM70 23.543c2.95 0 4.47 1.612 4.47 3.648v.255c0 1.34-.831 2.346-1.92 2.806 1.143.387 2.119 1.302 2.119 3.042v.255c0 2.346-1.92 3.849-4.673 3.849-2.752 0-4.65-1.503-4.65-3.849v-.255c0-1.703.976-2.66 2.082-3.042-1.048-.46-1.884-1.43-1.884-2.86v-.219c0-2.018 1.52-3.63 4.452-3.63h.004zm-6.305-9.619c-.67 0-.949.246-1.106.738-.032.105-.072.114-.17.091l-.59-.164c-.09-.018-.122-.073-.09-.155.18-.779.836-1.28 1.988-1.28 1.151 0 1.956.565 1.956 1.754v3.853c0 .082-.04.123-.13.123h-.598c-.09 0-.13-.041-.13-.123v-.729c-.352.597-.936.952-1.638.952-1.048 0-1.686-.697-1.686-1.649 0-1.033.679-1.598 1.996-1.703.477-.041.9-.032 1.296-.01v-.655c0-.738-.419-1.047-1.098-1.047v.004zm-8.877-2.386c0-.1.05-.155.157-.155h1.007c.1 0 .158.05.198.155l2.065 4.23c.337.697.638 1.417.908 2.05h.018c-.05-.647-.072-1.28-.072-1.967v-4.345c0-.082.032-.123.13-.123h.648c.09 0 .13.04.13.123v7.228c0 .104-.049.154-.157.154h-.926c-.09 0-.149-.05-.198-.145l-2.105-4.245c-.35-.697-.657-1.457-.926-2.09h-.018c.031.646.05 1.27.05 1.949v4.4c0 .09-.032.131-.122.131h-.648c-.099 0-.14-.04-.14-.132v-7.218zm-7.493 23.906c0 9.131-7.312 16.537-16.33 16.537h-1.578c-9.017 0-16.33-7.406-16.33-16.537v-25.6c0-.297.234-.534.527-.534h17.39c9.018 0 16.33 7.406 16.33 16.538v9.596h-.009zm7.182-7.296c0-2.806 1.718-4.6 4.65-4.6 2.933 0 4.633 1.944 4.633 4.6v4.654c0 2.66-1.664 4.6-4.673 4.6-3.009 0-4.614-1.794-4.614-4.6v-4.654h.004zm6.418 19.224c0 1.416-1.02 2.345-2.55 2.345-1.682 0-2.671-.965-2.671-2.623v-2.482c0-1.672.994-2.623 2.671-2.623 1.345 0 2.105.696 2.438 1.712.04.105 0 .164-.081.196l-.608.196c-.103.04-.152.009-.193-.082-.243-.738-.728-1.116-1.56-1.116-1.102 0-1.723.565-1.723 1.794v2.337c0 1.22.616 1.794 1.723 1.794.98 0 1.628-.46 1.628-1.485v-.851h-1.426c-.081 0-.122-.032-.122-.132v-.597c0-.091.04-.132.122-.132h2.208c.09 0 .144.05.144.132v1.621-.004zm5.487 2.113c0 .082-.04.123-.13.123h-.608c-.09 0-.13-.04-.13-.123v-.729a1.893 1.893 0 0 1-1.66.952c-1.061 0-1.709-.696-1.709-1.648 0-1.034.688-1.599 2.024-1.704a9.15 9.15 0 0 1 1.318-.009v-.656c0-.737-.428-1.047-1.116-1.047-.688 0-.962.246-1.124.738-.031.104-.072.113-.17.09l-.599-.163c-.09-.018-.121-.073-.09-.155.184-.779.85-1.28 2.015-1.28s1.983.565 1.983 1.754v3.853l-.004.004zm8.576 0c0 .082-.05.123-.14.123h-.63c-.089 0-.143-.04-.143-.123v-3.698c0-.688-.301-1.057-.85-1.057-.504 0-.953.37-1.223 1.025v3.73c0 .082-.04.123-.122.123H71.2c-.09 0-.121-.04-.121-.123v-3.698c0-.688-.293-1.057-.841-1.057-.549 0-1.003.483-1.237 1.066v3.69c0 .081-.031.122-.121.122h-.67c-.09 0-.122-.04-.122-.123v-5.392c0-.073.032-.114.122-.114h.647c.09 0 .122.04.122.114v.738c.305-.492.84-.966 1.547-.966.769 0 1.182.474 1.358 1.016.396-.615.953-1.016 1.619-1.016.913 0 1.48.679 1.48 1.722v3.894l.004.004zm-1.516-32.65v-1.467c0-1.312.738-2.214 2.213-2.214s2.217.902 2.217 2.196v1.466c0 1.312-.737 2.195-2.217 2.195s-2.213-.883-2.213-2.172v-.005zm2.753 11.317c0-2.805 1.718-4.6 4.65-4.6 2.932 0 4.632 1.945 4.632 4.6v4.655c0 2.66-1.664 4.6-4.673 4.6-3.008 0-4.614-1.795-4.614-4.6v-4.655h.005zm5.302 19.766c-.315 1.098-1.093 1.804-2.429 1.804-1.52 0-2.509-.966-2.509-2.623v-2.483c0-1.662.994-2.623 2.51-2.623 1.295 0 2.032.656 2.37 1.73.031.115 0 .174-.081.206l-.599.186c-.103.041-.161.01-.193-.081-.243-.72-.648-1.14-1.489-1.14-.971 0-1.57.566-1.57 1.795v2.337c0 1.23.617 1.794 1.57 1.794.882 0 1.336-.483 1.539-1.211.031-.114.09-.132.193-.091l.598.196c.081.04.121.09.09.204zm5.266 1.567c0 .082-.04.123-.13.123h-.607c-.09 0-.13-.04-.13-.123v-.729a1.893 1.893 0 0 1-1.66.952c-1.062 0-1.71-.696-1.71-1.648 0-1.034.689-1.599 2.025-1.704a9.15 9.15 0 0 1 1.317-.009v-.656c0-.737-.427-1.047-1.115-1.047s-.962.246-1.124.738c-.032.104-.072.113-.171.09l-.598-.163c-.09-.018-.122-.073-.09-.155.184-.779.85-1.28 2.014-1.28 1.165 0 1.984.565 1.984 1.754v3.853l-.005.004zm4.426-4.818c0 .09-.032.132-.13.132h-.122c-.819 0-1.336.473-1.579 1.115v3.576c0 .082-.05.114-.112.114h-.688c-.063 0-.113-.032-.113-.114v-5.402c0-.09.05-.114.122-.114h.63c.09 0 .13.041.13.123l-.01.852c.293-.565.86-1.048 1.71-1.048.13 0 .162.019.162.133v.633zm5.162 2.181c0 .164-.08.246-.265.246H92.91v.451c0 .893.476 1.375 1.358 1.385.81 0 1.102-.32 1.304-.747.063-.123.112-.123.225-.073l.436.227c.122.05.13.123.081.228-.306.706-1.003 1.157-2.055 1.157-1.448-.01-2.235-.884-2.235-2.172v-1.508c0-1.27.769-2.163 2.208-2.172 1.407.009 2.154.901 2.154 2.163v.82l-.005-.005zm.01-13.29c0 2.346-1.92 3.849-4.673 3.849s-4.65-1.503-4.65-3.849v-.255c0-1.703.976-2.66 2.082-3.042-1.048-.46-1.884-1.43-1.884-2.86v-.219c0-2.018 1.52-3.63 4.452-3.63s4.47 1.612 4.47 3.648v.255c0 1.34-.832 2.346-1.92 2.806 1.142.387 2.118 1.302 2.118 3.042v.255h.004zm-.31-17.179v-2.482c0-1.672.975-2.624 2.635-2.624 1.326 0 2.073.697 2.406 1.713.04.1 0 .164-.081.196l-.598.196c-.1.04-.149.009-.19-.082-.238-.738-.719-1.116-1.537-1.116-1.089 0-1.696.565-1.696 1.794v2.337c0 1.22.607 1.794 1.696 1.794.966 0 1.605-.46 1.605-1.485v-.851h-1.408c-.08 0-.121-.032-.121-.132v-.597c0-.091.04-.132.121-.132h2.177c.09 0 .14.05.14.132v1.621c0 1.417-1.008 2.346-2.514 2.346-1.655 0-2.636-.966-2.636-2.623v-.005zm2.67 33.065c0 .114-.062.164-.152.164h-.616c-.081 0-.13-.05-.13-.155v-1.525c0-.092.04-.164.13-.164h.616c.09 0 .153.05.153.164v1.516zm6.013-1.917c0 1.311-.75 2.195-2.248 2.195-1.498 0-2.249-.884-2.249-2.172v-1.467c0-1.312.751-2.213 2.249-2.213 1.497 0 2.248.901 2.248 2.195v1.466-.004zm4.295-2.86c0 .09-.031.132-.13.132h-.122c-.818 0-1.335.473-1.578 1.115v3.576c0 .082-.05.114-.113.114h-.688c-.063 0-.112-.032-.112-.114v-5.402c0-.09.05-.114.121-.114h.63c.09 0 .13.041.13.123l-.009.852c.293-.565.86-1.048 1.71-1.048.13 0 .161.019.161.133v.633zm2.996 7.09c-1.669 0-2.317-.637-2.317-1.516 0-.5.266-.974.832-1.22-.251-.196-.382-.474-.382-.72 0-.328.203-.638.567-.788-.558-.328-.85-.893-.85-1.608 0-1.147.697-1.926 2.073-1.926h2.429c.072 0 .103.04.103.123v.5c0 .092-.05.133-.121.133h-.963c.324.246.567.688.567 1.293 0 1.048-.688 1.786-2.015 1.786h-.454c-.387 0-.549.173-.549.387 0 .214.171.392.549.392h1.196c1.304 0 1.822.655 1.822 1.475 0 .925-.68 1.69-2.478 1.69h-.01zm4.578-2.317c0 .113-.063.164-.153.164h-.616c-.081 0-.13-.05-.13-.155v-1.526c0-.091.04-.164.13-.164h.616c.09 0 .153.05.153.164v1.517zm-3.733-16.638v-4.654c0-2.806 1.718-4.6 4.65-4.6 2.932 0 4.632 1.944 4.632 4.6v4.654c0 2.66-1.664 4.6-4.672 4.6-3.009 0-4.615-1.794-4.615-4.6h.005zm9.633 16.679c0 .072-.031.123-.121.123h-.648c-.09 0-.121-.05-.121-.123v-.738c-.365.533-.954.974-1.732.974-1.061 0-1.628-.77-1.628-1.853v-3.762c0-.082.04-.123.13-.123h.657c.09 0 .13.04.13.123v3.607c0 .729.324 1.148 1.013 1.148.607 0 1.142-.442 1.398-1.089v-3.67c0-.083.04-.124.13-.124h.657c.104 0 .13.041.13.123v5.384h.005zm1.053-30.716c0 .082-.032.123-.122.123h-.648c-.098 0-.13-.04-.13-.123v-7.542c0-.082.032-.123.13-.123h.648c.09 0 .122.041.122.123v7.542zm4.839 30.839h-.729c-.103 0-.14-.032-.184-.114l-1.466-2.583-.882 1.034v1.54c0 .082-.031.123-.121.123h-.67c-.09 0-.122-.041-.122-.123v-7.543c0-.072.032-.122.122-.122h.67c.09 0 .121.05.121.122v4.828l2.217-2.664c.072-.091.13-.123.234-.123h.72c.112 0 .14.09.08.164l-1.762 2.058 1.862 3.23c.049.09 0 .173-.09.173zm4.528-12.694c0 .164-.09.274-.287.274h-8.217c-.198 0-.306-.073-.342-.255l-.346-1.813a.65.65 0 0 1 .108-.515l3.656-3.283c1.92-1.704 2.46-2.4 2.442-3.43-.018-1.084-.688-1.703-1.736-1.703-1.124 0-1.61.715-1.866 1.648-.054.219-.198.31-.436.237l-1.92-.57c-.199-.054-.27-.236-.217-.477.49-1.945 1.772-3.484 4.525-3.484 2.752 0 4.488 1.721 4.506 4.162.018 2.109-1.106 3.393-3.004 4.97l-2.262 1.871h5.104c.198 0 .288.11.288.273v2.09l.004.005zm.4-17.384c0-.5.261-.975.82-1.22-.248-.196-.379-.474-.379-.72 0-.328.198-.638.558-.788-.549-.328-.836-.893-.836-1.608 0-1.147.688-1.926 2.046-1.926h2.397c.072 0 .099.04.099.123v.5c0 .092-.05.133-.122.133h-.949c.32.246.558.687.558 1.293 0 1.048-.679 1.786-1.988 1.786h-.45c-.377 0-.54.173-.54.387 0 .214.172.391.54.391h1.179c1.286 0 1.794.656 1.794 1.476 0 .925-.67 1.69-2.446 1.69-1.646 0-2.285-.638-2.285-1.517h.005zm10.551 13.28c0 2.66-1.664 4.6-4.672 4.6-3.01 0-4.615-1.794-4.615-4.6v-4.654c0-2.805 1.718-4.6 4.65-4.6 2.933 0 4.633 1.945 4.633 4.6v4.655h.004zm3.495-14.068c0 .091-.04.155-.149.155h-1.246c-.098 0-.157-.064-.157-.155v-2.86h-2.514v2.86c0 .091-.05.155-.148.155h-1.26c-.09 0-.148-.064-.148-.155v-7.196c0-.09.058-.155.157-.155h1.246c.1 0 .149.064.149.155v2.86h2.514v-2.86c0-.09.058-.155.157-.155h1.246c.108 0 .148.064.148.155v7.196h.005zm1.277-2.031v-1.312c0-1.293.787-2.304 2.424-2.304s2.316 1.015 2.316 2.277v.902c0 .155-.05.255-.26.255h-3.046v.214c0 .596.302 1.015 1.008 1.015s.877-.268 1.057-.605c.09-.155.13-.173.288-.105l.787.41c.161.082.17.164.099.319-.338.788-1.188 1.238-2.245 1.238-1.596 0-2.433-.974-2.433-2.304h.005zm10.362 20.203c0 .128-.09.274-.252.274h-8.109c-.162 0-.252-.146-.252-.274v-2.108c0-.11.09-.255.252-.255h2.77v-7.533l-2.68 1.06c-.162.055-.306 0-.36-.181l-.742-1.909c-.054-.164-.018-.31.162-.387l3.962-1.649c.252-.09.418-.182.67-.182h1.448c.18 0 .27.11.27.274v10.502h2.609c.162 0 .252.146.252.255v2.113zM159 18.214v2.583c0 .082-.05.146-.149.146h-1.219c-.099 0-.148-.06-.148-.146v-7.442c0-.082.05-.141.148-.141h1.179c.09 0 .14.059.14.14v.525c.22-.36.76-.788 1.506-.788 1.187 0 1.934.883 1.934 2.213v1.476c0 1.311-.747 2.236-1.876 2.236-.778 0-1.318-.419-1.515-.797v-.005zm10.658 15.217c0 2.436-1.92 3.976-4.744 3.976-2.825 0-4.183-1.558-4.673-3.32-.054-.2 0-.37.216-.46l1.812-.643c.234-.09.4-.018.49.22.4 1.06 1.048 1.666 2.208 1.666 1.16 0 1.867-.679 1.867-1.576v-.182c0-1.043-.598-1.594-2.01-1.594H163.7c-.18 0-.288-.091-.288-.273v-1.872c0-.182.108-.292.288-.292h1.107c1.178 0 1.812-.533 1.812-1.448v-.146c0-.933-.688-1.43-1.79-1.43-.976 0-1.556.424-1.938 1.34-.072.218-.216.272-.437.145l-1.753-.916c-.126-.072-.18-.218-.108-.423.688-1.612 1.992-2.66 4.416-2.66 2.896 0 4.38 1.576 4.38 3.612v.2c0 1.32-.724 2.4-2.01 2.842 1.358.31 2.28 1.467 2.28 3.006v.228zm1.264-14.693c0 .091-.059.155-.149.155h-1.205c-.099 0-.157-.064-.157-.155v-5.383c0-.073.05-.141.148-.141h1.17a.14.14 0 0 1 .148.14v.648c.328-.483.877-.911 1.637-.911 1.039 0 1.614.801 1.614 1.99v3.662c0 .104-.058.155-.148.155h-1.205c-.1 0-.149-.064-.149-.155V15.34c0-.51-.247-.83-.71-.83-.463 0-.837.36-.99.893v3.343l-.004-.009zm9.597 14.693c0 2.436-1.92 3.976-4.745 3.976-2.824 0-4.182-1.558-4.668-3.32-.054-.2 0-.37.216-.46l1.813-.643c.233-.09.4-.018.49.22.4 1.06 1.048 1.666 2.208 1.666 1.16 0 1.866-.679 1.866-1.576v-.182c0-1.043-.598-1.594-2.01-1.594h-1.124c-.18 0-.288-.091-.288-.273v-1.872c0-.182.108-.292.288-.292h1.106c1.178 0 1.812-.533 1.812-1.448v-.146c0-.933-.688-1.43-1.794-1.43-.976 0-1.556.424-1.938 1.34-.072.218-.216.272-.437.145l-1.754-.916c-.125-.072-.18-.218-.107-.423.688-1.612 1.992-2.66 4.416-2.66 2.896 0 4.38 1.576 4.38 3.612v.2c0 1.32-.724 2.4-2.01 2.842 1.358.31 2.28 1.467 2.28 3.006v.228z"/>
            <path d="M152.048 15.322c0-.55-.302-.983-.958-.983-.657 0-.967.432-.967.983v.196h1.925v-.196z"/>
        </g>
    </g>
</svg>
