<svg width="100" height="60" viewBox="0 0 100 60" xmlns="http://www.w3.org/2000/svg">
    <g fill-rule="nonzero" fill="none">
        <path d="M0 0h100v60H0z"/>
        <path d="M48.583 22.25a.69.69 0 0 1 .692.692V37.3a.69.69 0 0 1-.692.692H5.943a.692.692 0 0 1-.693-.692v-7.39c0-2.115.857-4.03 2.244-5.416a7.637 7.637 0 0 1 5.417-2.244z" stroke="#FFF" stroke-width=".5"/>
        <path d="M20.069 35.479a.11.11 0 0 1-.11.114h-2.342a.114.114 0 0 1-.11-.114.114.114 0 0 0-.113-.11h-.038c-.232.076-.47.131-.71.165a5.253 5.253 0 0 1-2.945-.362 5.522 5.522 0 0 1-3.023-3.007 5.703 5.703 0 0 1 0-4.176 5.307 5.307 0 0 1 1.21-1.783 5.387 5.387 0 0 1 1.83-1.212 5.56 5.56 0 0 1 4.16 0c.649.26 1.24.644 1.74 1.132a.11.11 0 0 1 0 .155l-1.635 1.636a.11.11 0 0 1-.156 0 2.78 2.78 0 0 0-.908-.576 3.007 3.007 0 0 0-2.246 0 2.784 2.784 0 0 0-.988.648 2.973 2.973 0 0 0 0 4.205c.25.256.547.463.874.61a3.1 3.1 0 0 0 1.005.253c.347.024.695-.009 1.03-.097a2.78 2.78 0 0 0 .892-.42.105.105 0 0 0 .05-.093v-.354a.114.114 0 0 0-.113-.109h-1.989a.11.11 0 0 1-.11-.11V29.57c0-.06.05-.11.11-.11h4.517a.11.11 0 0 1 .118.102v5.917zM27.782 24.658a.114.114 0 0 1 .113.08l3.474 10.758a.114.114 0 0 1-.063.143.105.105 0 0 1-.05 0h-2.419a.114.114 0 0 1-.103-.067l-.01-.043-.379-1.14a.105.105 0 0 0-.109-.08h-3.31a.11.11 0 0 0-.1.08l-.396 1.178a.11.11 0 0 1-.105.08H21.89a.114.114 0 0 1-.11-.113.122.122 0 0 1 0-.038l3.672-10.758a.11.11 0 0 1 .1-.08h2.23zm-1.161 4.66a.126.126 0 0 0-.08.08l-.79 2.2a.105.105 0 0 0 .058.142c.024.011.052.011.076 0h1.472a.114.114 0 0 0 .118-.1.084.084 0 0 0 0-.047l-.72-2.195a.114.114 0 0 0-.134-.08zM44.137 35.6H41.82a.114.114 0 0 1-.113-.104l-.228-3.823a.114.114 0 0 0-.222 0l-1.3 3.848a.105.105 0 0 1-.1.076h-2.373a.105.105 0 0 1-.105-.076l-1.422-4.058a.105.105 0 0 0-.113-.11.11.11 0 0 0-.11.11l-.252 3.995a.114.114 0 0 1-.113.1h-2.326a.11.11 0 0 1-.11-.108l.699-10.737a.105.105 0 0 1 .11-.101h2.422a.11.11 0 0 1 .1.08l2.28 6.501a.11.11 0 0 0 .135.076.114.114 0 0 0 .08-.076l2.212-6.501a.114.114 0 0 1 .105-.089h2.418c.058 0 .107.043.113.101l.631 10.775a.118.118 0 0 1-.1.122z" fill="#FFF"/>
        <g fill="#FFF">
            <path d="M88.052 27.808a2.25 2.25 0 0 0-.622-.454 2.027 2.027 0 0 0-.665-.181.11.11 0 0 0-.117.097v3.953c0 .061.048.111.109.113.23-.02.456-.084.664-.185.238-.11.453-.262.636-.45a2.103 2.103 0 0 0-.004-2.893zM77.433 27.379a2.966 2.966 0 0 0-2.3 5.467 3.028 3.028 0 0 0 2.3 0 2.965 2.965 0 0 0 0-5.467z"/>
            <path d="M93.738 22a.943.943 0 0 1 .96.95v7.39a7.91 7.91 0 0 1-7.907 7.902H51.098a.942.942 0 0 1-.942-.942V22.942c0-.52.421-.942.942-.942zm-17.461 2.633a5.249 5.249 0 0 0-2.133.42 5.497 5.497 0 0 0-2.914 2.919 5.556 5.556 0 0 0 0 4.281 5.467 5.467 0 0 0 7.183 2.919 5.623 5.623 0 0 0 2.927-2.936 5.447 5.447 0 0 0 0-4.29 5.564 5.564 0 0 0-1.177-1.74c-.507-.49-1.1-.881-1.75-1.153a5.316 5.316 0 0 0-2.136-.42zm-18.97-.413-.233.009a3.301 3.301 0 0 0-1.06.265c-.33.145-.633.346-.896.593-.27.255-.496.554-.668.883-.19.362-.307.758-.341 1.165a3.255 3.255 0 0 0 .622 2.237c.244.317.545.586.888.791.247.17.512.31.79.42l.791.27.395.134.35.135c.125.058.24.136.34.231.08.076.147.164.198.261a.77.77 0 0 1 .08.252c.016.129.016.259 0 .387a.694.694 0 0 1-.08.244 1.358 1.358 0 0 1-.198.265 1.072 1.072 0 0 1-.34.219 1.3 1.3 0 0 1-.619.118 1.085 1.085 0 0 1-.584-.198 1.413 1.413 0 0 1-.35-.34 1.03 1.03 0 0 1-.189-.585.11.11 0 0 0-.11-.11h-2.358a.114.114 0 0 0-.101.118 3.693 3.693 0 0 0 1.712 3.053c.298.188.622.33.962.42.336.095.682.145 1.03.148.283.005.565-.02.842-.076a3.718 3.718 0 0 0 2.334-1.585c.375-.57.572-1.24.568-1.922a3.52 3.52 0 0 0-2.103-3.2 4.584 4.584 0 0 0-.53-.207l-.513-.168-.538-.19a3.33 3.33 0 0 1-.467-.214.694.694 0 0 1-.299-.42.66.66 0 0 1 .047-.496c.05-.11.132-.2.235-.261a.95.95 0 0 1 .294-.105.841.841 0 0 1 .253 0h.126c.132.042.258.102.374.176a.475.475 0 0 1 .21.379c.01.055.058.096.114.097h2.3a.114.114 0 0 0 .106-.122 3.163 3.163 0 0 0-.177-.947 3.015 3.015 0 0 0-.467-.883 3.255 3.255 0 0 0-.79-.706 3.364 3.364 0 0 0-1.027-.42 3.579 3.579 0 0 0-1.156-.106zm29.328.408h-2.406a.106.106 0 0 0-.109.11v10.75a.105.105 0 0 0 .11.109h2.3a.11.11 0 0 0 .113-.11v-1.535c0-.06.05-.109.11-.109a4.47 4.47 0 0 0 1.653-.379 4.677 4.677 0 0 0 2.422-2.456 4.41 4.41 0 0 0 .35-1.762 4.593 4.593 0 0 0-1.33-3.225 4.727 4.727 0 0 0-1.45-1.006 4.32 4.32 0 0 0-1.763-.387zm-17.138-.008h-6.51a.11.11 0 0 0-.11.11v2.325c0 .06.05.11.11.11h1.985v8.293c.002.061.052.11.114.11h2.325a.11.11 0 0 0 .11-.11v-8.302h1.976a.11.11 0 0 0 .114-.11V24.73a.11.11 0 0 0-.114-.109z"/>
        </g>
    </g>
</svg>
