<svg width="100" height="60" viewBox="0 0 100 60" xmlns="http://www.w3.org/2000/svg" xmlns:xlink="http://www.w3.org/1999/xlink">
    <defs>
        <path id="ql66a8vlra" d="M0 0h40v40H0z"/>
    </defs>
    <g fill="none" fill-rule="evenodd">
        <path d="M0 0h100v60H0z"/>
        <g transform="translate(30 10)">
            <mask id="73ixqil32b" fill="#fff">
                <use xlink:href="#ql66a8vlra"/>
            </mask>
            <circle mask="url(#73ixqil32b)" cx="20" cy="20" r="16"/>
            <path d="M30.662 18.773h-1.777v-1.775h-1.778v1.775h-1.776v1.777h1.776v1.778h1.778V20.55h1.777v-1.777zm-6.503 4.755c0-1.928-.307-3.199-1.642-4.053.96-.702 1.421-1.93 1.421-3.159 0-3.066-1.402-4.447-3.637-4.447-2.235 0-3.637 1.381-3.637 4.447 0 1.23.46 2.457 1.425 3.16-1.337.853-1.644 2.124-1.644 4.052 0 2.981 1.314 4.605 3.856 4.605s3.858-1.624 3.858-4.605zm-9.491-11.861h-1.23c-.897 0-2.324 1.627-2.324 2.241v1.312h1.776v12.44h1.778V11.666zM36 19.999C36 28.836 28.835 36 20 36S4 28.836 4 20c0-8.835 7.165-16 16-16s16 7.165 16 16zm-15.7.725c-1.051 0-1.402.984-1.402 2.63 0 1.644.351 2.629 1.403 2.629s1.401-.985 1.401-2.628c0-1.647-.35-2.631-1.401-2.631zm-1.181-4.536c0-1.535.348-2.169 1.182-2.169s1.182.634 1.182 2.169c0 1.534-.348 2.167-1.182 2.167s-1.182-.633-1.182-2.167z" fill="#FFF" mask="url(#73ixqil32b)"/>
        </g>
    </g>
</svg>
