<svg width="100" height="60" viewBox="0 0 100 60" xmlns="http://www.w3.org/2000/svg">
    <g fill-rule="nonzero" fill="none">
        <path d="M0 0h100v60H0z"/>
        <path d="M47.813 28.898a.227.227 0 0 0 0 .11.297.297 0 0 1 .07-.117h.054c.101-.061.186-.144.25-.243a.46.46 0 0 0-.374-.156.422.422 0 0 1-.094.25.445.445 0 0 1-.11.102.156.156 0 0 1-.117 0h-.047l-.195.054s-.055.047-.07.094a.086.086 0 0 0-.055.117h.047a.086.086 0 0 1 .062 0h.141a.336.336 0 0 0 .227-.117.492.492 0 0 1 .093-.086m-1.03-14.984a.195.195 0 1 0 0-.39.195.195 0 0 0 0 .39m-1.602 11.883a.21.21 0 0 1 .132.148c0 .07.063.149.149.164.094.137.216.252.36.336h-.087c.066.04.137.072.211.094-.054.004-.11.004-.164 0a.703.703 0 0 0 .29.125.562.562 0 0 1-.282.047c-.094 0-.149-.078-.242-.086a.07.07 0 0 0-.07 0 .133.133 0 0 0-.157.078h.11-.07a.094.094 0 0 0-.04.102.18.18 0 0 1 .078-.04h.063a.07.07 0 0 0 0 .047.187.187 0 0 0-.063.164l.07-.062a.18.18 0 0 1 .204-.047s.054.04.086.047a.29.29 0 0 0 .117 0 .234.234 0 0 0 .117-.047c.05.007.1-.008.14-.04h.04a.61.61 0 0 0 .18-.054h.07a.906.906 0 0 1 .218.04s-.046-.048-.046-.079c.03.063.083.11.148.133 0 0-.07-.055-.078-.094a.14.14 0 0 0 .078 0 .54.54 0 0 0 .14 0c-.093 0-.18-.047-.148-.148a11.39 11.39 0 0 1 1.196-.258.43.43 0 0 1 .421.164c.19.102.402.16.618.172 0 0 0 .086-.07.102H48.64s-.062.039-.062.07a.18.18 0 0 1 .094 0s-.086.047-.07.094c.015.046.07-.04.101 0 .031.039 0 0 .047 0s-.086.062-.07.093H48.969a.148.148 0 0 0 .093-.054.781.781 0 0 1 .086-.211c0-.055.18-.266.133-.32-.047-.055 0 0-.039 0h-.07a.68.68 0 0 1-.36-.094 1.89 1.89 0 0 1-.234-.274l.406.133c.075.022.15.037.227.047a.313.313 0 0 0 .242-.055.266.266 0 0 0 0-.367.305.305 0 0 0-.078-.063 1.133 1.133 0 0 0-.547-.14c-.13.004-.261.017-.39.039l-.376.055a3.125 3.125 0 0 1-.398 0c-.065.003-.13.003-.195 0-.063 0-.14-.04-.149-.102a.164.164 0 0 1 .102-.148.563.563 0 0 1 .21-.047c.159-.013.317.003.47.047l.195.062c.069.021.14.037.21.047a.781.781 0 0 0 .235 0c.075-.008.151-.008.227 0 .119.007.237.028.351.063a.922.922 0 0 0-.601-.133c.109-.013.219-.013.328 0a1.242 1.242 0 0 0-.453 0c.076-.024.155-.04.234-.047a1.367 1.367 0 0 0-.398 0 .781.781 0 0 1 .21-.055.54.54 0 0 0-.273 0l-.101-.14a.312.312 0 0 1-.149 0h-.101a.96.96 0 0 0-.688.093.195.195 0 0 0 0 .297c.14.088.306.124.469.102.162-.007.324-.023.484-.047.15-.029.301-.05.453-.063.18-.007.361.02.532.078.067.03.125.076.172.133a.125.125 0 0 1 0 .172.188.188 0 0 1-.094 0 .844.844 0 0 1-.211-.039c-.188-.055-.352-.133-.547-.18a.984.984 0 0 0-.219 0 4.29 4.29 0 0 0-1.562.266h-.055a.195.195 0 0 0-.156-.195h.07a.094.094 0 0 1 .055 0h.086s-.086-.11-.04-.07c.047.038.133 0 .133 0a.188.188 0 0 1-.109-.07.18.18 0 0 0 .156 0 .102.102 0 0 1-.07 0 .344.344 0 0 0 .242-.196.32.32 0 0 0-.32 0 .969.969 0 0 0-.649-.14s0-.165-.296-.142c0 0 0 .227.148.266h-.094a.094.094 0 0 0 .07.078s-.101.04-.124 0c-.024-.039 0 .07.117.07s-.078.063-.117.04a.32.32 0 0 0 .125.07l.086.11a.29.29 0 0 0-.211.343c-.094-.047-.32-.156-.368-.25a.523.523 0 0 1-.054-.133.18.18 0 0 0-.102-.125.156.156 0 0 0-.07-.047.062.062 0 0 0-.055 0 .18.18 0 0 0-.125 0s.047 0 .063.047a.172.172 0 0 0-.133 0h.086m1.39-.226a.914.914 0 0 1 .188 0c-.102.078-.211.086-.219.054-.008-.03 0-.062 0-.07m0 .234s-.086-.046-.133 0c-.047.047.094.055.094.055a.492.492 0 0 1-.148.29h-.063a.54.54 0 0 1 0-.352s.07.062.094 0c.023-.063-.078-.086-.078-.086a.172.172 0 0 1 .148 0c.056.009.1.053.11.11m-.157-.274c.055 0 0 .054 0 .07 0 .016-.117 0-.187-.117a.695.695 0 0 1 .187.047m-1.258 2.289a.227.227 0 0 1 .149.156c0 .07.062.148.148.164.093.136.216.249.36.328h-.086c.063.046.135.08.21.102a.563.563 0 0 1-.163 0 .617.617 0 0 0 .289.133.562.562 0 0 1-.282.039c-.093 0-.148-.079-.242-.086h-.07c-.078 0-.14 0-.156.078a.258.258 0 0 1 .11 0h-.071a.094.094 0 0 0-.04.101s.04-.039.079-.039h.062a.125.125 0 0 0 0 .055.18.18 0 0 0-.062.164l.07-.063a.195.195 0 0 1 .203-.054l.086.055a.29.29 0 0 0 .117 0 .18.18 0 0 0 .118-.047.164.164 0 0 0 .14 0h.04a.602.602 0 0 0 .179-.047h.07a.64.64 0 0 1 .22.039s-.048-.047-.048-.086a.21.21 0 0 0 .149.047s-.07-.047-.078-.094a.14.14 0 0 0 .078 0 .25.25 0 0 0 .14 0c-.093 0-.18-.047-.148-.14a11.39 11.39 0 0 1 1.195-.258.453.453 0 0 1 .422.171c.191.102.401.164.617.18 0 0 0 .086-.07.094h-.047a.078.078 0 0 0-.055 0h-.039s-.062 0-.062.062a.352.352 0 0 1 .093 0s-.085.047-.07.086a.195.195 0 0 1 .102 0h.047c.047 0-.086.063-.07.102h.07a.117.117 0 0 1 .054 0h.149a.133.133 0 0 0 .093-.047.781.781 0 0 1 .086-.21c0-.056.18-.267.133-.321-.047-.055 0 0-.039 0h-.07a.61.61 0 0 1-.36-.094c-.09-.08-.169-.172-.234-.273l.406.132c.072.03.15.045.227.047a.313.313 0 0 0 .242-.054.25.25 0 0 0 0-.36.336.336 0 0 0-.078-.07 1.227 1.227 0 0 0-.547-.133 2.07 2.07 0 0 0-.39.04c-.126 0-.243.038-.376.046a2.14 2.14 0 0 1-.398 0 .828.828 0 0 1-.195 0c-.063 0-.14-.04-.149-.102a.148.148 0 0 1 .102-.148.555.555 0 0 1 .21-.055c.159-.007.317.012.47.055l.195.055.21.054a.781.781 0 0 0 .235 0c.075-.017.15-.03.227-.039.12.01.237.034.351.07a.922.922 0 0 0-.601-.132c.107-.026.217-.04.328-.04a1.437 1.437 0 0 0-.453 0 2.07 2.07 0 0 1 .234-.046 1.36 1.36 0 0 0-.398 0 .781.781 0 0 1 .21-.063.648.648 0 0 0-.273 0h-.133a.453.453 0 0 1-.148 0h-.11a.953.953 0 0 0-.68.086s-.171.164 0 .305a.781.781 0 0 0 .47.102c.162-.008.323-.023.484-.047.156 0 .297-.055.453-.07.181-.006.361.023.531.085.067.027.126.07.172.125a.125.125 0 0 1 0 .172.195.195 0 0 1-.093 0 .594.594 0 0 1-.211-.047c-.188-.054-.352-.125-.547-.18a.992.992 0 0 0-.22 0 4.125 4.125 0 0 0-1.562.266h-.054a.203.203 0 0 0-.157-.203H46.773s-.086-.101-.039-.07c.047.031.133 0 .133 0a.156.156 0 0 1-.11-.063c.051.019.107.019.157 0-.036 0-.06-.015-.07-.047.108-.02.2-.093.242-.195a.32.32 0 0 0-.32 0 .969.969 0 0 0-.649-.14s0-.157-.297-.133c0 0 0 .226.149.258h-.094a.11.11 0 0 0 .07.078s-.101.039-.125 0c-.023-.04 0 .062.117.062.118 0-.078.063-.117.047a.25.25 0 0 0 .125.063l.086.109a.297.297 0 0 0-.21.351c-.094-.054-.321-.164-.368-.25a.68.68 0 0 1-.055-.132c0-.055-.046-.118-.101-.125a.148.148 0 0 0-.125-.055.102.102 0 0 1 .039.047.187.187 0 0 0-.148-.102s.046 0 .062.055a.172.172 0 0 0-.133 0s.063 0 .086.039m1.39-.227a.633.633 0 0 1 .188 0c-.101.079-.21.086-.218.063-.008-.023 0-.07 0-.07m0 .234a.078.078 0 0 0-.133 0c-.047.063.093.055.093.055a.477.477 0 0 1-.148.28.117.117 0 0 1-.063.04.086.086 0 0 1 0-.04.54.54 0 0 1 0-.35s.07.07.094 0c.024-.07-.078-.087-.078-.087.048-.02.101-.02.149 0 .056.01.1.054.109.11m-.156-.281c.054 0 0 .062 0 .078 0 .015-.117 0-.188-.117.064.006.127.02.188.039m1.562-.633a.227.227 0 0 0 0 .11.469.469 0 0 1 .07-.118h.055a.719.719 0 0 0 .25-.234.453.453 0 0 0-.375-.165.469.469 0 0 1-.094.258l-.109.102a.148.148 0 0 1-.117 0h-.243s-.054.047-.07.086c-.054 0-.07.062-.054.117.015.055 0 0 0 0h.249a.344.344 0 0 0 .227-.125l.094-.086m3.406-2.078c.04 0 .078-.055.125 0s-.086.117-.047.172c.04.055 0 .187 0 .242-.054-.133 0-.195.102-.18.05.005.099.005.148 0 .175.2.337.412.485.633h.07a.664.664 0 0 1 .133-.437c-.047.047-.211-.063-.328-.164-.117-.102-.07-.133-.11-.196l-.062-.093h-.078c-.078 0 0-.055-.047-.079-.047-.023-.156-.14-.211-.078-.055.063-.125.04-.172.117-.047.079.086-.046.11 0a.172.172 0 0 0-.149.102m4.094-.852v-.039l-.305-.453-.047.04a1.914 1.914 0 0 1-.328.171 4.21 4.21 0 0 1-1.328.274 4.094 4.094 0 0 1-.445 0h-.047a9.672 9.672 0 0 1-1.563-.164h-.07v4.539h3.477v-.086a4.96 4.96 0 0 1-.258-1.485c-.025-.53.049-1.06.218-1.562.032-.09.068-.18.11-.266.127-.303.301-.585.515-.836.04-.054.086-.101.125-.148m-4.039 0c.38.068.764.115 1.149.14 0 .055.086.211.351.211a.258.258 0 0 0 0 .125l-.07.047c-.094 0-.21 0-.234.063a.125.125 0 0 1-.094 0 .273.273 0 0 0-.156 0c-.086 0-.125 0-.086.101.039.102 0 .094 0 .125a.102.102 0 0 0 .039.086.102.102 0 0 1 0-.07h.054a.094.094 0 0 0 0 .07.07.07 0 0 1 0-.062.945.945 0 0 1 .149 0v.11a.273.273 0 0 1-.117.054l-.078-.078v.086c-.22-.078-.11.14 0 .25v-.063h.054c-.047-.117.149-.055.18-.047s.156-.078.219-.164c0 .086-.047.18-.188.203-.14.024-.328.235-.336.532a.297.297 0 0 1 .196-.102c-.078.04-.125.117-.243.18-.117.062-.39-.04-.492.054-.101.094-.133.047-.226.04a.086.086 0 0 0-.047 0 .32.32 0 0 0-.172-.29v-1.609l.148.008zm3.297.914c0 .094-.07.18-.101.273a4.313 4.313 0 0 0-.25 1.64c.012.489.09.972.234 1.438h-1.031a.516.516 0 0 0-.344-.171c0-.204-.148-.196-.148-.196-.196 0-.188.196-.188.196a.328.328 0 0 0-.336.171h-1.164v-1.562a.531.531 0 0 0 .172-.352h.117a.102.102 0 0 1 0-.047.047.047 0 0 0 .055 0 .14.14 0 0 0 .062.07v-.148c0-.047 0-.047.086-.054.086-.008.102 0 .133 0 .031 0 .445.062.531 0 .086-.063.149-.149.22-.22a1.04 1.04 0 0 1-.18.29.383.383 0 0 0 .218.266.375.375 0 0 0-.25.164.234.234 0 0 0 0 .203c.047.07.07.148 0 .195-.07.047-.11 0-.117-.047-.063.157.07.18.148.133.079-.047.04.047 0 .078a.616.616 0 0 1-.336.078c0-.047-.18-.242-.203-.078a.133.133 0 0 0-.148.063h.117c.024 0-.07.047-.047.117.024.07 0 .086 0 .14 0-.078.078-.109.125-.101.047.008 0 .133 0 .125 0-.008.063.094.133.102-.102-.086 0-.133.047-.196.047-.062.086.04.172 0a.21.21 0 0 1 .164 0c.078.102.148.102.172 0a.555.555 0 0 0 0-.156.195.195 0 0 1 .062-.18c.07-.039.094.04.102.11.054-.07.047-.125 0-.22a.086.086 0 0 1 .078-.116c.086 0 .102.062.047.172.094 0 .18-.04.18-.141v-.352h.054c-.07.297-.086.703.266.782.101.007.203.007.304 0 .063 0 .102.054.07.07a.18.18 0 0 0-.093.203c.047 0 .094-.047.125 0a.133.133 0 0 1 0 .172c-.094.055-.305-.086-.281.117a.156.156 0 0 0 0 .164c0-.078.031-.11.094-.094a.04.04 0 0 0 0 .07.11.11 0 0 0 0 .11.11.11 0 0 1 .125-.11v.079c0 .023 0 .055.054.07a.117.117 0 0 1 .047-.125c.133-.039.117-.094.102-.156-.016-.063 0-.211.14-.18.14.032 0-.078-.054-.133-.055-.054.062 0 .078 0 .015 0 0-.078 0-.156a.336.336 0 0 0-.07-.234.055.055 0 0 0-.094 0s-.055.055-.086 0c-.032-.055-.125-.102-.196-.172-.07-.07 0-.25.055-.367a.297.297 0 0 0 .047-.18c.172-.047.336-.187.188-.625a3.04 3.04 0 0 1-.204-1.258.36.36 0 0 1 .094-.187h.078c.055 0 .125 0 .14.039a.57.57 0 0 0 .056.11c.04.061.096.11.164.14a.375.375 0 0 1 0-.14c0 .093.117.148.172.171a.398.398 0 0 0-.336-.414.602.602 0 0 0-.399 0 .29.29 0 0 0-.172.203.82.82 0 0 0 0 .328c.057.37.151.735.282 1.086 0 0 .132.328-.079.422-.062-.086-.218-.11-.406-.172-.453-.156-.117-.523-.094-.61.028.05.072.09.125.11a.492.492 0 0 1 0-.21.187.187 0 0 0 .141 0 .242.242 0 0 1-.04-.22c0-.078-.062-.14-.124-.203a.203.203 0 0 1 .187.055.273.273 0 0 0-.156-.266c.063 0 .11 0 .125-.093a.14.14 0 0 1-.195-.086c-.086-.157-.297-.172-.305-.078a.055.055 0 0 0 0-.07s.078-.063.094-.18a.703.703 0 0 0 .187-.047.32.32 0 0 0 .18-.172h.055c.43-.03.852-.13 1.25-.297a.273.273 0 0 0 .039.188.281.281 0 0 0 .18.148c-.18.226-.331.473-.454.734m-1.507-13.843a.195.195 0 1 0-.391 0 .195.195 0 0 0 .39 0m.258 2.75a.203.203 0 0 0 .399 0 .203.203 0 0 0-.195-.204.21.21 0 0 0-.204.204m-.78-2.813a.195.195 0 1 0-.391 0 .195.195 0 0 0 .39 0m7.836 7.852a2.5 2.5 0 0 0 .149-.368c.093-.335-.446-.726-.446-.726s-.054 0 0 0c.055 0 .094.125 0 .508-.093.383.352.578.352.578m-13.758-5.516a.195.195 0 1 0-.39 0 .195.195 0 0 0 .39 0m5.383-1.773a.734.734 0 0 0-.14.094.93.93 0 0 0-.321.703h1.656c.004.057.004.114 0 .171a1.984 1.984 0 0 1-.64 1.157.102.102 0 0 0 0 .148.102.102 0 0 0 .085 0c.02.008.043.008.063 0 .367-.342.607-.8.68-1.297a1.008 1.008 0 0 0-.211-.78.781.781 0 0 0-.282-.235.93.93 0 0 0-.859 0m1.133 2.468a.195.195 0 1 0 0 .391.195.195 0 0 0 0-.39m-3.211-.422a.195.195 0 1 0 .39-.016.195.195 0 0 0-.39.016m.867-.782h-1.39a.781.781 0 0 1 .343.477h.657a.781.781 0 0 1 .343-.477m-1.562 0a.672.672 0 0 0-.188 0v1.367a.727.727 0 0 0 .188 0 .672.672 0 0 0 .453-.5v-.124a.594.594 0 0 0 0-.165.625.625 0 0 0-.438-.453m-1.75.977h.07a.102.102 0 0 0 .087 0 .11.11 0 0 0 0-.149 2.031 2.031 0 0 1-.602-1.156.633.633 0 0 1 0-.172h1.664a.922.922 0 0 0-.922-.922h-.203a.992.992 0 0 0-.547.336.984.984 0 0 0-.203.782c.068.499.306.959.672 1.304m.578-2.86a.203.203 0 0 0-.203-.194.195.195 0 0 0-.195.195c0 .11.086.199.195.203.112 0 .203-.09.203-.203m-1.062 3.367a.195.195 0 1 0-.203-.195c.004.109.093.195.203.195m1.562-3.375a.203.203 0 0 0-.203-.195.195.195 0 0 0-.195.195c0 .11.086.199.195.203.112 0 .203-.09.203-.203m.852-1.055v.899a.977.977 0 0 1 .554-.375.844.844 0 0 1-.336.523h.883a.875.875 0 0 1-.336-.523c.225.058.423.19.563.375v-.899c0 .165-.313.313-.563.36.049-.24.165-.46.336-.633h-.867a.914.914 0 0 1 .336.633c-.25-.047-.531-.195-.555-.36m-.258 2.774h.563l-.555-1.297h-.586l.578 1.297zm2.305-3.313c-.703-.28-.781-.656-.781-.656a.844.844 0 0 0-.266 0c.227.343.547.614.922.781.203.086.125.547.063.782a.547.547 0 0 1-.22.304s-.155.086-.148.18a.36.36 0 0 1 .157 0 .312.312 0 0 1 .234.102.344.344 0 0 1 .203-.188l-.11-.195c.068.006.136.006.204 0 0-.086-.125-.219-.125-.219a.687.687 0 0 0 .258 0 .297.297 0 0 0-.149-.203c.08.039.172.039.25 0-.047-.14-.125-.164-.125-.164l.078-.156c.118-.141-.367-.329-.445-.36m-2.344 1.695a.195.195 0 1 0-.18.188.195.195 0 0 0 .196-.195m1.703 26.367c-.164.148-.054.539-.054.539a.406.406 0 0 0-.282-.086.219.219 0 0 0-.203.164.445.445 0 0 0 0 .219.367.367 0 0 1 .43.476.406.406 0 0 1-.367.22.586.586 0 0 1-.32-.142.555.555 0 0 1-.321.141.406.406 0 0 1-.367-.219.367.367 0 0 1 .43-.477.594.594 0 0 0 0-.218.242.242 0 0 0-.204-.164.406.406 0 0 0-.28.086s.108-.39-.056-.547a.406.406 0 0 0-.359-.094c.113.2.162.429.14.657-.028.26-.028.521 0 .78.01.093.029.185.055.274.077.25.21.477.391.664.165.175.361.319.578.422.217-.103.413-.247.578-.422.244-.258.402-.586.453-.937.026-.26.026-.522 0-.781a1.14 1.14 0 0 1 .141-.664.39.39 0 0 0-.36.101m-4.007-.781h-.133a.188.188 0 0 0 .086.187c.102.055.266-.054.36-.242.093-.187.085-.383 0-.437-.087-.055-.133 0-.212.054h.063a.242.242 0 0 1 0 .25.492.492 0 0 1-.149.172m-.336-6.484a.68.68 0 0 0-.718-.274.578.578 0 0 0-.367.336c-.079.157-.063.344-.149.5a2.266 2.266 0 0 1-.195.282c.047 0 .086.085.14.093.258 0 .391-.32.649-.28.258.038.203-.227.203-.368-.102 0-.25 0-.313-.11a.164.164 0 0 1 .235-.125c.21.079.266.336.266.54a.39.39 0 0 1-.383.421c-.17 0-.338.038-.492.11a.172.172 0 0 0-.11.164c0 .195.219.273.281.445.063.172.094.516.172.781.238.951.918 1.73 1.828 2.094.094.04.227.055.258.172-.01.15-.029.298-.054.445.187.043.382.043.57 0a.867.867 0 0 0 .656-.273c.164-.195.117-.461.14-.703l.212-2.79c0-.163.203-.312.078-.468-.125-.156-.07-.305-.117-.453A.922.922 0 0 0 48.39 30c-.391 0-.703.313-1.078.406a1.633 1.633 0 0 1-.547-.054 1.977 1.977 0 0 0 0 .218c.07.102.187.172.234.29.398.953.781 1.89 1.21 2.835.031.06.055.123.071.188a.375.375 0 0 1-.36.25.969.969 0 0 1-.515-.227 1.914 1.914 0 0 1-.781-.883 3.758 3.758 0 0 1 0-2.117 1.023 1.023 0 0 0-.086-.781m-.39 2.531a3.844 3.844 0 0 1-.165-.508c-.062-.234-.14-.46-.203-.695l.32-.039c.063.411.079.828.047 1.242m2.79-2.101c.094.173.147.365.156.562-.133.164 0 .399 0 .399v.57l-.782-1.797c.344-.156.586.242.602.266m-.703-.235.867 2.024v.148l-.914-2.11h.086m-.188.079.907 2.18-.047.125-1-2.344h.086m-.188.078 1.04 2.422a.46.46 0 0 1-.047.11l-1.079-2.5h.086m-.195.07 1.14 2.523-.054.102-1.14-2.664h.077m-.187.07 1.18 2.742a.781.781 0 0 1-.063.086l-1.172-2.797h.086m-.281.094h.086l1.234 2.867a.594.594 0 0 1-.062.086l-1.258-2.953zm10.773-14.602.649.86s.062.101.062.086a.328.328 0 0 1 0-.172.25.25 0 0 1 0-.102.21.21 0 0 0-.086-.289c-.062-.039-.53-.406-.57-.43-.039-.023 0 0-.039 0m-4.742.782a3.125 3.125 0 0 1-.422 2.343l.297-.359-.188.484c.047 0 .04-.047.086-.101l.125-.18c.047-.062.086-.133.125-.195l-.086.21-.093.212-.047.078.125-.078c.14-.107.26-.24.351-.39-.069.17-.17.327-.297.46-.065.058-.136.11-.21.156a.96.96 0 0 0 .288-.093 1.18 1.18 0 0 0 .493-.407 1.281 1.281 0 0 1-.64.578l.25-.047c.12-.038.238-.087.35-.148.113-.07.211-.16.29-.266-.07.115-.16.216-.266.297-.108.08-.226.146-.352.196a1.648 1.648 0 0 1-.382.109h-.18a.39.39 0 0 0-.14 0h-.188l.273.203.196.094.164.047h-.172a.93.93 0 0 1-.203-.086 1.687 1.687 0 0 1-.282-.172.336.336 0 0 1 0 .055c.06.05.122.098.188.14l.195.125c.073.033.149.06.227.078a.781.781 0 0 1-.227-.062 1.906 1.906 0 0 1-.218-.11l-.196-.125.164.125c.123.1.26.182.407.243a1.773 1.773 0 0 1-.422-.211l-.188-.125.149.125c.056.046.116.088.18.125.077.05.158.094.241.133a1.46 1.46 0 0 1-.25-.118c-.07 0-.265-.195-.328-.234.135.16.293.3.47.414.138.094.281.18.429.258.252.095.514.16.781.195.147.146.312.272.492.375a.516.516 0 0 0 .438 0 .258.258 0 0 0-.063-.172 1.258 1.258 0 0 0-.156-.14.984.984 0 0 0 .5 0 .734.734 0 0 0 .352-.305.633.633 0 0 0-.274-.172.781.781 0 0 0-.328 0s.11-.039.273-.117c.232-.13.403-.346.477-.602a1.07 1.07 0 0 1 .266-.523l.086-.055-.07.055a1.07 1.07 0 0 0-.134.133.828.828 0 0 0-.172.328.5.5 0 0 1 .04-.188.734.734 0 0 1 .078-.18.86.86 0 0 1 .11-.163l.046-.055h-.055l-.101.094a.61.61 0 0 0-.14.25.64.64 0 0 1 .163-.414.14.14 0 0 0 .04-.055l-.048.039-.086.094a.82.82 0 0 0-.117.234.898.898 0 0 1 .078-.258.93.93 0 0 1 .07-.117l.047-.055-.046.04-.094.101a.68.68 0 0 0-.14.242.727.727 0 0 1 .1-.273.648.648 0 0 1 .063-.094.078.078 0 0 0-.039 0l-.078.07a.398.398 0 0 0-.101.188.39.39 0 0 1 .062-.211l-.07.078a.531.531 0 0 0-.094.188.563.563 0 0 1 .07-.211.586.586 0 0 1 .055-.094l.078-.086a.46.46 0 0 1 .297.227.594.594 0 0 1 .336.421v.258a.703.703 0 0 0 .25.43c.042.04.098.062.156.062a.61.61 0 0 1 0-.257.89.89 0 0 0 .078-.493 1.133 1.133 0 0 0-.46-.578.828.828 0 0 0-.782 0c-.205.125-.367.31-.46.532a1.29 1.29 0 0 1-.345.421.664.664 0 0 1-.218.125.508.508 0 0 0 .164-.304.336.336 0 0 0-.055-.25.484.484 0 0 0-.258.07c-.117.086-.21.242-.351.375-.165.14-.365.231-.578.266a1.273 1.273 0 0 1-.297 0h-.04l-.156-.055c-.093-.047-.156-.18-.101-.18h.148a2.25 2.25 0 0 0 .477-.133h.148a2.46 2.46 0 0 0 1.367-1.437 1.453 1.453 0 0 0 0-1.234.414.414 0 0 0-.257.109c-.096.088-.18.188-.25.297v-.344a6.25 6.25 0 0 1-.078-.945.625.625 0 0 1 .171-.375l-.07-.047a.672.672 0 0 0-.156.258c-.04.113-.062.231-.063.351a3 3 0 0 0 0 .375 3.125 3.125 0 0 1 0 .008 3.016 3.016 0 0 1-.047-.383c-.019-.13-.019-.26 0-.39a.914.914 0 0 1 .07-.188l.055-.094a.89.89 0 0 0-.18.235c-.039.096-.07.195-.093.297-.04.214-.04.434 0 .648a1.86 1.86 0 0 1-.102-.656 1.023 1.023 0 0 1 .055-.344.89.89 0 0 1 .102-.234.82.82 0 0 0-.157.21c-.049.092-.085.189-.109.29-.04.211-.04.429 0 .64a1.852 1.852 0 0 1-.078-.656c.006-.114.027-.227.062-.336l.047-.117a.969.969 0 0 0-.148.203 1.297 1.297 0 0 0-.11.29c-.039.21-.039.428 0 .64a1.828 1.828 0 0 1-.078-.657c.01-.113.03-.226.063-.335a.328.328 0 0 0 0-.079c-.056.067-.103.14-.14.22-.046.094-.08.193-.102.296-.04.212-.04.429 0 .64a1.64 1.64 0 0 1-.063-.648c.008-.113.034-.224.078-.328a.867.867 0 0 1 .172-.297.68.68 0 0 1 .524-.195.86.86 0 0 1 .398.094c.084.038.16.09.227.156.226.226.343.562.78.781.293.21.667.268 1.009.156a.898.898 0 0 0-.133-.484A1.11 1.11 0 0 0 56 15.86l.266.063c.657.32 1.45.142 1.906-.43a3.96 3.96 0 0 1-.399-.07c-.148-.047-.242-.18-.546-.336a1.75 1.75 0 0 0-.743-.274l-.226-.078c.594 0 .64-.398.64-.398a1.39 1.39 0 0 0-1.5-.195 1.414 1.414 0 0 0-.609.671.984.984 0 0 1 .219 0c.093.017.184.04.273.07l.258.11a.656.656 0 0 1 .227.156.719.719 0 0 0-.243-.125l-.257-.078h-.274a1.422 1.422 0 0 0-.258 0 1.563 1.563 0 0 0-.976.399 1.695 1.695 0 0 0-.492 1.562m-7.735 18.64c-.062-.054 0 .056 0 .056.158.222.354.415.578.57l.727.39a.375.375 0 0 0 .117-.148.164.164 0 0 0 0-.172 3.992 3.992 0 0 1-.516-.172 6.914 6.914 0 0 1-.89-.523m.601 2.078c.28.04.564.04.844 0l-.875-.375h-.32s-.188 0 0-.164c.036-.032.07-.066.101-.102.15-.172.278-.36.383-.562l-.234-.172-.203-.156a5.297 5.297 0 0 1-.375.61c-.188.233-.36.39-.219.562.223.231.53.36.852.359m1.242-.031h.047c.49.176.995.314 1.507.414v-.063a1.219 1.219 0 0 0 0-.156.89.89 0 0 0-.125-.43l-.07-.125.133-.039a.594.594 0 0 1 .125 0v-.945a12.852 12.852 0 0 1-1.914-.781l-.258-.14c-.02.092-.047.183-.078.273a.227.227 0 0 1 0 .07l-.04.094s0 .078-.038.117a.938.938 0 0 1-.07.148l.312.102a.32.32 0 0 1 .336-.117c.14.07.156.312.039.547-.117.234-.32.367-.46.296-.142-.07-.165-.14-.165-.28a2.078 2.078 0 0 1-.297-.15c-.047.087-.094.173-.14.243v.047l-.055.086-.149.18a14.758 14.758 0 0 0 1.336.578h.047m-.61-2.493a.273.273 0 0 1 0-.047c.048-.078.157 0 .157 0l.063.07c.04.046.085.088.132.126.149.078.5.265.782.39a.781.781 0 0 0-.086-.132 3.352 3.352 0 0 0-.57-.579c-.446-.375-.57-.46-.72-.257a.781.781 0 0 0-.093.195c-.07.164-.156.398-.25.625l-.117.266c.126.077.257.147.39.21l.078-.156.055-.148a3.82 3.82 0 0 0 .164-.594m-3.883-3.477.125-.046h.047c.04-.02.075-.05.102-.086a.328.328 0 0 0 .047-.11.555.555 0 0 0 0-.11.21.21 0 0 0-.055-.108.266.266 0 0 0-.102-.079.375.375 0 0 0-.14 0 .672.672 0 0 0-.172 0 .484.484 0 0 0-.148.055.54.54 0 0 0-.102.086.328.328 0 0 0-.047.11.227.227 0 0 0 0 .124c.008.045.03.086.063.118.019.019.043.032.07.039.049.008.1.008.148 0h.14m-1.562 3.765a.61.61 0 0 1 .352.14.57.57 0 0 1 .18.227c.101-.507-.477-.71-.477-.71l-.047-.18a1.055 1.055 0 0 0-.906-.453h-.164a2.5 2.5 0 0 0-.648.133h-.126c-.203 0-.187-.125-.187-.125v-.97c.019-.226.112-.44.266-.609l.398-.53c.617-.829.383-2.876.383-2.876l-2.266 1.524c.062.087.115.182.157.28v.048c.265.656-.235 1.039-.297 1.25a.586.586 0 0 0 0 .422.375.375 0 0 1 .156-.157c-.05.284-.082.572-.094.86 0 .367-.078.468-.11.492l.4-.273c.124.42.174.859.148 1.296 0 .368.148.453.32.453.117-.012.232-.035.344-.07h.289c.109-.014.22.017.304.086a.867.867 0 0 0 .266.195.555.555 0 0 0 .156 0 .258.258 0 0 0 .172-.062c.142-.106.309-.173.485-.195a.578.578 0 0 1 .359.382s0-.398.055-.476c.054-.078.101-.07.14-.07m.782 2.101a.148.148 0 0 0-.11.063.188.188 0 0 0 0 .172c.57 1.015 2.14 1.101 2.211 1.109h.117l-.07-2.195-.164.218c-.469.617-1.984.625-2 .625m8.484-25.812c0-.246-.2-.445-.445-.445a.453.453 0 0 0-.445.445c0 .246.199.445.445.445a.438.438 0 0 0 .445-.445m-5.14 25 .078-.11c.093-.148.234-.382.297-.5a2.21 2.21 0 0 1-.336-.382s-.125-.22-.086-.266c.039-.047.14.063.21.117l.368.235a1.64 1.64 0 0 0 .117-.258l.14-.344.071-.172a5.261 5.261 0 0 1-.39-.312 3.906 3.906 0 0 1-.422-.383 7.258 7.258 0 0 1-1.196-1.563.219.219 0 0 0 0-.07v-.531c.07-.828.133-1.649.188-2.422a.594.594 0 0 1-.149.094.266.266 0 0 1-.172 0c-.039.507-.078 1.023-.109 1.5 0 .234-.04.46-.055.68-.062-.157-.117-.321-.172-.485a6.492 6.492 0 0 1-.273-1.86.414.414 0 0 1-.43-.312v-.102.18h-.976a.117.117 0 0 0 0-.055.148.148 0 0 0 0-.062v-.11h.922v-.085a.594.594 0 0 1 0-.461.367.367 0 0 1-.305-.188l-.055.047a.492.492 0 0 1-.289.086.672.672 0 0 1-.312-.086.203.203 0 0 1-.102.047h-.047c-.06.01-.12.01-.18 0a8.267 8.267 0 0 0 .165 3.04 8.422 8.422 0 0 0 3.562 5.116m-3.258-6.101v-.063a.195.195 0 0 0 0-.062c.102-.11.203-.211.297-.32l.133-.141.172-.18H42.094v-.023a.18.18 0 0 0 0-.055h.976V29.813l-.437.46-.18.188h.609v.07a.148.148 0 0 1 0 .063h-.937m.234 1.07-.015-.102-.047-.132a.61.61 0 0 1 0-.203.437.437 0 0 1 .047-.18.547.547 0 0 1 .125-.149.5.5 0 0 1 .195-.085.383.383 0 0 1 .188 0 .367.367 0 0 1 .171.07.453.453 0 0 1 .141.133c.041.059.07.125.086.195.008.07.008.14 0 .21a.46.46 0 0 1-.04.15.43.43 0 0 1-.124.14.406.406 0 0 1-.203.094.547.547 0 0 1-.367-.063.836.836 0 0 1-.149-.14m1.328 1.054-.125.047-.187.078h-.25l-.11.055-.156.07v-.164h.04l.124-.047h.07l.118-.047a.18.18 0 0 1 0-.078l-.047-.117-.156-.11a.781.781 0 0 0 0-.077l-.188.078-.156.078V32.218l.164-.062.187-.078h.172l.188-.086.156-.07a.11.11 0 0 0 0 .047v.109a.258.258 0 0 0 0 .047l-.164.063-.188.078h-.07v.093c.011.035.024.069.04.102v.094l.046.093h.07l.188-.078.156-.078a.11.11 0 0 0 0 .047v.055a.11.11 0 0 1 0 .047v.047h-.039M57.86 17.413c-.08.025-.16.046-.242.063-.094 0-.18 0-.383-.04a1.086 1.086 0 0 0-.453.063h-.148a.5.5 0 0 0 .336-.422 1.063 1.063 0 0 0-.961.32.938.938 0 0 0-.156.524l.125-.04h.335-.156l-.164.048-.133.062a.602.602 0 0 0-.39.672.414.414 0 0 1 .234-.242.523.523 0 0 1 .242-.055.508.508 0 0 1 .157 0c.196.113.41.192.632.235a.664.664 0 0 0 .594-.172.562.562 0 0 0-.195-.227.648.648 0 0 0-.367-.078h.164a.96.96 0 0 0 .93-.727m-7.29 12.93h.086c.024 0 0 0 0 0 .075.025.131.087.149.164 0 .07.062.14.148.156.092.14.215.254.36.336h-.086a.883.883 0 0 0 .21.102h-.124a.617.617 0 0 0 .28.125.523.523 0 0 1-.273.047c-.093 0-.148-.078-.242-.086-.094-.008-.055 0-.07 0a.133.133 0 0 0-.156.078h.109H50.859a.078.078 0 0 0-.039.094.281.281 0 0 1 .07-.04h.063v.055a.172.172 0 0 0-.062.157l.07-.063a.18.18 0 0 1 .195.11l.086.054a.258.258 0 0 0 .117 0 .234.234 0 0 0 .118-.047.203.203 0 0 0 .14 0h.04a1 1 0 0 0 .179-.047h.07a.906.906 0 0 1 .219.04.14.14 0 0 1-.055-.079c.047.03.101.046.157.047 0 0-.07-.047-.079-.093a.14.14 0 0 0 .079 0 .25.25 0 0 0 .14 0c-.094 0-.18-.047-.148-.141a9.703 9.703 0 0 1 1.195-.258c.158-.03.32.034.414.164.194.1.407.159.625.172 0 0 0 .086-.078.102h-.094s-.062.039-.062.07a.125.125 0 0 1 .093 0c-.039 0-.085.055-.07.094.03-.01.063-.01.094 0h.055c.054 0-.086.062-.07.101.015.04.054 0 .07 0h.187a.18.18 0 0 0 .102-.047.07.07 0 0 1 0-.039.664.664 0 0 1 .086-.203c0-.055.18-.273.132-.328h-.109a.656.656 0 0 1-.36-.094 1.563 1.563 0 0 1-.234-.273l.407.133a.89.89 0 0 0 .226.047.29.29 0 0 0 .234-.055.25.25 0 0 0 0-.367.266.266 0 0 0-.07-.063 1.14 1.14 0 0 0-.554-.133 3.039 3.039 0 0 0-.383 0l-.375.055a2.188 2.188 0 0 1-.399 0h-.195c-.063 0-.14-.047-.148-.11a.164.164 0 0 1 .101-.148.781.781 0 0 1 .203-.047c.16-.009.321.007.477.047l.195.063a.86.86 0 0 0 .203.047c.08.015.162.015.242 0 .076-.009.152-.009.227 0 .12.006.238.03.352.07a.922.922 0 0 0-.602-.14c.109-.013.22-.013.328 0a1.242 1.242 0 0 0-.453 0 2.07 2.07 0 0 1 .234-.048 1.367 1.367 0 0 0-.398 0 .781.781 0 0 1 .21-.054.469.469 0 0 0-.273 0h-.132a.453.453 0 0 1-.149 0h-.11a.977.977 0 0 0-.687.093.203.203 0 0 0 0 .305c.143.08.307.112.469.094l.484-.04c.15-.03.301-.054.453-.07.18-.007.361.02.532.079a.562.562 0 0 1 .172.132.125.125 0 0 1 0 .172.195.195 0 0 1-.102 0 .852.852 0 0 1-.203 0c-.188-.054-.36-.133-.547-.18a.672.672 0 0 0-.219 0 3.906 3.906 0 0 0-1.562.266h-.055a.195.195 0 0 0-.156-.203h.117c.03.012.064.012.094 0-.047 0-.086-.101-.04-.07.048.031.126 0 .126 0a.242.242 0 0 1-.11-.063c.05.019.106.019.157 0a.156.156 0 0 1-.07-.047.344.344 0 0 0 .25-.195.32.32 0 0 0-.321 0 .977.977 0 0 0-.656-.14s0-.157-.29-.133c0 0 0 .226.15.258h-.095a.11.11 0 0 0 .07.085s-.1.04-.124 0c-.024-.039 0 .063.117.063s-.078.062-.117.047c.037.029.08.05.125.062l.086.11a.29.29 0 0 0-.211.343 1.305 1.305 0 0 1-.367-.242s0-.093-.047-.14c-.047-.047-.047-.11-.102-.118a.125.125 0 0 0-.125-.054.102.102 0 0 1 .04.047.203.203 0 0 0-.134 0l.063.047a.133.133 0 0 0-.125 0m1.469-.196a.945.945 0 0 1 .195 0c-.102.078-.211.086-.219.063-.008-.024 0-.07 0-.078m0 .234a.094.094 0 0 0-.14 0c-.04.07.101.055.101.055a.492.492 0 0 1-.148.289h-.063a.492.492 0 0 1 0-.352.055.055 0 0 0 .102 0c0-.062-.086-.086-.086-.086a.148.148 0 0 1 .148 0c.055.006.1.047.11.102m-.157-.274c.055 0 0 .063 0 .078 0 .016-.125 0-.187-.125a.695.695 0 0 1 .187.047m1.563 1.367a.219.219 0 0 0 0 .102.469.469 0 0 1 .07-.117h.055a.82.82 0 0 0 .25-.242.46.46 0 0 0-.375-.157.43.43 0 0 1-.102.25.414.414 0 0 1-.101.102.156.156 0 0 1-.125 0h-.04a.102.102 0 0 0-.085 0h-.11c-.023 0 0 0 0 0h.04-.04c-.039 0-.07-.133-.07-.063h.04c-.048 0-.063.063-.048.118.016.054 0 0 0 0h.226a.313.313 0 0 0 .227-.125.25.25 0 0 1 .094-.086m.242 6.601c-.109.014-.219.014-.328 0l-.125-.054-.664-.313-1.227-.672v.164h.118l-.07.133a.953.953 0 0 0-.126.578c.008.117.008.235 0 .352.004.073.004.146 0 .219v.203a.883.883 0 0 0 .32.14 1.21 1.21 0 0 0 .274-.062c.383-.125 1.305-.461 1.828-.672a1.71 1.71 0 0 0 .477-.203.836.836 0 0 1-.414.117m3.164-11.719h-.11l.102.227.086-.07v-.047c.047-.04.086-.086.125-.125h-.242m-5.399 9.593a5.523 5.523 0 0 0 1.07-.343h-.171a1.094 1.094 0 0 0-.899.351m6.157-5.945a.148.148 0 0 0 .062.055.328.328 0 0 0 .102 0h.148a.102.102 0 0 0 0-.047V29.828h-.352a.266.266 0 0 0 0 .07.102.102 0 0 0 0 .063m-12.609-6.156s.063 0 .086.039c.043.012.08.04.102.078a.21.21 0 0 1 .047.078c0 .07.062.148.148.164.092.139.215.254.36.336h-.087c.068.04.138.074.211.102h-.164l.11.062c.052.033.11.055.172.063a.453.453 0 0 1-.274.039 1.93 1.93 0 0 0-.227-.078h-.07a.133.133 0 0 0-.156.078h.11-.071a.094.094 0 0 0-.04.101.203.203 0 0 1 .071 0h.063v.047a.187.187 0 0 0-.063.164l.07-.062.063-.047a.18.18 0 0 1 .14 0l.087.047h.086a.234.234 0 0 0 .117-.047.203.203 0 0 0 .14 0h.04a1 1 0 0 0 .18-.047h.07a.906.906 0 0 1 .218.039.14.14 0 0 1-.054-.078c.046.03.1.046.156.047 0 0-.07-.047-.078-.094a.14.14 0 0 0 .078 0 .54.54 0 0 0 .14 0c-.093 0-.18-.047-.148-.148a11.39 11.39 0 0 1 1.195-.258c.158-.03.32.033.414.164.19.102.402.16.617.172 0 0 0 .086-.078.101h-.094s-.062.04-.062.07a.172.172 0 0 1 .094 0s-.086.055-.07.094a.188.188 0 0 1 .093 0h.055s-.086.07-.07.11H48.969a.148.148 0 0 0 .093-.055.781.781 0 0 1 .086-.211c0-.055.18-.266.133-.32-.047-.055 0 0-.047 0h-.062a.68.68 0 0 1-.36-.094 1.563 1.563 0 0 1-.234-.273l.406.132c.072.021.145.037.22.047a.297.297 0 0 0 .241-.055.25.25 0 0 0 0-.367.266.266 0 0 0-.07-.062 1.234 1.234 0 0 0-.555-.14 2.883 2.883 0 0 0-.383.038l-.374.055a2.492 2.492 0 0 1-.352 0h-.047c-.065.004-.13.004-.195 0-.063 0-.14 0-.149-.102a.164.164 0 0 1 .102-.148.563.563 0 0 1 .21-.047h.165c.103.006.205.022.305.047l.195.062c.063.024.128.04.195.047a.781.781 0 0 0 .235 0c.075-.008.15-.008.226 0 .12.007.238.03.352.07a.922.922 0 0 0-.602-.14c.11-.013.22-.013.328 0h-.203a1.32 1.32 0 0 0-.25 0 2.07 2.07 0 0 1 .234-.047 1.406 1.406 0 0 0-.406 0 .898.898 0 0 1 .219-.055.648.648 0 0 0-.273 0l-.133.04a.312.312 0 0 1-.149 0h-.11a.945.945 0 0 0-.679.093.21.21 0 0 0-.078.227.36.36 0 0 0 .055.078c.07.048.15.078.234.086h.235c.162-.007.323-.023.484-.047.15-.029.301-.05.453-.063.18-.007.36.02.531.079a.562.562 0 0 1 .172.132.125.125 0 0 1 0 .172.195.195 0 0 1-.101 0 .852.852 0 0 1-.203-.039c-.188-.054-.352-.133-.547-.18a.984.984 0 0 0-.22 0 4.258 4.258 0 0 0-1.241.165l-.328.101h-.055a.203.203 0 0 0-.047-.133.188.188 0 0 0-.11-.062h.07a.062.062 0 0 1 .048 0c.03.011.063.011.094 0-.047 0-.086-.11-.04-.07.047.039.126 0 .126 0a.242.242 0 0 1-.11-.063c.05.019.106.019.156 0a.14.14 0 0 1-.062-.047.344.344 0 0 0 .242-.195.32.32 0 0 0-.32 0 .969.969 0 0 0-.649-.14.18.18 0 0 0-.086-.102.273.273 0 0 0-.21 0 .36.36 0 0 0 0 .156c.02.054.067.093.124.102h-.093a.094.094 0 0 0 .07.078s-.102.047-.125 0c-.023-.047 0 .07.117.07s-.078.062-.117.039a.32.32 0 0 0 .125.07l.086.11a.29.29 0 0 0-.211.343 1.305 1.305 0 0 1-.367-.242l-.047-.14a.32.32 0 0 0 0-.07s0-.048-.063-.048a.125.125 0 0 0-.125-.054s.04 0 .04.047a.164.164 0 0 0-.126 0v-.266a.133.133 0 0 0-.124 0m1.476-.195a.914.914 0 0 1 .188 0c-.102.078-.211.078-.22.054-.007-.023 0-.062 0-.07m0 .234s-.085-.046-.132 0c-.047.047.094.055.094.055a.492.492 0 0 1-.149.29l-.062.038v-.039a.54.54 0 0 1 0-.351s.07.062.094 0c.023-.063-.079-.086-.079-.086a.172.172 0 0 1 .149 0c.056.009.1.053.11.11m-.157-.274c.055 0 0 .054 0 .078 0 .023-.117 0-.188-.125a.695.695 0 0 1 .188.047m7.18 9.859a.195.195 0 0 0 0 .102.328.328 0 0 1 .07-.11v-.039h.055a.82.82 0 0 0 .25-.242.438.438 0 0 0-.375-.156.43.43 0 0 1-.102.25.414.414 0 0 1-.101.101.133.133 0 0 1-.125 0h-.235.04-.04c-.039 0-.062.047-.07.094-.008.047 0 0 .039 0-.047 0-.063.063-.047.117.016.055 0 0 0 0h.226a.344.344 0 0 0 .227-.125.25.25 0 0 1 .094-.086m-2.68-.937a.242.242 0 0 1 .149.164c0 .07.062.14.148.164.094.134.217.246.36.328h-.086a.883.883 0 0 0 .21.102h-.124a.617.617 0 0 0 .28.125.523.523 0 0 1-.273.046c-.093 0-.148-.078-.242-.086h-.07a.133.133 0 0 0-.156.079h.109H50.859a.078.078 0 0 0-.039.093.281.281 0 0 1 .07 0h.063a.078.078 0 0 0 0 .055.172.172 0 0 0-.062.156l.07-.062a.18.18 0 0 1 .203-.047l.086.055a.258.258 0 0 0 .117 0 .234.234 0 0 0 .117-.047c.05.005.1-.01.141-.04h.04a1 1 0 0 0 .179-.046h.07a.906.906 0 0 1 .219 0 .14.14 0 0 1-.055-.078c.047.03.101.045.156.047 0 0-.07-.047-.078-.094a.14.14 0 0 0 .078 0 .25.25 0 0 0 .141 0c-.094 0-.18-.047-.148-.149.393-.104.792-.188 1.195-.25a.422.422 0 0 1 .414.164c.194.1.407.16.625.172 0 .04 0 .094-.078.102H54.28s-.062 0-.062.07a.125.125 0 0 1 .093 0c-.039 0-.085.055-.07.094.03-.01.063-.01.094 0h.055c.054 0-.086.062-.07.102.015.039.054 0 .07 0h.187a.18.18 0 0 0 .102-.047.664.664 0 0 1 .086-.203c0-.055.18-.274.132-.329h-.109a.656.656 0 0 1-.36-.093 1.563 1.563 0 0 1-.234-.274l.407.133a.89.89 0 0 0 .226.047.29.29 0 0 0 .234-.055.25.25 0 0 0 0-.367.266.266 0 0 0-.07-.063 1.234 1.234 0 0 0-.554-.14h-.383l-.375.055a2.188 2.188 0 0 1-.399 0h-.195c-.063 0-.14-.047-.148-.102a.164.164 0 0 1 .101-.156.781.781 0 0 1 .203-.047c.16-.01.321.007.477.047l.195.062.203.055c.08.008.162.008.242 0 .076-.008.152-.008.227 0 .12.006.238.03.352.07a.922.922 0 0 0-.602-.14c.109-.013.22-.013.328 0a1.437 1.437 0 0 0-.453 0 2.07 2.07 0 0 1 .234-.047 1.367 1.367 0 0 0-.398 0 .781.781 0 0 1 .21-.055.54.54 0 0 0-.273 0h-.132a.453.453 0 0 1-.149 0h-.11a.977.977 0 0 0-.687.094.203.203 0 0 0 0 .304c.143.08.307.113.469.094.161.009.323.009.484 0 .15-.031.301-.055.453-.07.18-.008.361.019.532.078a.562.562 0 0 1 .172.133.125.125 0 0 1 0 .172.195.195 0 0 1-.102 0 .586.586 0 0 1-.203 0l-.547-.18a.984.984 0 0 0-.219 0 4.133 4.133 0 0 0-1.562.273h-.055a.195.195 0 0 0-.156-.203h.117c.03.012.064.012.094 0-.047 0-.086-.101-.04-.07.048.031.126 0 .126 0a.242.242 0 0 1-.11-.062c.05.018.106.018.157 0a.156.156 0 0 1-.07-.047.344.344 0 0 0 .25-.196.32.32 0 0 0-.321 0 .977.977 0 0 0-.656-.14s0-.157-.29-.133c0 0 0 .227.15.258h-.095a.11.11 0 0 0 .07.086h-.124c-.024 0 0 .062.117.062s-.078.063-.117.047c.037.03.08.05.125.063l.086.109a.29.29 0 0 0-.211.344 1.305 1.305 0 0 1-.367-.242l-.07-.344c0-.055-.048-.117-.102-.125a.125.125 0 0 0-.125-.055.102.102 0 0 1 .039.047.203.203 0 0 0-.133 0 .21.21 0 0 1 .062.055.133.133 0 0 0-.125 0s.063 0 .086.039m1.383-.235a.945.945 0 0 1 .195 0c-.101.078-.21.086-.218.063-.008-.024 0-.07 0-.078m0 .234a.102.102 0 0 0-.14 0c-.04.07.1.063.1.063a.5.5 0 0 1-.148.28h-.062a.492.492 0 0 1 0-.35s.07.07.101 0c.032-.071-.086-.087-.086-.087a.148.148 0 0 1 .149 0 .117.117 0 0 1 .11.102m-.157-.274c.055 0 0 .055 0 .079 0 .023-.125 0-.188-.125.064.01.127.026.188.046m-4.055-7.125a.219.219 0 0 0 0 .102.469.469 0 0 1 .07-.117h.055a.82.82 0 0 0 .25-.242.477.477 0 0 0-.375-.164.445.445 0 0 1-.203.359.148.148 0 0 1-.117 0h-.243s-.054.047-.07.094c-.015.047 0 0 0 0-.054 0-.07.062-.054.117.015.055 0 0 0 0h.265a.344.344 0 0 0 .227-.125.32.32 0 0 1 .094-.086m8.297 13.96c.062 0 1.632-.093 2.21-1.116a.148.148 0 0 0 0-.164.117.117 0 0 0-.109-.063s-1.562 0-2-.625L56 36.61l-.07 2.196.133-.008zm-3.602-3.452h.102a.336.336 0 0 0 .124 0 .29.29 0 0 0 .188-.11.336.336 0 0 1 .078-.07.336.336 0 0 0 0 .094.445.445 0 0 1 .063-.102.648.648 0 0 0 .203-.18.398.398 0 0 0-.313-.14.344.344 0 0 1-.086.219l-.086.086a.14.14 0 0 1-.101 0h.086a.078.078 0 0 0-.07 0h-.094s-.055 0-.063.078a.063.063 0 0 0-.047.093m5.117-6.773.094.04h.305c0-.11-.086-.22-.125-.337l-.117.078-.094.07-.07.047M59.117 17.5c.043-.086.08-.174.11-.266.062-.25-.32-.547-.32-.547s-.048 0 0 0c.046 0 .07.11 0 .391-.071.281.257.422.257.422m-4.977 19.79a.398.398 0 0 0 0-.102c-.38.202-.774.377-1.18.523l.321.125c.193.079.405.098.61.055a.469.469 0 0 0 .164-.11.617.617 0 0 0 .101-.492m2.492-13.734-1.476-1.938a2.46 2.46 0 0 1-.696.492 2.11 2.11 0 0 1-.296.133l-.235-.125-.203-.11a.695.695 0 0 0-.258-.413 1.281 1.281 0 0 0-.343-.188 3.453 3.453 0 0 1-1.641-1.117.781.781 0 0 0-.195.148c-.07.072-.133.15-.188.235-.055.07-.102.148-.156.226-.125.22-.227.43-.297.57l-.063.126-.046.093c-.03.055-.064.108-.102.157a.383.383 0 0 1-.156.125h-.297a.523.523 0 0 1-.149-.125.914.914 0 0 1-.093-.157.648.648 0 0 1-.055-.101l-.11-.18c-.07-.14-.171-.351-.296-.554a1.742 1.742 0 0 0-.157-.235 1.281 1.281 0 0 0-.195-.234.602.602 0 0 0-.242-.164 3.68 3.68 0 0 1-1.742 1.187 1.398 1.398 0 0 0-.266.14.781.781 0 0 0-.36.446l-.25.133-.234.125a2.75 2.75 0 0 1-.953-.61l-.336.454-.375.508-.039.054-.695.899c.06.016.117.045.164.086a.695.695 0 0 1 .164.218l-.14.157a8.477 8.477 0 0 0-1.126 1.64 1.18 1.18 0 0 0-.085.172c-.094.18-.18.367-.258.555l.242.117.32.148h.125a.547.547 0 0 1 .219 0 .438.438 0 0 1 .266.25.11.11 0 0 1 0 .047l.336.157c.068.036.133.077.195.125.043-.12.093-.237.148-.352a4.57 4.57 0 0 1 .22-.438V27.68c.043.073.098.14.163.195l.11.063c0-.649.062-1.204.07-1.61v-.476a.656.656 0 0 0 0-.149c0-.125-.047-.273-.07-.437-.024-.164 0-.203-.055-.305a3.125 3.125 0 0 0-.07-.39 2.93 2.93 0 0 0-.36-1.016.71.71 0 0 0-.086-.125l.367-.461.375-.508.141-.195.11-.149c.086.064.177.122.273.172.085.055.174.104.265.148.345.168.71.289 1.086.36h.172c.277.042.556.063.836.062.34.002.68-.027 1.016-.086.098.118.205.227.32.329.065.06.135.111.211.156l.102.055c.232.123.472.233.718.328v5.687h-5.07a.883.883 0 0 1-.148.149h5.28v6.773l-.71-.313h-.047a.844.844 0 0 0-.133.422v.899c.074.022.141.062.196.117.085.114.117.26.086.398h.156a.32.32 0 0 1 .242.133c.03.042.052.09.062.14a.633.633 0 0 1 0 .243v.11H49.727a.227.227 0 0 0-.243.171.258.258 0 0 0 0 .203.32.32 0 0 0 .235.11.46.46 0 0 0 .242-.11l.07-.07.078.07a.46.46 0 0 0 .243.11c.09 0 .176-.04.234-.11v-.195a.21.21 0 0 0-.234-.164h-.173v-.11a.633.633 0 0 1 0-.242.375.375 0 0 1 .063-.14.32.32 0 0 1 .242-.133.516.516 0 0 1 .157 0 .523.523 0 0 1 .117-.437.438.438 0 0 1 .304-.11v-.922a.734.734 0 0 1 0-.14.969.969 0 0 1 .391-.602l-.36.172-.984.438v-6.641h5.47c.054.781.116 1.562.187 2.398v.587a6.719 6.719 0 0 1-1.266 1.741l-.21.196a.203.203 0 0 0-.063-.164.148.148 0 0 0-.063-.055.953.953 0 0 0-.437-.11 2.125 2.125 0 0 0-.329 0l-.312.047c-.114.012-.23.012-.344 0a.61.61 0 0 1-.164 0c-.055 0-.117 0-.125-.085a.125.125 0 0 1 .086-.125.555.555 0 0 1 .336-.07c.13-.022.261-.022.39 0l.172.054h.172a.883.883 0 0 0 .203 0 .727.727 0 0 1 .188 0c.101.007.201.028.297.062a.781.781 0 0 0-.508-.117c.094-.008.188-.008.281 0a1.04 1.04 0 0 0-.414 0 .781.781 0 0 1 .196 0 1.203 1.203 0 0 0-.336 0 1 1 0 0 1 .18-.047.477.477 0 0 0-.235 0h-.11a.594.594 0 0 1-.124 0h-.094a.781.781 0 0 0-.578.078.164.164 0 0 0 0 .25c.12.07.26.1.398.086h.406c.127-.025.255-.044.383-.054.154-.009.308.013.453.062a.586.586 0 0 1 .102.086.11.11 0 0 1 0 .149.117.117 0 0 1-.078 0 .562.562 0 0 1-.172 0h-.07l-.399-.133a.664.664 0 0 0-.18 0 3.57 3.57 0 0 0-1.328.226h-.047a.156.156 0 0 0-.132-.164h.179s-.07-.086 0-.054c.07.03.11 0 .11 0a.172.172 0 0 1-.094-.055c.043.014.09.014.133 0a.125.125 0 0 1-.063 0 .29.29 0 0 0 .211-.164.266.266 0 0 0-.265 0 .86.86 0 0 0-.555-.117s0-.133-.25-.11c0 0 0 .188.125.211h-.078c-.016 0 0 .055.054.063.055.008-.078 0-.101 0-.024 0 0 .062.101.054.102-.007-.07.055-.101 0 .03.028.068.047.11.055l.07.094a.25.25 0 0 0-.18.297.96.96 0 0 1-.313-.211l-.047-.117s0-.094-.085-.102a.11.11 0 0 0-.102-.047.086.086 0 0 1 0 .047.125.125 0 0 0-.102 0s.04 0 .055.047h-.11.071c.063.02.113.07.133.133 0 .062.047.125.125.14a.93.93 0 0 0 .297.282h-.07a.96.96 0 0 0 .18.086h-.142c.073.053.155.09.243.109a.46.46 0 0 1-.235 0c-.078 0-.125-.063-.21-.07h-.055a.117.117 0 0 0-.133.062h.094-.055a.078.078 0 0 0 0 .086.078.078 0 0 1 .062 0h.055a.164.164 0 0 0-.055.14l.055-.054a.14.14 0 0 1 .164 0h.078a.18.18 0 0 0 .102 0c.03.01.063.01.094 0 .037.016.08.016.117 0h.039a.46.46 0 0 0 .148-.04h.063c.06-.004.12-.004.18 0a.125.125 0 0 1-.04-.062c.042.01.084.01.125 0 0 0-.054-.046-.062-.078a.148.148 0 0 0 .07 0 .203.203 0 0 0 .117 0c-.086 0-.156 0-.132-.117a8.898 8.898 0 0 1 1.015-.219.328.328 0 0 1 .352.141c.103.053.214.09.328.11h.047l-.258.171-.422.242-.203.149-.164.078c-.43.183-.878.322-1.336.414 0 .04 0 .078-.04.11a.54.54 0 0 0-.023.101v.64l1.196.57.289.142c.266-.096.527-.206.781-.329l.14-.07.157-.078.078-.047.086-.047.398-.156.32-.203a9.266 9.266 0 0 0 1.196-.953 8.422 8.422 0 0 0 2.344-4.157c.154-.647.232-1.31.234-1.976v-.14a1.438 1.438 0 0 1-.351-.337 1.664 1.664 0 0 1-.157-.297l-.109-.039-.14-.054-.165-.055-.101-.039H57.047v-.063a.133.133 0 0 1 0-.054.133.133 0 0 1 0-.055v-.062h.391l.062-.047.078-.055.149-.11.078-.062c-.117-.344-.211-.672-.242-.781l-.063-.125-.156.047h-.18l-.14.047-.118.039.047.148c0 .047 0 .102.063.149h-.063a.633.633 0 0 1 0-.086.727.727 0 0 1-.047-.14l-.125-.024v-.078l.172-.047.188-.063h.179l.157-.047a.234.234 0 0 1 .078-.242l.07-.07c.094-.11.195-.235.344-.235h.047a8.79 8.79 0 0 0-1.461-2.422l-.149-.164c.041-.08.091-.156.149-.226a.406.406 0 0 1 .203-.125m-12.992 2.797a.336.336 0 0 0 0 .054V26.625l-.149-.086-.18-.094-.085-.039h-.086l-.188-.086-.156-.07v-.156a.11.11 0 0 0 0-.047l.156.086.18.094.086.039h.086l.18.086.163.07a.086.086 0 0 0 0 .047m.344-.625-.039.054a.195.195 0 0 1 0 .055v.04l-.148-.095-.172-.109-.078-.047-.22-.125-.062-.039v.047a.125.125 0 0 0 0 .055v.125l.047-.07a.437.437 0 0 1 .04-.063l.046-.078.047-.078.055-.094a.547.547 0 0 1 .047-.07v-.07a.46.46 0 0 0 0-.063l-.18.093a.14.14 0 0 0-.04.055v.094h.063l.211.133.078.047.18.101.149.078m7.398 8.149a.578.578 0 0 1 .156 0c.047 0 0 .054 0 .07 0 .016-.101 0-.156-.102m.258.329a.453.453 0 0 1-.125.242h-.055a.477.477 0 0 1 0-.297.04.04 0 0 0 .078 0c0-.055-.07-.078-.07-.078a.125.125 0 0 1 .125 0 .11.11 0 0 1 .094.086.078.078 0 0 0-.117 0c0 .054.086.047.086.047m0-.196v-.062a.781.781 0 0 1 .164 0c-.086.07-.18.07-.188.054m2.297.649h-.047a.445.445 0 0 1-.195-.078.242.242 0 0 1-.07-.055c-.047-.055-.079-.117-.133-.172l.25.086h.093c.063.005.125.005.188 0h.101c-.057.058-.12.11-.187.156m-3.984-11.382h-.086l-.18-.063a3.125 3.125 0 0 1-.367-.18l-.086-.054a2.492 2.492 0 0 1-.406-.328l-.118-.125a.781.781 0 0 1-.117-.157 1.234 1.234 0 0 1-.117-.187 1.031 1.031 0 0 0-.852-.64h-.046a.523.523 0 0 0-.461.179.734.734 0 0 0 0 .562v.07c.03.031.03.08 0 .11a.078.078 0 0 1-.11 0 .93.93 0 0 1-.07-.172.781.781 0 0 1 0-.625.68.68 0 0 1 .578-.226h.11c.105.009.207.035.304.078.285.146.513.382.649.672 0 .062.078.133.117.187.037.053.079.103.125.149l.125.117c.148.136.313.251.492.344l.125.062.227.086h.148l.18-.07.109-.063.094-.055c.136-.078.261-.172.375-.28a.586.586 0 0 0 .125-.118c.046-.049.087-.1.125-.156a.89.89 0 0 0 .117-.18c.14-.289.37-.524.656-.672a.969.969 0 0 1 .281-.078h.125a.648.648 0 0 1 .57.235.781.781 0 0 1 0 .64.781.781 0 0 1-.062.156.078.078 0 0 1-.11.04.086.086 0 0 1-.038-.11.32.32 0 0 0 0-.07.719.719 0 0 0 0-.57.547.547 0 0 0-.453-.172h.226c-.11 0-.515.046-.851.64a1.422 1.422 0 0 1-.117.18c-.034.054-.07.106-.11.156l-.117.125c-.121.12-.255.228-.398.32l-.079.047-.195.11-.18.078-.125.047h-.078m4.727 5.093v.04h-4.078v-4.985s.117.102 1.156.156h.812a5.836 5.836 0 0 0 1.563-.195c.222-.063.433-.16.625-.289l.578.656a3.46 3.46 0 0 0-.305.367 3.664 3.664 0 0 0-.468.899l-.094.289a4 4 0 0 0-.086.477 6.32 6.32 0 0 0 .219 2.64m.78-3.172c0 .164-.054.313-.077.438-.024.125 0 .14 0 .25v.508c0 .671.07 1.695.156 2.875h-5.469v-5.704l.242-.101c.118.086.22.101.266 0v1.844a.43.43 0 0 0-.195.375s-.196.054-.196.148a.18.18 0 0 0 .196.164s0 .305.195.375v1.79c-.14 0-.36.054-.172.288 0 0-.203.18-.11.29a.172.172 0 0 0 .29 0s.258.124.328 0c0 0 0-.157-.062-.212h1.351s.055.157.344.164c0 0 0 .196.187.172a.148.148 0 0 0 .141-.187.469.469 0 0 0 .383-.14h1.289s-.133.21 0 .265c.133.055.258.07.312 0 .055-.07.172.18.266.047.094-.133.04-.22-.063-.297-.101-.078.141-.438-.257-.235a6.125 6.125 0 0 1-.242-1.64.352.352 0 0 0 .226-.352s.227 0 .234-.156c0 0 0-.164-.195-.117 0 0 .086-.375-.172-.422a1.266 1.266 0 0 1 0-.234c.023-.101.052-.2.086-.297.12-.32.276-.625.469-.907.086-.132.18-.265.289-.414a.594.594 0 0 0 .164-.476.531.531 0 0 0-.078-.219.43.43 0 0 0-.438-.219.61.61 0 0 0-.265.078 2.633 2.633 0 0 1-.781.36c-.28.091-.573.139-.868.14a.5.5 0 0 0-.406-.148.383.383 0 0 0 0-.125c0-.047-.039-.094-.101-.102a.125.125 0 0 0-.125.086.328.328 0 0 0 0 .141.39.39 0 0 0-.336.117l-.055.055a6.727 6.727 0 0 1-.742 0 2.344 2.344 0 0 1-.532-.094s.07-.117 0-.172l.079-.07a3.18 3.18 0 0 0 .32-.336c.349.055.701.083 1.055.086a5.93 5.93 0 0 0 .78-.055l.227-.039c.365-.066.72-.179 1.055-.336l.266-.148.304-.195.782 1.039.234.312a1.07 1.07 0 0 0-.117.164c-.17.326-.286.676-.344 1.04-.047.21-.078.429-.11.632m.274 1.977v-.704c.078.157.156.313.227.47a6.547 6.547 0 0 1 .117 4.757c0-.234-.04-.477-.055-.734-.101-1.25-.203-2.711-.258-3.79m1.164 6.07-.062.102-.086.157-.055.093a.117.117 0 0 0-.047 0l.047-.078.055-.07a.273.273 0 0 1 .047-.07v-.047l-.125-.078-.133-.078c0 .054-.055.101-.07.14l-.07.133h-.04c.062-.086.12-.174.172-.266l-.078-.047-.172-.187-.156-.086-.07.133-.07.148a.344.344 0 0 0 .046-.078l.078-.125.07-.117v-.07l.141.093.18.102.07.047.086.047.18.101.156.078-.07.11m0-3.64v-.173H58.039a.117.117 0 0 0 0 .055.195.195 0 0 1 0 .063v.195a.781.781 0 0 1 0 .156.422.422 0 0 1-.047.086l-.086.063h-.234a.313.313 0 0 1-.094-.079.336.336 0 0 1 0-.093.781.781 0 0 1 0-.141v-.07h-.484v-.047m-.102.898a1.281 1.281 0 0 0 0-.14 1.086 1.086 0 0 1 0-.133v-.156h.938V30.766a.781.781 0 0 0 0 .109h-.125v-.18a.344.344 0 0 0 0-.078.14.14 0 0 0 0-.047H57.515v.164c.004.05.004.1 0 .149h-.109c0-.11.047-.211.063-.313h-.344v.313h-.117a.29.29 0 0 0 0-.094m-.258 1.04v-.056l.438-.203.14-.07.227-.117H56.953v-.063h.07l.157.055c.065.027.133.047.203.063l.195.062.156.04h.11v.124l-.18.086-.219.102-.172.085-.226.11h.633v.055a.133.133 0 0 0 0 .062l-.22-.078-.179-.055h-.164l-.18-.054-.164-.04v-.054m0 .328.079.047h-.18a.187.187 0 0 0-.047.062.18.18 0 0 0 0 .125.148.148 0 0 0 .078.078.172.172 0 0 0 .086 0l.086-.046.086-.079.086-.062h.203c.038.02.073.046.102.078a.25.25 0 0 1 .062.094.297.297 0 0 1 0 .117.313.313 0 0 1 0 .117v.047a.172.172 0 0 1-.039.063.219.219 0 0 1-.086.062l-.047-.039-.054-.055a.148.148 0 0 0 .14-.062.102.102 0 0 0 0-.047.172.172 0 0 0 0-.11.14.14 0 0 0-.062-.07.133.133 0 0 0-.094 0 .21.21 0 0 0-.078.047l-.086.07a.734.734 0 0 1-.094.07h-.086a.266.266 0 0 1-.125 0 .39.39 0 0 1-.11-.077.258.258 0 0 1-.054-.102.367.367 0 0 1 0-.133.5.5 0 0 1 .047-.14.414.414 0 0 1 .133-.188.57.57 0 0 1 .07.063m.586-5.899v.047a2.125 2.125 0 0 1-.188.188l-.18.187-.179.188-.14.164v-.11a.125.125 0 0 0 0-.054.07.07 0 0 0 0-.055l.109-.102a.625.625 0 0 0 .101-.101.54.54 0 0 0 0-.078v-.078a.281.281 0 0 1 0-.07.156.156 0 0 1 0-.063h-.296v-.04h1.03m-.78-1.398-.102.156-.094.165-.078.132-.086.149h.36l.359-.055V25.516l-.195.164-.188.156-.187.156-.141.125v-.14l-.04-.047.25-.188.118-.101.133-.11H56.266v-.054l.156-.258a1.36 1.36 0 0 1 .086-.14l.047-.087a.32.32 0 0 0 0-.07l-.118.055-.109.062v-.117l.172-.086.258-.125m3.21-6.688c.052-.103.096-.21.134-.32.078-.297-.391-.648-.391-.648s-.055 0 0 0 .078.125 0 .468c-.078.344.312.5.312.5m-5.789-4.921a.203.203 0 1 0-.195.195.195.195 0 0 0 .195-.195m-13.437 3.671a.484.484 0 0 0-.156.375v.118l-.266.234a.445.445 0 0 0 .406.227h.125l-.297-.844a.633.633 0 0 0-.14.078m-.657.547.43-.149a.54.54 0 0 1 .11-.39l-.868.312a.492.492 0 0 1 .328.227m-1.148-1 .648.719.368-.125-.649-.72-.367.126zm-.39 2.289a.133.133 0 1 0-.09-.25.133.133 0 0 0 .09.25m1.374-.695a.438.438 0 0 0 .18-.422.336.336 0 0 0 0-.086c0-.04 0-.07-.055-.102a.453.453 0 0 0-.39-.195.352.352 0 0 0-.125 0l.289.844a.414.414 0 0 0 .117-.063m.5-.414a.125.125 0 0 0 .078-.172.14.14 0 0 0-.172-.086.133.133 0 0 0-.078.18.133.133 0 0 0 .172.078m1.563-2.21a.133.133 0 1 0-.172-.087c.025.07.1.107.172.086m.64.961a.133.133 0 1 0 .092.25.133.133 0 0 0-.092-.25m-.328-.781a.14.14 0 0 0 .086-.172.125.125 0 0 0-.172-.078.133.133 0 1 0 .086.25m-.68-.25a.125.125 0 0 0 .078-.172.14.14 0 0 0-.171-.086.14.14 0 0 0 .093.258m-2.812 3.289a.14.14 0 0 0-.086.172.133.133 0 0 0 .172.078.14.14 0 0 0 .086-.172.125.125 0 0 0-.172-.078m3.68-2.438c.025.07.1.107.171.086a.133.133 0 0 0 .079-.172.14.14 0 0 0-.172-.085.133.133 0 0 0-.078.171m-.141-.351a.133.133 0 1 0 .086-.172.14.14 0 0 0-.086.172m0 1.437a.136.136 0 1 0 .258-.086.148.148 0 0 0-.18-.086.133.133 0 0 0-.078.172m1.836 1.102a.54.54 0 0 0 .484.14c.186-.03.364-.096.524-.195a.367.367 0 0 1 .133 0c.067 0 .134.017.195.047.092.036.163.11.195.203a.5.5 0 0 0-.32-.562l-.07-.086-.133-.04h-.266a.367.367 0 0 1 .133 0h.383a.727.727 0 0 0-.125-.429.89.89 0 0 0-.782-.266c.056.16.179.289.336.352-.17.07-.356.095-.539.07a1.008 1.008 0 0 1-.351-.07l-.219-.047c.085.36.411.612.781.602h.133a.578.578 0 0 0-.305.062.375.375 0 0 0-.156.188m2.344-5.516a.195.195 0 1 0 0-.39.195.195 0 0 0 0 .39m-7.813 5.422a.078.078 0 0 0 .047 0 .07.07 0 0 0-.047-.094 1.422 1.422 0 0 1-.648-.617.945.945 0 0 1 0-.11l1.086-.382a.64.64 0 0 0-.781-.39l-.125.062a.633.633 0 0 0-.282.336.71.71 0 0 0 0 .546c.157.309.417.552.735.688a.047.047 0 0 0 .047 0m3.734.289c-1.258-.117-2.875.977-2.875.977s-.117.234-.398.171a1.305 1.305 0 0 0-.696.157c.056.065.101.139.133.218.297.672.703.625.703.625.04.18-.414.415-.414.415h.383a.188.188 0 0 1 .187.101c.063.094 0 .211-.148.578a.781.781 0 0 0-.047.672c.036.152.062.306.078.461a2.75 2.75 0 0 0 .375-.664c.086-.211.133-.047.133-.047v.055a1.773 1.773 0 0 1-.227.61 2.195 2.195 0 0 0-.093 1.1 1.562 1.562 0 0 1-.188.65c.118-.015.233-.044.344-.087.39-.133.453-.867.531-1.078.078-.21.094-.203.094-.203s.07-.063 0 .445c0-.11-.063.532-.07.782a2.016 2.016 0 0 1-.07.484c.058-.036.113-.078.163-.125a1.11 1.11 0 0 0 .446-.781v-.086a.047.047 0 0 1 .093 0v.062c.001.13.028.257.079.375v.063c.152.177.23.407.218.64.175-.2.294-.442.344-.703a.086.086 0 0 0 0-.039.055.055 0 0 1 0-.055.062.062 0 0 1 .055 0c.16.29.245.615.25.946v.101a.648.648 0 0 0 0 .102.133.133 0 0 0 0 .062c.173-.181.301-.4.375-.64a.586.586 0 0 0 .039-.203.781.781 0 0 0 0-.227 1.266 1.266 0 0 1-.078-.547.414.414 0 0 1 .218-.375.047.047 0 0 1 .047 0 .055.055 0 0 1 0 .047c.023.315.137.616.328.867-.033-.303.022-.61.157-.883l.398.547c.1-.13.209-.263.328-.398l.055-.047-.305-.07 1.328-1.813c-.062-.14-.101-.289-.148-.367-.047-.078-.734-.445-.953-.617-.219-.172 0-.203 0-.203.367.174.801.13 1.125-.117a.523.523 0 0 1-.274-.157 2.453 2.453 0 0 0-1.023-.687c.781.273.922-.125.922-.125-.18.093-.344-.04-.516-.157a1.273 1.273 0 0 0-.453-.156c.265-.31.36-.732.25-1.125l-.164.078-.18.04c-.46.062-.547.234-.547.234-.164.203-.296.101-.296.101m-3.328 1.899c-.211-.07-.29-.367-.352-.516.172 0 .305-.086.445-.062.375.093.461.617.461.64a2.648 2.648 0 0 1-.554-.062m3.414-1.07s0 .546-.274.687c-.273.14-.406 0-.633-.219.313-.134.616-.291.907-.468m-1.563 1.648c0-.125 0-.195.063-.219l.992-.344c.086-.039.11.047.273.204.047.046-.094 0-.117-.04-.023-.039-.14 0-.227.079-.203.203 0 .132.141.14.25 0-.36.14-.297.375s.32.149.352.18v.047c0 .086.18.476.226.578.11.234.063.36-.078.445l-.094.086a1.266 1.266 0 0 1-.171 0 .242.242 0 0 1-.258-.101 3.445 3.445 0 0 1-.282-.727v-.094c0-.008.227-.039.22-.203a.445.445 0 0 0-.04-.148c-.086-.266-.492 0-.515-.117-.024-.118.43-.188 0-.204-.102 0-.133 0-.196.211v-.148m-1.054-.61a6.29 6.29 0 0 0 .968-.328c0 .297 0 .493-.28.61a.867.867 0 0 1-.688-.281m.507 1.562H40s-.094-.469.102-.656c0 0 0 .492.336.515h.18a.531.531 0 0 0 0 .375c.07.15.196.264.35.32h-.07a.68.68 0 0 1-.695-.616m2.094 1.085s-.11-.062-.149-.078c-.039-.015 0 0 0 0s0 .149-.078.164c-.265.094-1.039.32-1.14 0 0 0 .156.141 1.133-.21h.046c1.086-.407 1.04-.649 1.04-.649s.273.367-.829.828m.64-1.25c0 .04-.046.055-.046.063a.617.617 0 0 0 0-.477.578.578 0 0 0-.289-.242.508.508 0 0 0 .133-.117c.226-.29-.149-.586-.164-.594-.016-.008 0 0 0 0 .273 0 .547.336.562.352l-.14.18a.68.68 0 0 1 0 .937m-.336-3.188c.11-.203.453-.226.601-.258 0 .153-.018.305-.054.454-.164.351-.696.343-.72.328.045-.179.103-.354.173-.524m1.258-2.843.265-.055c-.197.07-.37.197-.492.367a.875.875 0 0 0-.133.477c.341.117.718.058 1.008-.157.437-.25.555-.578.781-.78a.945.945 0 0 1 .219-.165.992.992 0 0 1 .398-.094.781.781 0 0 1 .532.196.867.867 0 0 1 .172.296c.038.106.065.217.078.329.014.218-.007.437-.063.648.04-.212.04-.429 0-.64a1.273 1.273 0 0 0-.101-.305.781.781 0 0 0-.149-.211.234.234 0 0 1 0 .078c.04.108.063.221.07.336.011.222-.018.444-.086.656.04-.212.04-.429 0-.64a.922.922 0 0 0-.109-.29.648.648 0 0 0-.148-.203l.047.117c.039.109.062.222.07.336a1.71 1.71 0 0 1-.086.657c.044-.212.044-.43 0-.641-.02-.1-.055-.198-.102-.29a.781.781 0 0 0-.164-.21c.05.072.087.15.11.234.03.11.048.223.054.336.007.226-.028.45-.101.664.039-.214.039-.434 0-.648a1.008 1.008 0 0 0-.094-.297.781.781 0 0 0-.172-.234l.047.086a.828.828 0 0 1 .07.195c.02.13.02.261 0 .39 0 .126 0 .258-.047.383a1.945 1.945 0 0 0 0 .368 1.508 1.508 0 0 1 0-.375v-.375a1.383 1.383 0 0 0-.062-.36.781.781 0 0 0-.156-.25.203.203 0 0 0-.07.047.695.695 0 0 1 .171.375c0 .352-.047.883-.039 1.04.008.155-.117 1.898.867 2.507h.047c.207.076.422.126.64.148h.118c.055 0 0 .133-.094.18a.625.625 0 0 1-.156.055 1.328 1.328 0 0 1-.305 0 1.187 1.187 0 0 1-.578-.266c-.14-.133-.234-.289-.351-.375a.469.469 0 0 0-.258-.07.336.336 0 0 0-.055.25c.021.116.079.223.164.305a.344.344 0 0 1-.304-.04 1.023 1.023 0 0 1-.414-.601.563.563 0 0 0-.125-.156.5.5 0 0 1 .086.257.562.562 0 0 0-.11-.187l-.07-.07h-.04c.024.029.045.06.063.093.055.082.09.176.102.274a.734.734 0 0 0-.235-.344l-.046-.039.039.055a.469.469 0 0 1 .07.117.71.71 0 0 1 .078.258.664.664 0 0 0-.117-.235l-.086-.093a.078.078 0 0 0-.047-.04l.04.055.085.125c.047.09.076.188.086.29a.734.734 0 0 0-.148-.25l-.094-.095a.14.14 0 0 1-.055 0l.04.055c.04.052.077.107.109.164.034.056.06.117.078.18 0 .062.25.672.523.828l.195.125a.781.781 0 0 0-.328 0 .586.586 0 0 0-.265.172c.074.14.196.247.343.305a.984.984 0 0 0 .5 0c-.055.042-.108.09-.156.14a.32.32 0 0 0-.062.172.516.516 0 0 0 .437 0c.18-.103.346-.229.492-.375.267-.035.53-.1.782-.195.15-.074.294-.16.43-.258.178-.11.337-.25.468-.414-.062.039-.258.203-.32.234-.083.046-.17.085-.258.117.084-.033.166-.075.242-.125l.188-.132.14-.125-.18.117c-.133.089-.277.16-.43.21.145-.06.282-.139.407-.234l.164-.132-.195.125-.211.109a.867.867 0 0 1-.234.063 1.11 1.11 0 0 0 .226-.079l.203-.125c.063-.042.124-.09.18-.14v-.055a2.227 2.227 0 0 1-.29.18l-.202.078h-.172l.172-.047.187-.094c.096-.061.187-.129.274-.203h-.188a.328.328 0 0 0-.336-.234h-.273a1.695 1.695 0 0 1-.39-.102 1.633 1.633 0 0 1-.345-.195.96.96 0 0 1-.265-.297.906.906 0 0 0 .289.258 1.422 1.422 0 0 0 .601.203.93.93 0 0 1-.195-.102 1.39 1.39 0 0 1-.453-.476c.183.263.465.44.781.492a.945.945 0 0 1-.203-.156 1.562 1.562 0 0 1-.305-.453c.097.15.219.281.36.39.037.031.08.055.125.07l-.047-.07a1.242 1.242 0 0 1-.094-.21c0-.071-.062-.141-.086-.212l.117.188.133.187c0 .047 0 .063.086.094l-.187-.484.289.36a3.07 3.07 0 0 1-.414-2.345 1.727 1.727 0 0 0-.492-1.601 1.656 1.656 0 0 0-.985-.399 1.36 1.36 0 0 0-.25 0c-.092.001-.184.014-.273.04-.09.016-.18.04-.266.07a.734.734 0 0 0-.242.133.688.688 0 0 1 .234-.157 1.5 1.5 0 0 1 .258-.11l.273-.077h.211a1.313 1.313 0 0 0-2.109-.477s.055.43.64.399a1.11 1.11 0 0 1-.226.078c-.242.062-.242.062-.633.367a.477.477 0 0 1-.523.063s.125 1.18 1.383.68m-6.063 2.366a.14.14 0 0 0-.086.172.133.133 0 0 0 .172.078.14.14 0 0 0 .078-.172.125.125 0 0 0-.172-.078m3.227-1.039a.133.133 0 0 0-.227 0l.157.446H40.789a.523.523 0 0 1-.477-.274.234.234 0 0 1-.132.266h-.133a.219.219 0 0 1-.14-.125.523.523 0 0 1-.344.562h-.079l-.148-.437h-.07a.125.125 0 0 0-.086.164v.117l-.063-.07a.125.125 0 0 0-.148-.04.14.14 0 0 0-.078.173.164.164 0 0 0 0 .046l.07.079h-.086a.11.11 0 0 0-.086 0 .14.14 0 0 0-.086.171.148.148 0 0 0 .094.086l.344.094a.438.438 0 0 1-.188.211l-.234.11a.136.136 0 0 0 .086.257h.039l.164-.125-.047.164a.133.133 0 0 0 0 .078c.026.07.1.107.172.086a.14.14 0 0 0 .078-.07l.07-.172-.133-.125.243-.281.14.117a.156.156 0 0 0 .188 0l.289-.187c.063-.033.128-.061.195-.086l.32-.117c.07-.021.14-.037.211-.047h.344a.164.164 0 0 0 .149-.118v-.18l.367.071v.18l.164.093a.172.172 0 0 0 .11 0 .14.14 0 0 0 .085-.171.172.172 0 0 0-.055-.07l-.14-.087h.25a.136.136 0 1 0-.086-.257l-.258.062a.414.414 0 0 1-.273-.047l.21-.289a.14.14 0 0 0 0-.125.133.133 0 0 0-.242 0l-.047.086v-.11a.117.117 0 0 0 0-.054.14.14 0 0 0-.171-.086.133.133 0 0 0-.086.125v.094l-.047-.117.078-.07zm-.125-1.812a.133.133 0 1 0-.172-.086c.026.07.101.107.172.086m-3.406 2.344a.14.14 0 0 0-.172-.086.125.125 0 0 0-.078.172c.025.069.1.107.172.085a.125.125 0 0 0 .078-.171m4.82-.782a.133.133 0 1 0-.172-.086c.026.07.101.107.172.086m-4.688 1.29a.133.133 0 0 0 .086-.172.133.133 0 0 0-.171-.079.125.125 0 0 0-.079.172.125.125 0 0 0 .164.078m4.188 4.016a.04.04 0 0 0 .04 0 .047.047 0 0 0 .046-.04l-.086-.593h-.04l-.202.07.242.563zm9.219 18.75s0 .055.039.078c.016.032.037.06.062.086a.406.406 0 0 0 .149.086.344.344 0 0 0 .156 0 .36.36 0 0 0 .18-.047.406.406 0 0 0 .14-.117.781.781 0 0 0 .078-.164 1.18 1.18 0 0 0 0-.25.898.898 0 0 0-.046-.219.578.578 0 0 0-.102-.164.484.484 0 0 0-.148-.094.46.46 0 0 0-.18 0 .383.383 0 0 0-.188.063.54.54 0 0 0-.132.133.719.719 0 0 0-.07.195.781.781 0 0 0 0 .234.672.672 0 0 0 .04.258m-4.181 7.18-.391.156v.211h3.492l-.562.32h-.117v.203h.124l.516.305v1.11h-.719v.406h.258v-.157h.258v.157h.195v.148h-.18v.149h-.28v-.149h-.227v.352h.719v.297h.226v-2.258l.516-.305h.133v-.203h-.125l-.524-.375h3.492v-.328l-.39-.156v-2.211l.437-.39v-.477h-.46v.335h-.243v-.336h-.133v-1.484h.18v-.5h-.29v.25h-.265v-.25h-.5v.25h-.265v-.25h-.29v.5h.18v1.484h-.148v.336h-.274v-.336h-.148v-2.25h.383v-.515h-.297v.25h-.266v-.25h-.5v.25h-.367v-.25h-.5v.25h-.414v-.25h-.313v.5h.383v2.25h-.14v.336h-.274v-.336h-.148v-1.484h.18v-.5h-.297v.25h-.266v-.25h-.531v.25h-.313v-.25h-.297v.5h.188v1.484h-.156v.336h-.243v-.336h-.46v.476l.46.414-.007 2.32zm5-3.68a.312.312 0 0 1 .336-.289.32.32 0 0 1 .336.29v.929h-.672v-.93zm-.11 2.836a.46.46 0 1 1 .922 0v.781h-.906l-.016-.78zm-1.328 1.781-.36.211-.343-.32.367-.211.336.32zm-.039-6.008a.156.156 0 0 1 .313 0v.626h-.313v-.626zm-.469 0a.156.156 0 1 1 .305 0v.626h-.305v-.626zm.133.782a.414.414 0 0 1 .43.383v1.156h-.836v-1.266a.406.406 0 0 1 .422-.383m-.602-.78a.156.156 0 1 1 .305 0v.624h-.305v-.625zm-.039 4.062a.664.664 0 0 1 1.313 0v.968h-1.313v-.968zm-1.836-2.672a.312.312 0 0 1 .336-.29.32.32 0 0 1 .336.29v.93h-.672v-.93zm-.11 2.836a.46.46 0 1 1 .923 0v.78h-.922v-.78zm2.985 2.343v2.157a.273.273 0 0 1-.273.273h-.227a.273.273 0 0 1-.273-.273v-.055h-.461a.273.273 0 0 1-.29-.234v-.875a.281.281 0 0 1 .282-.274h.5v-.703l-.258-.148h-4.781c.13.255.311.48.531.664.48.383 1.004.706 1.563.96.758.355 1.541.653 2.343.891h.047c.401.148.706.48.82.89v.063-.062c.11-.401.398-.73.782-.89h.055c.801-.241 1.584-.539 2.343-.891a7.242 7.242 0 0 0 1.563-.961c.222-.181.403-.408.531-.664h-4.687l-.258.148.148-.016zM41.156 38.47v-.063c.086-.367.297-.976.532-1.101.234-.125 1.882-.157 2.257-.782a.281.281 0 0 0 0-.336.352.352 0 0 0-.234-.085h-.992c-1.679 0-3.345.293-4.922.867-1.6.571-3.286.86-4.984.851-.42.003-.84-.018-1.258-.062h-.133l.515 2.383h.993a15.102 15.102 0 0 0 5.101-.899 13.281 13.281 0 0 1 3.125-.781m-5.468.43a.664.664 0 0 1-.305.398.898.898 0 0 1-.258.078l-.297.008h-.336v-.508l-.039-.242v-.266l-.047-.242H34.71l.204-.039c.101-.007.203-.007.305 0 .086.007.17.028.25.063.072.04.133.095.18.164a.781.781 0 0 1 .078.554m.703.22h-.242v-.227c0-.079 0-.164-.063-.266l-.055-.242c0-.102-.047-.188-.062-.266l-.07-.226h.312l.047.234c0 .07 0 .164.055.266l.054.242c0 .099.024.185.07.258.017.076.038.152.063.226h-.07m1.148-.297-.367.094-.188.055H36.892l-.047-.227-.07-.258-.063-.25c0-.093-.055-.187-.07-.258l-.07-.226H36.905l.242-.07.149-.047a.156.156 0 0 0 0 .078v.047c0 .047 0 0 0 0h-.43c.012.063.028.126.047.187l.047.196.289.039.203-.063a.273.273 0 0 0 0 .047.07.07 0 0 0 0 .04.086.086 0 0 1 0 .046 4.227 4.227 0 0 0-.43.094v.117a.445.445 0 0 0 0 .11c.017.076.037.152.063.226l.21-.063.212-.078a.14.14 0 0 0 0 .047.414.414 0 0 1-.125 0m.414-.578c0-.047 0-.086-.04-.125a.39.39 0 0 0 0-.102v-.179c0-.032-.054-.172-.077-.235a.531.531 0 0 0-.047-.125h.304c0 .117.055.227.079.328l.093.297a.953.953 0 0 0 .11.25c.028.05.069.093.117.125.042.027.09.041.14.04h.165a.313.313 0 0 0 .156-.11.445.445 0 0 0 .055-.172 1.102 1.102 0 0 0 0-.219l-.07-.234-.079-.242-.094-.235H38.797v.102c.01.053.023.105.039.156 0 .055 0 .117.055.188.054.07 0 .14.062.218a.57.57 0 0 1 0 .485.586.586 0 0 1-.367.258.867.867 0 0 1-.227.054.852.852 0 0 1-.203 0 .445.445 0 0 1-.125-.164.633.633 0 0 1-.117-.203m-2.617.219a.484.484 0 0 0-.11-.14l-.156-.079a.719.719 0 0 0-.187 0h-.196a.18.18 0 0 0 0 .055V38.602l.047.32v.203a.336.336 0 0 0 0 .094v.054h.164a.437.437 0 0 0 .328-.187.656.656 0 0 0 .07-.445.523.523 0 0 0-.062-.196M65 45.015h-.07c-.34.027-.654.187-.875.446l-.094.094-.266.304c-.265.266-.647.38-1.015.305a.945.945 0 0 1-.664-.727 1.195 1.195 0 0 1 0-.234 2.273 2.273 0 0 1 0-.234c.019-.155.064-.306.132-.446-.047.144-.069.295-.062.446a1.04 1.04 0 0 0 0 .218v.086c0 .024 0 0 0 0 .015-.155.06-.306.133-.445a1.219 1.219 0 0 0-.047.445c.01.074.022.147.039.22v.1-.241c.014-.21.07-.415.164-.602a1.563 1.563 0 0 0-.07.602 1.719 1.719 0 0 0 0 .289.898.898 0 0 1 0-.023c.006-.272.073-.54.195-.782-.06.17-.088.35-.086.531v.274a.734.734 0 0 0 0 .125.148.148 0 0 0 0 .062v.063-.141a2.148 2.148 0 0 1 0-.32c.02-.212.083-.417.188-.602-.058.195-.076.4-.055.602 0 .093 0 .195.055.289.008.045.021.09.039.133a.852.852 0 0 1 0-.141 2.54 2.54 0 0 1 0-.422c.112-.163.243-.313.39-.445.037-.13.093-.253.164-.367a1.89 1.89 0 0 0-.101.78c.006.13.025.258.054.384a1.562 1.562 0 0 0 0 .187h.055a.484.484 0 0 1-.07-.195c-.05-.419.006-.844.164-1.235.18-.535.16-1.118-.055-1.64a6.225 6.225 0 0 0-.297-.524c.15.158.33.283.532.368.198.07.41.086.617.046a1.617 1.617 0 0 0-.196-.96 1.977 1.977 0 0 0-.78-.618 1.43 1.43 0 0 0 .398-.047.523.523 0 0 0 .297-.21 1.945 1.945 0 0 0-.907-.485 3.5 3.5 0 0 0-1 0 6.555 6.555 0 0 0-1.445-.617 5.57 5.57 0 0 0-.961-.086h-.656a3.383 3.383 0 0 0-.328-2.086c-.07-.148-.063-.11-.094 0-.125.64-1.04 1.008-1.563 1.172-1.57.4-3.172.662-4.789.781h-1.289a2.023 2.023 0 0 1-.64.524c0 .109 0 .226.039.351.039.125 0 .25 0 .375a.172.172 0 0 1 0 .063v.265c0 .11 0 .196.039.258h-.336a1.383 1.383 0 0 0 0-.25 1.21 1.21 0 0 0 0-.172v-.093c0-.032 0-.25-.04-.368l-.195.36a.422.422 0 0 1-.039.086l-.093.18-.133.257h-.078a2.953 2.953 0 0 1-.133-.273.969.969 0 0 1-.078-.157.852.852 0 0 1-.063-.117l-.062-.156c0 .102 0 .195-.04.297a.86.86 0 0 0 0 .14.633.633 0 0 0 0 .126v.304h-.187c0-.11.04-.219.063-.328l.047-.258v-.07c.039-.219.07-.438.101-.664h.164l.117.234.118.242.117.235.047.086c0 .047.047.086.062.125l.07-.117c.063-.11.125-.22.18-.329.055-.109.133-.25.195-.382v-.047a2.273 2.273 0 0 1-.68-.555 28.047 28.047 0 0 1-5.859-.781c-.515-.14-1.562-.516-1.672-1.196 0-.132 0-.164-.093 0a3.46 3.46 0 0 0-.328 2.126 4.805 4.805 0 0 0-.938-.07c-.322 0-.644.03-.96.085-.51.136-1 .333-1.462.586a3.445 3.445 0 0 0-.992 0c-.361.08-.692.262-.953.523a.562.562 0 0 0 .297.211c.132.035.27.05.406.047a1.875 1.875 0 0 0-.781.617c-.17.29-.24.628-.203.961.202.057.415.057.617 0 .201-.086.382-.214.531-.375 0 .047-.125.196-.297.524a2.39 2.39 0 0 0-.054 1.64c.161.39.218.816.164 1.235a.484.484 0 0 1-.07.195h.054l.055-.367c.023-.127.039-.254.047-.383a1.664 1.664 0 0 0-.102-.781c.072.114.127.238.164.367.038.136.064.274.078.414.008.138.008.276 0 .414v.14a.656.656 0 0 0 0-.132c0-.094 0-.187.055-.289.025-.177.02-.356-.016-.531a1.516 1.516 0 0 1 .188.914.852.852 0 0 1 0 .14h.031a.148.148 0 0 0 0-.062v-.188a1.563 1.563 0 0 0 0-.265c.031-.179.031-.36 0-.54.089.166.147.346.172.532.008.096.008.193 0 .29v.14-.117a1.29 1.29 0 0 0 .039-.297c.02-.201-.004-.404-.07-.594.093.185.149.387.164.594v.25a.508.508 0 0 1 0-.102v-.219c.054-.152.078-.314.07-.476.076.137.12.289.133.445v.047-.094a.992.992 0 0 0 0-.219 1.102 1.102 0 0 0-.063-.445c.069.14.114.29.133.445v.235c.007.08.007.161 0 .242a.937.937 0 0 1-.664.727 1.14 1.14 0 0 1-1.016-.305l-.265-.305-.094-.094a1.328 1.328 0 0 0-.875-.445h-.008a.398.398 0 0 0-.32.086c.107.146.187.31.234.484.064.354.217.685.446.961.392.304.88.456 1.375.43a1.625 1.625 0 0 0 1.21-.945 2.64 2.64 0 0 0 .118-1.485c-.052-.401-.03-.809.062-1.203.04-.17.106-.334.196-.484-.033.249 0 .502.093.734.07.164.202.294.367.36a.93.93 0 0 0 .329-.438c.054-.357.082-.717.086-1.078.103-.432.313-.832.609-1.164.138-.151.295-.283.469-.39h.054c.104-.05.215-.084.328-.102a.32.32 0 0 1 .376.273c-.184.147-.351.312-.5.492v.04a3.04 3.04 0 0 0-.633 2.218c-.01.502.187.986.547 1.336a.5.5 0 0 0 .195-.258c.056-.142.09-.292.101-.445 0 .11.102.266.149.375.192.31.367.631.523.96a.89.89 0 0 1 0 .493h.086a.844.844 0 0 0 0-.344 1.562 1.562 0 0 0-.11-.414c-.05-.137-.11-.27-.179-.398a3.172 3.172 0 0 1-.172-.406c.058.134.129.262.211.382.078.125.157.25.227.383.07.137.122.28.156.43.008.078.008.156 0 .234a.633.633 0 0 1 0 .125c.038-.11.056-.227.055-.343 0-.124-.016-.248-.047-.368a2.46 2.46 0 0 0-.305-.687c.17.193.31.412.414.648.05.126.087.257.11.39.011.102.011.204 0 .306.03-.099.046-.202.047-.305a1.46 1.46 0 0 0 0-.367 2.031 2.031 0 0 0-.282-.688c.17.194.302.416.39.657.05.125.08.256.095.39a.898.898 0 0 1 0 .149.945.945 0 0 0 .047-.297 1.492 1.492 0 0 0 0-.367 2.094 2.094 0 0 0-.282-.688c.17.193.302.416.39.656.05.126.08.257.095.39a.383.383 0 0 1 0 .095.937.937 0 0 0 .039-.297c0-.127-.016-.253-.047-.375a1.977 1.977 0 0 0-.305-.68c.163.196.288.422.367.664.045.123.074.252.086.383.024.134.024.272 0 .406a.836.836 0 0 1-.468.414.906.906 0 0 1-.422.102.703.703 0 0 1-.29-.055 3.328 3.328 0 0 0-1.14-.46c-.385-.072-.78.065-1.04.359a.992.992 0 0 0 .352.437c.195.117.423.167.649.14l-.281.079a1.742 1.742 0 0 0-1.633 1.422c.137-.05.278-.09.422-.117.23.01.46.033.687.07.285.041.575.009.844-.094h.258a.64.64 0 0 0-.43.781c.59.172 1.222-.06 1.563-.57.187-.307.277-.664.257-1.023l-.218.078-.297.062h-.297a.953.953 0 0 1-.297-.054.937.937 0 0 0 .297 0l.281-.055.281-.102a1.836 1.836 0 0 0 1.031-1.055c.22-.66.113-1.385-.288-1.953a1.453 1.453 0 0 0 1-.063 1.805 1.805 0 0 1-1.196-.624 3.977 3.977 0 0 1-.468-1.898l-.102.46-.047-.507v-.235a.836.836 0 0 0-.07.211c0 .086 0 .172-.04.266v.265-.546a.445.445 0 0 1 0-.102 1.36 1.36 0 0 0-.085.14c-.085.191-.138.394-.157.602a1.805 1.805 0 0 1 .079-.64c.027-.096.067-.188.117-.274-.088.071-.167.152-.235.242-.147.204-.244.44-.28.688a1.562 1.562 0 0 1 .35-.985.96.96 0 0 0-.218.18c-.105.1-.195.217-.266.344-.08.128-.134.272-.156.422a1.11 1.11 0 0 1 .117-.446c.059-.14.138-.272.235-.39.101-.117.234-.266.36-.383.124-.117.085-.086.78-.602.277.259.626.428 1 .485.625.156 1.164.265 1.82.383l-.78.297a1.047 1.047 0 0 0-1.274.476.937.937 0 0 0 .586 1.234c.31.1.647.057.922-.117 0 0 .781 1.563.289 2.344 0 0-.063.219-.438.273a.484.484 0 0 0-.492.516s-.039.406.5.586c0 0-1.82 2.04-.375 4.07 0 0 .633 1.047 4.406 2.422 0 0-.234.781.453.906.25.06.513.021.735-.109a3.21 3.21 0 0 1 .781-.172c.267.025.53.082.781.172.222.13.485.17.735.11.687-.133.453-.907.453-.907 3.773-1.375 4.406-2.422 4.406-2.422 1.445-2.03-.375-4.07-.375-4.07.54-.18.492-.586.492-.586a.477.477 0 0 0-.484-.516c-.375-.054-.438-.273-.438-.273-.46-.781.29-2.344.29-2.344.302.24.71.302 1.07.164a.937.937 0 0 0 .554-1.234 1.047 1.047 0 0 0-1.257-.492l-.742-.282c.671-.124 1.25-.242 1.882-.398l.25-.062h.07c.197-.066.382-.164.547-.29.516.407.516.422.602.493.128.12.248.247.36.383.096.119.178.25.242.39.063.14.1.291.109.445a1.29 1.29 0 0 0-.148-.421 1.96 1.96 0 0 0-.274-.344 2.344 2.344 0 0 0-.21-.18l.14.203c.131.24.201.508.203.782a1.625 1.625 0 0 0-.281-.688 1.383 1.383 0 0 0-.235-.242c.053.086.095.177.125.273.058.209.082.425.07.64a1.898 1.898 0 0 0-.156-.6 1.36 1.36 0 0 0-.086-.141.484.484 0 0 1 0 .101c.008.091.008.183 0 .274v.273-.531a.836.836 0 0 0-.07-.211v.234l-.047.508-.101-.46a3.977 3.977 0 0 1-.47 1.898c-.302.355-.73.581-1.194.632.207.086.432.123.656.11h.235l-.188.328a2.437 2.437 0 0 0-.172.508c-.07.372-.046.756.07 1.117.148.39.423.717.781.93.08.051.163.096.25.132.094 0 .188.07.282.094.094.027.191.045.289.055.095.02.193.02.289 0a.781.781 0 0 1-.297.055h-.297c-.1-.014-.2-.035-.297-.063a1.187 1.187 0 0 1-.219-.07c-.018.359.072.716.258 1.023.346.504.975.73 1.563.563a.64.64 0 0 0-.43-.782 1.29 1.29 0 0 1 .25 0c.27.098.56.128.844.086.227-.037.457-.06.687-.07.143.033.284.075.422.125a1.742 1.742 0 0 0-1.633-1.43l-.328-.156c.226.026.454-.023.649-.14a.992.992 0 0 0 .351-.438 1.117 1.117 0 0 0-1-.36 3.21 3.21 0 0 0-1.133.462.734.734 0 0 1-.289.054.875.875 0 0 1-.922-.57 1.422 1.422 0 0 1 0-.406 1.64 1.64 0 0 1 .07-.328.148.148 0 0 1 0-.055 2.21 2.21 0 0 1 .367-.664 2.11 2.11 0 0 0-.304.687c-.03.118-.046.238-.047.36a1.36 1.36 0 0 0 0 .304v-.101a1.68 1.68 0 0 1 .094-.39c.09-.241.222-.464.39-.657-.133.213-.228.449-.28.695-.016.12-.016.24 0 .36 0 .1.015.2.046.297a.945.945 0 0 1 0-.149c.015-.134.046-.265.094-.39.093-.24.225-.462.39-.657a2.203 2.203 0 0 0-.28.688 1.492 1.492 0 0 0 0 .367.96.96 0 0 0 .046.305 1.984 1.984 0 0 1 0-.305c.024-.135.063-.266.118-.39.1-.237.237-.456.406-.65-.135.217-.238.45-.305.696-.03.117-.046.238-.047.36-.001.116.017.233.055.343a.594.594 0 0 1 0-.117 1.21 1.21 0 0 1 0-.242c.034-.15.087-.294.156-.43.07-.129.145-.254.227-.375.08-.121.151-.25.21-.383-.048.14-.106.275-.171.407-.068.129-.128.262-.18.398-.055.13-.092.266-.11.406-.019.117-.019.236 0 .352h.087a.86.86 0 0 1 0-.484c.176-.338.377-.662.601-.97 0-.116.102-.273.14-.374a1.5 1.5 0 0 0 .102.437.5.5 0 0 0 .196.258c.358-.348.556-.829.547-1.328a3.078 3.078 0 0 0-.633-2.227.094.094 0 0 0 0-.039 3.422 3.422 0 0 0-.5-.492.328.328 0 0 1 .375-.273c.117.018.23.055.336.11h.047c.17.104.326.233.46.382.299.333.508.736.61 1.172.014.361.053.722.117 1.078a.984.984 0 0 0 .328.445.695.695 0 0 0 .367-.36c.105-.246.137-.516.094-.78.089.15.154.314.196.484.084.38.103.77.054 1.156a2.68 2.68 0 0 0 .125 1.492c.211.5.667.856 1.203.938a1.562 1.562 0 0 0 1.805-1.297c.046-.177.126-.344.234-.492a.39.39 0 0 0-.312-.086m-24.219-5.195c.172-.012.344-.012.516 0v.046h-.532c-.181.011-.361.037-.538.079.175-.055.356-.095.539-.118m.351.172h.219l.039.094h-.25c-.305-.012-.61.02-.906.094.29-.096.592-.154.898-.172m-.516.289c.151-.039.306-.062.461-.07a2.89 2.89 0 0 1 .368 0l.047.078h-.407a3.062 3.062 0 0 0-.46 0c-.152.03-.3.08-.438.148a1.75 1.75 0 0 1 .43-.187m.296.273a1.844 1.844 0 0 0-.726.195c.099-.057.2-.11.304-.156.134-.054.273-.094.415-.117a5.11 5.11 0 0 1 .695-.047l.062.07a7.352 7.352 0 0 0-.78.055m11.718-.531h.094l.382.312.11.086.125.102.375.297V39.96h.179a.781.781 0 0 0 0 .133 1.398 1.398 0 0 0 0 .187.484.484 0 0 0 0 .102c-.003.054-.003.11 0 .164v.734h-.164l-.695-.57-.203-.258v-.039.633c.003.047.003.094 0 .14a.406.406 0 0 1 0 .086v.055h-.094v-.562a.297.297 0 0 0 0-.078v-.196a.54.54 0 0 1 0-.101v-.22a1.648 1.648 0 0 1 0-.163h.086m-1.992.531a.547.547 0 0 1 .148-.227.633.633 0 0 1 .235-.164c.102-.04.21-.064.32-.07.101-.012.204-.012.305 0a.82.82 0 0 1 .25.117.648.648 0 0 1 .18.203.86.86 0 0 1 .07.227.219.219 0 0 0 0 .07.852.852 0 0 1 0 .203v.07a.734.734 0 0 1-.383.391.969.969 0 0 1-.313.07 1.305 1.305 0 0 1-.304 0 .602.602 0 0 1-.39-.242l-.04-.062a.562.562 0 0 1-.062-.313.61.61 0 0 1 .039-.265m-4.227-.39a.102.102 0 0 0 0-.048v-.086H47.742a.102.102 0 0 0 0 .047v.086h-.336v1.149h-.468c0-.078 0-.157.039-.235.039-.078 0-.18 0-.28v-.485a.445.445 0 0 0 0-.102.086.086 0 0 0 0-.062h-.368m-1.226.78c0-.077 0-.171.047-.273l.039-.265c0-.102 0-.196.039-.281.039-.086 0 0 0-.055v-.188h.773v.078a.156.156 0 0 0 0 .055v.164h-.453V40.563h.234c.076.004.152.004.227 0a.195.195 0 0 0 0 .054.156.156 0 0 1 0 .055c-.15-.04-.3-.07-.453-.094v.484h.469a.273.273 0 0 0 0 .047v.047a.656.656 0 0 0-.14 0h-.642l.047-.242m-1.484 5.469c0-.145.096-.271.234-.313a.781.781 0 0 0 .516-.64 3.36 3.36 0 0 0-.594-2.633v-.04a.875.875 0 0 0-.203-.171.336.336 0 0 0-.46.047.328.328 0 0 0 .179.422c.082.056.182.08.281.07a.703.703 0 0 1-.602.102.625.625 0 0 1-.437-.782.61.61 0 0 1 .781-.375.617.617 0 0 1 .203.102.781.781 0 0 1 .118.11 3.71 3.71 0 0 1 .625 4.241.328.328 0 0 1-.305.196.32.32 0 0 1-.32-.32m5.312 7.351a.633.633 0 0 1-.781.367.547.547 0 0 1-.258-.578c.164 0 .328 0 .352-.11.023-.109-.063-.21-.211-.265h-.063c-3.82-1.148-4.531-2.547-4.531-2.547-.906-1.32.312-3.273.312-3.273a.508.508 0 0 1 .446-.242.46.46 0 0 1 .492.421.422.422 0 0 1-.281.375c.062-.148 0-.296-.07-.343-.071-.047-.227 0-.29.18l-.07.156a3.375 3.375 0 0 0-.313 1.851c.32 1.727 4.516 2.946 5.024 3.125h.109a.633.633 0 0 1 .157.883m7.03-3.18s-.71 1.399-4.53 2.547h-.063c-.148.055-.242.164-.219.266.024.101.196.148.36.101a.562.562 0 0 1-.258.578.648.648 0 0 1-.82-.367.64.64 0 0 1 .164-.883.156.156 0 0 1 .062 0h.04c.507-.14 4.687-1.367 5.023-3.085a3.29 3.29 0 0 0-.32-1.852 1.25 1.25 0 0 0-.071-.156c-.063-.14-.195-.219-.29-.18a.25.25 0 0 0-.07.336.406.406 0 0 1-.28-.375.46.46 0 0 1 .492-.414.508.508 0 0 1 .445.242s1.219 1.945.312 3.274m-.078-8.446a.82.82 0 0 1 .203-.101.602.602 0 1 1 .352 1.14.648.648 0 0 1-.516-.047l.11-.046a.336.336 0 0 0 .18-.43.328.328 0 0 0-.462-.04.328.328 0 0 0-.125.102 3.406 3.406 0 0 0-.648 2.696.781.781 0 0 0 .516.64.328.328 0 0 1 .234.313.32.32 0 0 1-.328.32.32.32 0 0 1-.297-.195 3.719 3.719 0 0 1 .625-4.242l.117-.11M56 41.883a4.773 4.773 0 0 0-.672 4.906.727.727 0 0 0-.61.727.703.703 0 0 0 .782.664c.122.277.211.568.266.867.539 1.937-4.75 3.43-4.75 3.43a.938.938 0 0 0-.375 1.562 3.125 3.125 0 0 0-.602-.094 3.125 3.125 0 0 0-.602.094.938.938 0 0 0-.374-1.562s-5.29-1.493-4.75-3.43c.054-.295.132-.585.234-.867a.71.71 0 1 0 .234-1.399c.709-1.63.45-3.52-.672-4.898l.953-.367c3.305.53 6.673.53 9.977 0l.961.367zm2.867-2.055h.258c.18.024.358.063.531.117a3.203 3.203 0 0 0-.539-.078h-.258v-.039m-.062.188c.29.011.577.066.851.164a3.04 3.04 0 0 0-.875-.094v-.07m-.093.203h.101c.157.007.311.033.461.078.152.037.297.097.43.18a1.805 1.805 0 0 0-.438-.149 2.977 2.977 0 0 0-.46 0h-.141l.047-.078m.672.422a1.773 1.773 0 0 0-.407-.07l-.492-.047.07-.07c.144-.01.287-.01.43 0a1.922 1.922 0 0 1 .719.273 2.266 2.266 0 0 0-.32-.125m4.945-2.477a.445.445 0 0 0-.117-.125.39.39 0 0 0-.164-.07.344.344 0 0 0-.18 0 .64.64 0 0 0-.156.094.516.516 0 0 0-.117.164.836.836 0 0 0-.07.21.703.703 0 0 0 0 .25.437.437 0 0 0 .054.18.25.25 0 0 0 .11.11.43.43 0 0 0 .32.063.273.273 0 0 0 .156-.079.367.367 0 0 0 .125-.156.93.93 0 0 0 .094-.25.695.695 0 0 0 0-.219.555.555 0 0 0-.047-.172m4.437-6.593c.268-.303.408-.698.39-1.102-.038-.54-.39-1.563-2.343-2.156-.586-.188-2.164-.844-2.469-1.64a.68.68 0 0 1 .07-.642.914.914 0 0 1 .54-.382c.165-.01.329.04.46.14l.15.11c.405.367.304.593.304.593.703-.336.172-1.367.172-1.367.187.006.373.046.546.117a1.117 1.117 0 0 0-1.265-.703.781.781 0 0 0 0-.68 4.297 4.297 0 0 1-1.102 1.438 1.562 1.562 0 0 0-.39.414c-.215.352-.264.78-.133 1.172.476 1.234 2.648 1.96 2.89 2.04 1.172.374 1.868.944 1.907 1.562a.89.89 0 0 1-.54.859c-.476.219-1.124-.273-1.617-.781a2.437 2.437 0 0 0-.593-.711 5.61 5.61 0 0 0-.93-.563l.094-.047a.094.094 0 0 0 .047-.14l-.383-.782a.094.094 0 0 0-.14-.046l-.157.07-.086-.125.125-.11a.094.094 0 0 0 0-.14l-.547-.664a.11.11 0 0 0-.148 0l-.125.101-.102-.117.086-.133a.11.11 0 0 0 0-.148l-.719-.477a.11.11 0 0 0-.148 0l-.07.11c.008-.247.075-.488.195-.703h.062l.11-.125.375-.414.445-.485.11-.11-.086-.14a.281.281 0 0 0-.149-.11c.056-.065.106-.135.149-.21a2.344 2.344 0 0 0 0-.547c.099.295.35.513.656.57a2.281 2.281 0 0 1 .094-1.148c.085-.234-.313-.852-.336-.961-.024-.11.07-.078.07-.078.18.186.421.302.68.328-.141-.156-.227-.46-.164-1.133.062-.672-1.047-1.219-1.047-1.219.297 0 .43-.406.43-.406-.555.11-1.36-.578-1.36-.578l-.133.219a1.21 1.21 0 0 0-.781-1.406c-.027.28-.124.548-.281.78a.977.977 0 0 0-.22.4l-.25.046A2 2 0 0 0 61.18 19c.133-.36-.446-.875-.446-.875s-.062-.047 0 0c.063.047.102.195-.07.61a.43.43 0 0 0 .14.515h-.202a2.46 2.46 0 0 0-.399.125c-.078 0-.11.258-.117.305-.099.157-.22.299-.36.422-.485.207-.958.444-1.413.71 0 0-.133.063-.079.266.039.162.039.33 0 .492-.047.125 0 .164 0 .164l.047.227h.203l.18-.086c.203-.094.547-.258.992-.445.157-.07.196 0 .227.125 0 0 0 .062-.172.164l-1.102.515s-.086.188.078.172c.165-.015.227-.047.227-.047.088.032.18.05.273.055.128-.008.256-.008.383 0l.36-.172c.037.101.037.212 0 .313a.71.71 0 0 0 .383-.492l.46-.235s0-.398.157-.5c.273-.195.226.14.226.14l-.039.259.563-.165s1.023-.101.562-1.335c.274.335.696 1.226-.36 1.5a4.187 4.187 0 0 0-2.148 1.523.867.867 0 0 0-.109-.242c-.047-.36-.29-.375-.336-.375h-.203V23.094v-.047a.11.11 0 0 0-.148 0l-.727.46a.11.11 0 0 0 0 .15l.102.155-.094.165h-.242a.102.102 0 0 0-.094.062l-.406-.219h-.344s-.14.055-.211.11l-.078.054.312.422a.344.344 0 0 1 .063-.093c.062-.063.156-.102.289 0l.164.195.101.117c0 .04 0 .07.055.102v.195a.11.11 0 0 0 .102.11h.172v.163l-.204.117a.11.11 0 0 0 0 .141l.438.742c.02.04.065.063.11.055v.07a10.234 10.234 0 0 1 1.796-.226c.04-.221.13-.43.266-.61a.828.828 0 0 0-.07.274.64.64 0 0 0 0 .21c-.006.06-.006.12 0 .18l-.07.133h-.126a8.594 8.594 0 0 0-1.844.328l-.132.04-.11.038a.25.25 0 0 1-.133 0h-.109c-.102 0-.234.211-.305.274a.04.04 0 0 0 0 .039.492.492 0 0 0 .063.21l.055.102c.16.59.369 1.165.625 1.72a1.398 1.398 0 0 0 .484.398c.138.085.285.156.437.21.063-.085-.062-.328-.062-.328a1.094 1.094 0 0 1-.398-.25v-.093c.166.032.328.082.484.148l.312.125s-.343-.594-.39-.664c-.047-.07-.11-.047-.219-.055H58.578v-.085a.453.453 0 0 0-.187-.196h-.055l-.313-.937H58.742c.688 0 1.563-.047 1.563-.047s.039.047.351.055c.274 0 .328-.11.328-.11v-.047s.282-.242.532-.437l.187-.04.219-.062c-.336.266-.734.578-.781.649 0 .062-.149.195-.477.195h-.047c-.13.003-.259-.015-.383-.055-.187 0-.914.047-1.507.047h-.172c.09.295.198.584.32.867.36 0 .406.086.438.133.03.047.343.578.398.68l.25.445-.469-.203c.656.71 1.633.695 2.063.89.43.196.242.555.242.555l-.531.508c-.703.695-.297 1.281-.297 1.281.562 1.024 1.047 1.055 1.39 1.133.094.013.18.054.25.117a.36.36 0 0 1 .118.22 7.031 7.031 0 0 0-1.125 1.14c0 .054-.118 0-.172 0-.293.008-.571.125-.782.328l-.093.133-.22.28 1.071.212v-.04l.164-.452.055-.133s.398-.313.86-.602l-.172.727a.102.102 0 0 0 .078.125l.164.039v.156h-.172a.11.11 0 0 0-.125.078l-.094.407.203.054.07-.312.32.07-.07.344.204.054.093-.453a.086.086 0 0 0-.078-.117l-.164-.039v-.156h.164a.102.102 0 0 0 .125-.078l.203-.836a.11.11 0 0 0-.078-.125h-.14v-.156l.14.054a.102.102 0 0 0 .133-.062l.07-.188h.149c.344 0 .328-.484.304-.68v-.288l.29-.633a.11.11 0 0 0-.055-.14l-.149-.071.047-.117.164.062c.08.126.177.24.29.336l.687.672 1.07 1.11c.781 1.695.688 1.695.688 1.695l-.32.382c-.126.282-.22.563-.22.563h.47l.187-.258v.29h.422v-.517l-.258-.25s-.047-.085.063-.257a1.758 1.758 0 0 0-.29-1.563.703.703 0 0 1-.085-.484c.054-.25-.086-.352-.165-.469a8.445 8.445 0 0 1-.71-1.219.547.547 0 0 1 .093-.32c.132.098.212.25.219.414.168-.366.263-.761.281-1.164.114.08.234.151.36.21.15.334.471.556.836.58.445.077.562 0 .835.038-.156-.195-.484-.21-.664-.453.092-.018.181-.047.266-.086h.055a.68.68 0 0 0 .976-.516.36.36 0 0 1-.492.149M58.797 21.53c-.055.094-.211.07-.227 0-.015-.07.063-.156.063-.156s0-.102-.086-.18 0-.117 0-.117c.406-.125.289.445.289.445m1.844-1.32c-.149 0-.25.11-.32.125-.07.016 0-.07 0-.07.023-.082.057-.161.1-.235 0 0 .048-.078.102-.093.078 0 .155.016.227.047a.96.96 0 0 1 .344.148s-.344.07-.461.078m1.648-1.14c0 .468-.554.492-.554.492-.43.047 0-.61 0-.61.105-.173.169-.368.187-.57a.703.703 0 0 1 .375.688m-3.484 4.312.125.188v.148l-.477.305-.203-.266.555-.375zm-.961 1.563.039-.649H58.258l-.04.648h-.335zm.523.828-.117.351-.266-.453-.062-.11.289-.163.188.32-.032.055zm.477-1.235-.375.883-.102-.102-.062-.125a.094.094 0 0 0 .078-.093v-.774l.32-.226.078-.055v.242l.164.04-.101.21zm.273-.414h-.054c0-.187.109-1.031.125-1.195 0 0 .125 0 .132.25a.414.414 0 0 1 .094.422s-.11-.242-.18-.242c-.07 0-.046 0-.046.14v.18a.219.219 0 0 0 .086.203c.075.037.154.068.234.094a.977.977 0 0 0 .25.039c.052.01.104.01.156 0a.21.21 0 0 0 .063-.055v-.047c0-.101-.055-.133-.118-.133a.453.453 0 0 0-.18.047 1.96 1.96 0 0 1 .063-.258.164.164 0 0 1 .149-.117.125.125 0 0 1 .117.07.54.54 0 0 0 .094.18.781.781 0 0 1-.055-.289c.076-.157.188-.294.328-.398.043.106.074.216.094.328a.633.633 0 0 1 0 .21c0 .071-.156.157-.227.204-.07.047 0 0 0 0h.094a.258.258 0 0 1 .125-.04c.102 0 .18.08.102.259-.021.064-.047.127-.079.187a.29.29 0 0 0-.226-.218s-.078 0-.094.101a.227.227 0 0 0 0 .07.281.281 0 0 0 0 .086c.04.078.107.14.188.172.14.066.29.111.445.133a.156.156 0 0 0 .086 0 .14.14 0 0 0 .086-.094c.047-.11 0-.18-.149-.18a.352.352 0 0 0-.164.047s0-.109.07-.195c.07-.086.094-.156.15-.156.082.015.148.075.17.156 0 .086.048.11.056.11.007 0 0 0 0-.04a.562.562 0 0 1 0-.296.883.883 0 0 1 .375-.329c.039.17.039.346 0 .516a.672.672 0 0 1-.243.188.656.656 0 0 0 .188-.063c.078 0 .18.07.125.219-.055.148-.117.226-.117.226s-.094-.234-.196-.234c-.101 0-.078 0-.109.102a.188.188 0 0 0 0 .125c.037.092.11.165.203.203l.227.101a.5.5 0 0 0 .226.07h.086a.266.266 0 0 0 .094-.093.156.156 0 0 0-.164-.219.352.352 0 0 0-.14 0s.046-.117.093-.195.102-.149.156-.149c.055 0 .133.078.157.172.023.094.148.04.148.04a.547.547 0 0 1 0-.298.71.71 0 0 1 .336-.234l.094-.04c.011.115.011.23 0 .345a.469.469 0 0 1-.047.148.64.64 0 0 1-.266.164.656.656 0 0 0 .188-.055c.078 0 .18.079.11.235-.048.08-.103.156-.165.226 0 0-.055-.242-.164-.242a.133.133 0 0 0-.102.063.156.156 0 0 0 0 .086.219.219 0 0 0 0 .07c.046.114.129.21.235.273a.586.586 0 0 0 .258.086.32.32 0 0 0 .148-.039.781.781 0 0 0 .14-.11.719.719 0 0 1 .11-.108h-.102a.703.703 0 0 0-.195 0 .406.406 0 0 1 .367-.211.36.36 0 0 1 .164-.094.102.102 0 0 1 .078 0l-.453.484-.14.164-.235.258a15.508 15.508 0 0 0-3.554-1.562m5.242 4.367.297.586-.149.07-.156.078-.102-.219-.187-.367.297-.148zm-.992-.781.25-.204.414.508-.258.211-.36-.437-.054-.063.008-.015zm-.867-.672v-.047l.164-.242.546.359-.078.117-.11.164-.28-.187-.227-.157-.016-.007zm.109.328.101.062.243.157a.094.094 0 0 0 .132 0l.102-.149.04.047.023.156a.094.094 0 0 0 0 .14l.53.65a.102.102 0 0 0 .15 0l.14-.118.062.094-.156.07a.102.102 0 0 0-.039.14l.078.165a3.484 3.484 0 0 1-1.305-1.438m.899 4.836a1.664 1.664 0 0 1 0-.648v-.04l-.734-.632c.406.133.624.21.742.266A2.281 2.281 0 0 0 62.938 30c.496.352.816.902.874 1.508l-.265.687zm.187.297v.102h-.062a.734.734 0 0 1 0-.125l.062.023zm-.937 2.258v.07h-.078l.101-.047m0 .961-.32-.078.148-.633.329.079-.157.632zm.32-1.18-.312-.117.227-.609.312.117-.226.61zm.602-1.429-.172.367-.304-.14.273-.594.148.07.157.07-.102.227zm.32-.727h-.078l-.242-.054.125-.336.102-.281.32.117-.227.617v-.063zm.368-1.117-.32-.093.195-.633.32.101-.195.625zm.304-1.039h-.336l.07-.656.337.039-.07.617zm-3.351 6.938a.547.547 0 0 0-.164-.086h-.203v.054a.656.656 0 0 1 0 .094v.196l-.094.312V38.094H61.086a.445.445 0 0 0 .375 0 .64.64 0 0 0 .242-.375.727.727 0 0 0 0-.211.43.43 0 0 0-.047-.172.406.406 0 0 0-.101-.133m6.039.555a14.672 14.672 0 0 1-4.985-.852 14.313 14.313 0 0 0-4.922-.867H56.664a.305.305 0 0 0-.219.078.273.273 0 0 0 0 .344c.375.656 2.04.781 2.258.781.28.308.461.691.524 1.102v.062h-.102c1.068.139 2.117.401 3.125.782a15.07 15.07 0 0 0 5.102.851h.984l.516-2.383h-.133a11.04 11.04 0 0 1-1.258.063m-5.625.047a.64.64 0 0 1-.328.414.656.656 0 0 1-.25.062.586.586 0 0 1-.258 0l-.313-.062-.171-.055h-.149c0-.07.047-.148.078-.219.032-.07.047-.164.078-.258l.07-.242.079-.265c0-.07 0-.149.055-.227H60.875l.14.04.204.046.281.117a.719.719 0 0 1 .203.164c.048.065.08.14.094.219a.656.656 0 0 1 0 .29m1.226.108a.312.312 0 0 1-.132.188.438.438 0 0 1-.25.047c0 .117.062.234.101.36l.117.359H62.523l-.171-.657v.07c0 .102-.055.188-.07.266-.016.078-.04.149-.055.227h-.313c0-.07.055-.149.078-.219l.086-.258.07-.242c.028-.085.052-.17.07-.258 0-.078.04-.156.063-.234H62.711l.117.039h.141l.039.039a.313.313 0 0 1 .062.273m1.649.743a.531.531 0 0 1-.11.242.563.563 0 0 1-.187.172.727.727 0 0 1-.258.093c-.1.02-.204.02-.305 0a1.086 1.086 0 0 1-.28-.093.672.672 0 0 1-.204-.157.516.516 0 0 1-.117-.234.633.633 0 0 1 0-.297.617.617 0 0 1 .297-.422.563.563 0 0 1 .258-.086.852.852 0 0 1 .585.102.555.555 0 0 1 .211.164c.054.066.091.144.11.227.023.097.023.199 0 .296m.703-.265a1.977 1.977 0 0 0-.055.265l-.047.243c-.022.09-.037.18-.047.273 0 .078 0 .148-.039.227h-.312c.023-.075.04-.15.055-.227.024-.087.042-.176.054-.266l.047-.242c0-.101 0-.187.055-.265.055-.078 0-.157 0-.243h.312c0 .079 0 .157-.054.235m1.32-.04v.118h-.344a.055.055 0 0 0 0 .039v.094l-.055.453v.508h-.39v-.227a2.414 2.414 0 0 0 0-.273l.055-.453V38.437h-.352v-.125h.993m-34.595-7.468c.108.03.218.05.329.062-.149.344-.547.336-.72.547.274-.062.4.047.837 0a.96.96 0 0 0 .875-.617 8.688 8.688 0 0 0 1.68-.57c.066.302.081.614.046.922-.125.703-.734 1.742-1.492 1.632-.758-.11-.781.453-.71.68.07.227.265 1.219-.048 1.563 0 0 .063.265.282.156-.218.29-.365.627-.43.984 0 0 .61-.14.547.328 0 0-.414.492-.149.836 0 0 .86-.234 1.07-.125 0 0 .579.453.922-.086a.242.242 0 0 1 .399.07.273.273 0 0 0 .156-.273s-.047-.344.18-.312c.226.03.617.062.61.289 0 0 .187-.602-.61-.782a.57.57 0 0 0-.922 0s-.375.336-.586-.32c-.21-.656-.61-2.18.383-2.43l2.578-.726s.227-.04.203-.469a3.29 3.29 0 0 1 .078-.883c.106-.54.28-1.065.516-1.562-.072.299-.107.606-.102.914l1.352-.922.734-.5 1.36-.898-.063-.055c-.14-.14-.18-.188-1.156-.297H39.5a.266.266 0 0 1-.195-.102.273.273 0 0 1 0-.218l.383-1.203a.414.414 0 0 1 .156.195L39.5 27.75h.688c1.046.117 1.124.172 1.312.367a.617.617 0 0 0 .25.156.336.336 0 0 0 .117 0 .172.172 0 0 1-.078-.117v-.07a.383.383 0 0 1 0-.11.54.54 0 0 0-.078-.328h.055l.086.063a.781.781 0 0 1 .148.352c.01.07.05.133.11.171a.445.445 0 0 0 .218.055h.04a.21.21 0 0 0 .093 0 .336.336 0 0 1 0-.086l.07-.078h.07c.031-.01.064-.01.094 0l.078.063c.063.125.125.132.149.125 0-.11.078-.125.133-.118h.07a.29.29 0 0 1 0 .414c-.11.078 0 .328 0 .328l.07.25c0 .102.11.125.211.125h.094a.937.937 0 0 0 .242-.07h.07c.07 0 0 .227-.046.352a.836.836 0 0 0-.047.093h.047a.703.703 0 0 0 .148-.109.719.719 0 0 0 .234-.46c0-.055.11-.079.11-.079a.687.687 0 0 1-.117.5l.062-.039.094-.063v-.039a.586.586 0 0 0 .133-.421h.086c.025.139 0 .283-.07.406l.07-.063a.664.664 0 0 0 .148-.71.602.602 0 0 0-.195-.282l-.14-.086a.93.93 0 0 1-.118-.07h-.047a.992.992 0 0 1-.195-.211l-.133-.242a.258.258 0 0 0-.047-.078.664.664 0 0 0-.234-.18l-.188-.086-.078-.04-.36-.17-.335-.157-.016-.133-.414-.195-.227-.133h-.07l-.547-.235-.687-.296a.602.602 0 0 1 .375-.11l.648.282.297.125c0-.102.086-.204.133-.305.047-.102.195-.406.305-.602.208-.38.446-.743.71-1.086l-.335-.476c-.106.23-.154.482-.141.734v.14a.055.055 0 0 1-.047 0c-.273-.124-.367-.648-.398-.866a.258.258 0 0 0-.086.18c-.008.16.013.322.062.476a.734.734 0 0 1 0 .312 1.18 1.18 0 0 1-.047.29 1.563 1.563 0 0 1-.406.671.094.094 0 0 1-.11.047c-.046 0-.062-.086-.062-.219v-.164a1.742 1.742 0 0 0-.172-.734 1.922 1.922 0 0 1-.468.781.047.047 0 0 1-.063 0 .062.062 0 0 1 0-.055v-.046c.01-.06.01-.12 0-.18a.836.836 0 0 0-.203-.54.422.422 0 0 1-.055-.1.281.281 0 0 1 0-.087c-.023.057-.049.111-.078.164-.169.273-.413.49-.703.625a.055.055 0 0 1-.062 0 .188.188 0 0 1 0-.093c.115-.185.17-.4.156-.617v-.11c-.117.25-.274.36-.492.711a1.29 1.29 0 0 0-.133.305c-.581.373-1.142.778-1.68 1.21l-.148.196-.313-.375c.36-.281.67-.622.914-1.008a2.258 2.258 0 0 0-.047-2.578c0-.133.055-.617.344-.687a.102.102 0 0 0 .086-.125.11.11 0 0 0-.11-.102 1.29 1.29 0 0 0-.882.414.781.781 0 0 0-.18.523.89.89 0 0 0-.453-.14h-.14a.484.484 0 0 1-.477-.164.281.281 0 0 1 0-.274.11.11 0 0 0-.055-.14.102.102 0 0 0-.148.039 1.11 1.11 0 0 0-.14.781c.045.17.147.318.288.422h-.133a.18.18 0 0 1-.187-.102.11.11 0 0 0-.11-.023.102.102 0 0 0-.07.133s.203.695.688.781a.344.344 0 0 1-.266.148.11.11 0 0 0-.125.086.117.117 0 0 0 .063.133c.127.048.262.075.398.078a.687.687 0 0 0 .469-.164c.14.07.383.219.406.399.023.18-.07.28-.266.437a5.469 5.469 0 0 1-2.226.883l-.594.14a4.008 4.008 0 0 0-2.836 1.735 2.5 2.5 0 0 0-.133 1.977c.064.16.16.306.282.43a.375.375 0 0 1-.477-.157.656.656 0 0 0 1.023.469m0-1.774a1.758 1.758 0 0 1 1-1.414 4.234 4.234 0 0 1 1.883-.39c.625.007 1.247.073 1.86.195a14.695 14.695 0 0 0-1.72 1.695.195.195 0 0 1 0 .055 5.367 5.367 0 0 1-2.218.781.781.781 0 0 1-.625-.234.93.93 0 0 1-.14-.664m30.57 8.5-.125-.047c-.055.164-.102.32-.149.484a.328.328 0 0 0 .211 0 .266.266 0 0 0 .117-.172.43.43 0 0 0 0-.125.219.219 0 0 0 0-.086.242.242 0 0 0-.085-.062m-21.977-21.93a.133.133 0 0 0 .086-.172.136.136 0 1 0-.258.086c.026.07.101.107.172.086m-.07.196-.383.132-.063.97.383-.134.063-.968zm-.961.203a.305.305 0 0 0-.188.39c.059.158.231.24.39.188a.306.306 0 1 0-.202-.578m-.782.304a.125.125 0 0 0 .079-.172.14.14 0 0 0-.172-.085.125.125 0 0 0-.078.171c.025.07.1.107.172.086m.5-.78a.664.664 0 0 1-.11.46l.633-.227a.64.64 0 0 1-.367-.289.781.781 0 0 1 .492.133l-.227-.64c0 .125-.14.296-.304.398a.914.914 0 0 1 .078-.539l-.633.219a.703.703 0 0 1 .398.375c-.195 0-.43 0-.492-.117l.227.632a.781.781 0 0 1 .304-.406m.97.258a.136.136 0 0 0-.087-.258.14.14 0 0 0-.086.172c.026.07.101.107.172.086m.438.601 1.078-.375v.11c.06.3.015.611-.125.883a.078.078 0 0 0 0 .101c.02.011.043.011.062 0a.055.055 0 0 0 .04 0c.161-.304.211-.655.14-.992a.664.664 0 0 0-.305-.453.531.531 0 0 0-.234-.086.617.617 0 0 0-.563.18l-.07.093a.625.625 0 0 0-.054.532m-3.36.851a.136.136 0 1 0-.086-.258.14.14 0 0 0-.086.172c.026.07.101.107.172.086m.125-.351a.133.133 0 0 0 .078-.172.125.125 0 0 0-.125-.04.125.125 0 0 0-.078.165.133.133 0 0 0 .172.086m-.125.734a.125.125 0 0 0 .078-.172.14.14 0 0 0-.203-.11.133.133 0 0 0-.078.173c.026.07.1.107.172.086m1.078-1.258a.14.14 0 0 0 .078-.18.134.134 0 1 0-.25.094c.026.07.1.107.172.086m-.695.25a.133.133 0 0 0 .078-.172.125.125 0 0 0-.172-.078.133.133 0 0 0-.078.172.125.125 0 0 0 .172.078m.336-.156a.133.133 0 0 0 .078-.172.14.14 0 0 0-.11-.086.133.133 0 0 0-.078.172c.026.07.101.107.172.086m13.617-5.758a.203.203 0 1 0-.015.406.203.203 0 0 0 .015-.406m-2.226-5.195h.047a.04.04 0 0 0-.079 0m-.086-.118a.062.062 0 0 0 .055 0 .047.047 0 0 0-.039-.047.047.047 0 0 0-.047 0 .047.047 0 0 0 0 .047m.047.235c.002.022.018.04.04.047a.047.047 0 0 0 .046-.04.047.047 0 0 0-.086 0m-.078.274h-.047c0 .023.016.043.04.047a.062.062 0 0 0 .046 0 .047.047 0 0 0-.04-.047m-.085.273h.047a.047.047 0 0 0-.04-.046h-.077a.102.102 0 0 1-.063-.055l.102-.047a.055.055 0 0 0-.04-.047.04.04 0 0 0-.038 0v-.125a.047.047 0 0 0-.04-.047v.14h-.046a.156.156 0 0 1-.086-.14.07.07 0 0 1-.078.047.086.086 0 0 1 0-.055.164.164 0 0 1-.133.102h-.07V5.78a.047.047 0 0 0-.047.04v.046a.047.047 0 0 0-.047.04l.078.077a.14.14 0 0 1-.078 0h-.407a.062.062 0 0 0-.054.04.047.047 0 0 0 .054.07h.063l-.04.039a.04.04 0 0 0 0 .039h.048l.047-.04v-.054h.11v.055c.016.01.037.01.054 0h.101a.203.203 0 0 1 .07 0H48.806a.32.32 0 0 0 .093 0v-.04l.086.071v.094-.047h.055l.211.023zm-1.21-.453h.046a.047.047 0 0 0-.04-.047H48a.047.047 0 0 0 0 .047m1.29-.367a.047.047 0 0 0 .046-.039v-.047a.047.047 0 0 0-.047 0 .055.055 0 0 0 0 .047m.031.64c0 .024.017.044.04.048h.046a.047.047 0 0 0 0-.047h-.047m-.14-.54a.18.18 0 0 0-.094.133l.336.055v.055a.46.46 0 0 1-.164.218.453.453 0 0 0 .18-.242.219.219 0 0 0 0-.172l-.07-.015a.203.203 0 0 0-.094-.04.11.11 0 0 0-.086 0m4.43 6.704a.195.195 0 1 0 .39 0 .195.195 0 0 0-.39 0m-6.25 2.5a.195.195 0 1 0-.196-.195c.004.106.09.19.195.195m.203.5h.055l.29-.094-.15.195a.258.258 0 0 0 0 .11c0 .108.088.195.196.195a.227.227 0 0 0 .14-.055c0-.054.18-.21.18-.21l-.117-.235.469-.273.14.226c.056.086.161.124.258.094l.477-.125c.104-.008.208-.008.312 0h.5c.104-.008.209-.008.313 0l.476.125a.227.227 0 0 0 .258-.094l.14-.226.47.273-.118.235s.141.156.18.21a.21.21 0 0 0 .14.055.195.195 0 0 0 .196-.195.188.188 0 0 0-.039-.11l-.148-.195s.164.047.28.094h.063a.195.195 0 0 0 0-.39h-.375a.633.633 0 0 1-.36-.196l.43-.305a.195.195 0 0 0-.117-.351.234.234 0 0 0-.125 0l-.101.086.07-.141a.281.281 0 0 0 0-.078.195.195 0 0 0-.195-.195.21.21 0 0 0-.188.125l-.054.125v-.18a.195.195 0 0 0-.196-.195.195.195 0 0 0-.093 0v.671h-.118a.703.703 0 0 1-.218 0 .781.781 0 0 1-.524-.601.336.336 0 0 1-.32.297h-.141a.352.352 0 0 1-.148-.242.781.781 0 0 1-.531.57.672.672 0 0 1-.22 0h-.077V13.5a.219.219 0 0 0-.094 0 .203.203 0 0 0-.203.195v.18l-.055-.125a.187.187 0 0 0-.18-.125.195.195 0 0 0-.195.195.281.281 0 0 0 0 .078l.063.141-.117-.11a.195.195 0 0 0-.118-.046.203.203 0 0 0-.203.203c.003.062.035.12.086.156l.43.305a.594.594 0 0 1-.36.187c-.18 0-.375.047-.375.047a.195.195 0 0 0 0 .39M51 14.04a.71.71 0 0 0 .18 0v-1.226a.727.727 0 0 0-.227.039.656.656 0 0 0-.398.437c-.004.055-.004.11 0 .164a.633.633 0 0 0 0 .125c.05.236.223.427.453.5m0-2.656-.547 1.297h.586l.547-1.297h-.586zm.437-.328a.195.195 0 1 0-.39 0 .195.195 0 0 0 .39 0m-2.648 9.008a.781.781 0 0 1 .297.203c.08.075.15.158.21.25.055.078.11.156.165.25.054.093.226.422.297.562l.062.117.055.11c.024.05.053.096.086.14a.313.313 0 0 0 .101.086h.18a.328.328 0 0 0 .102-.086c.033-.047.065-.097.093-.148l.047-.094.055-.117c.07-.14.18-.36.312-.578.048-.084.1-.165.157-.242l.203-.25a.938.938 0 0 1 .234-.18 1.21 1.21 0 0 1-.101-.281l1.187-2.914-.336-.782-.469-.28.203.5-.28-.11-.29-.649-.648-.18.273.65-.508-.142-.125-.585-.304-.055-.313.055v.593l-.539.11.195-.657-.648.18-.21.672a1.969 1.969 0 0 0-.259.102l.125-.516-.468.281-.336.781 1.328 2.844a.89.89 0 0 1-.094.32m2.812-2.96.383-.047-.578 2.078-.39.148.585-2.18zm-1.18.14.555-.062-.187 2.187-.523.203.156-2.328zm-.241 2.79 1.086-.454-.086.305-1.055.508-1.11-.547-.093-.297 1.258.484zm-.477-2.75.313 2.343-.516-.188-.352-2.203.555.047zm-.906 1.874-.657-2.07.391.047.742 2.187-.476-.164zm5.015-6.64a.195.195 0 1 0 .196.195.203.203 0 0 0-.196-.195m-3.257-4.93s1.625-.695 2.007.078c0 0 .18.36-.336.352-.515-.008-.484-.274-1.367-.227h-1.414v.133a.047.047 0 0 1 0 .062.07.07 0 0 1-.047 0 .195.195 0 0 1-.086 0 .594.594 0 0 0-.156-.093.617.617 0 0 1 .094.226v.047h-.157a.414.414 0 0 1-.171-.039l.086.063a.281.281 0 0 1 .133.43l-.04.077-.054-.07a.445.445 0 0 0-.25-.172h-.086a.96.96 0 0 1-.29-.062.586.586 0 0 0 .141.062c.06.012.11.05.141.102a.312.312 0 0 1 0 .242l-.055.21-.054-.21s-.04-.133-.227-.133h-.188v.117c0 1.211-.21 1.516-.39 1.563-.18.047-.211.328-.211.437a.312.312 0 0 1 .273-.156c.046-.07.101-.133.164-.188a.227.227 0 0 0-.054.204.32.32 0 0 1 .18.14c.054-.054.21-.234.156-.367a.195.195 0 0 1 0-.133c.045.04.077.091.093.149a.422.422 0 0 0 0-.39s.11 0 .141.17a.594.594 0 0 0 .063-.343.258.258 0 0 0-.07-.18s.117 0 .171.172a.336.336 0 0 0 0-.328.14.14 0 0 1 0-.156s.094-.063.133.156a.71.71 0 0 0 0-.281.188.188 0 0 1 .047-.203c.148-.11.36-.242.36-.242a3.04 3.04 0 0 1 1.398-.25.398.398 0 0 1 .312-.477c-.125.07-.226.219-.133.524 0 0 0 .304.578.562 0 0 1.336.469.782 1.156a.516.516 0 0 0-.43.282.352.352 0 0 1 .242.125.328.328 0 0 1 .203-.188.258.258 0 0 0 .188-.156s-.047.117.164.281a.273.273 0 0 0 .07-.305.516.516 0 0 0 .258 0s0-.203-.094-.25a.383.383 0 0 0 .29 0s-.055-.234-.196-.265a.195.195 0 0 0 .156-.063.352.352 0 0 0-.226-.258l.031-.18h-.266c-.062 0-.078-.25-.257-.241 0 0-.22.14-.383-.165a6.164 6.164 0 0 0-.328-.632c.132 0 1.117.078 1.172-.438a.617.617 0 0 0-.415-.64l-.07-.04a.437.437 0 0 0-.11-.171c-.054-.04-.077 0-.038.046a.094.094 0 0 1 0 .079.398.398 0 0 0-.14-.157c-.056 0-.087 0 0 .055a.078.078 0 0 1 0 .07.39.39 0 0 0-.142-.125c-.062 0-.086 0 0 .055a.094.094 0 0 1 0 .078.344.344 0 0 0-.18-.117c-.062 0-.085 0 0 .055a.055.055 0 0 1 0 .062.375.375 0 0 0-.187-.101c-.062 0-.086 0 0 .054.01.023.01.048 0 .07a.422.422 0 0 0-.187-.093c-.063 0-.086 0 0 .055a.094.094 0 0 1 .039.07.43.43 0 0 0-.219-.094c-.062 0-.086 0 0 .063.086.062.04 0 .047.07a.352.352 0 0 0-.203-.078c-.063 0-.086 0 0 .054.023.01.04.03.047.055-.202.05-.4.113-.594.188 0 0-.61.203-.625-.25 0-.477.586-.477.71-.461.225.02.445.067.657.14.262.157.6.09.781-.156a.305.305 0 0 1-.25 0 .43.43 0 0 1 .274-.039c.39.086.515-.148.515-.148a.719.719 0 0 1-.43-.149s-.35-.242-.679.227c0 0 0 .086-.414 0s-1.516-.11-1.367.75c0 0 .078.554.969.273m-4.29 4.75a.195.195 0 1 0 0-.39.195.195 0 0 0 0 .39m1.782-6.469a.047.047 0 0 0 .047 0v-.046a.047.047 0 0 0-.047.039v.046m5.343 5.75c.005.11.094.196.204.196a.195.195 0 0 0 0-.39.203.203 0 0 0-.203.194m-5.586-3.312a.875.875 0 0 0 0 .57c.084.357.134.72.148 1.086a3.32 3.32 0 0 0 .086-1.125 1.406 1.406 0 0 1 0-.304.453.453 0 0 1-.258-.235m5.469 3.047a.195.195 0 1 0-.188-.164c0 .108.088.195.196.195M48.188 5.29a.04.04 0 0 0 .046 0 .04.04 0 0 0-.078 0m-.086.078a.062.062 0 0 0 .055 0 .062.062 0 0 0-.04-.054.047.047 0 0 0-.046 0 .055.055 0 0 0 0 .046m-.023.11a.047.047 0 0 0 .047 0v-.047a.047.047 0 0 0-.047.039v.047m-.016.11h.047a.04.04 0 0 0-.078 0m.297-.36a.047.047 0 0 0 .047 0 .04.04 0 0 0 0-.047.047.047 0 0 0-.047.039v.047m-.649 2.344a.43.43 0 0 1-.117.257c.047 0 .102 0 .156-.078a.36.36 0 0 1 .219-.101c-.258.062-.195.36-.188.508a.195.195 0 0 1-.109.195c.149 0 .219-.055.227-.195.008-.141.21-.25.21-.25a.414.414 0 0 0-.132.343c.02.133.114.242.242.282.03.008.063.008.094 0h.172a.258.258 0 0 1 .28.18c.063-.243-.124-.29-.124-.29a.516.516 0 0 1-.219-.11.344.344 0 0 1-.101-.179.555.555 0 0 1 .086-.336.43.43 0 0 0 0 .36c.02.022.043.04.07.054.11.056.229.088.351.094h.04c.132.03.25.104.335.21.149-.304-.109-.32-.226-.444a.71.71 0 0 1-.125-.243V7.82a.5.5 0 0 0 .172.211c.071.057.159.09.25.094a.273.273 0 0 0 .093 0 .516.516 0 0 0-.195-.32c.195 0 .344.164.375.164.031 0 0 0 0 0a.656.656 0 0 0-.047-.14.633.633 0 0 0-.125-.212 2.344 2.344 0 0 0-.242-.172h.07a.336.336 0 0 0 .172-.054.352.352 0 0 0-.11-.18h.04a.156.156 0 0 0 .164-.172h-.055c-.218 0-.117-.297-.117-.297h.07a.281.281 0 0 0 .29-.273.36.36 0 0 0-.243-.078.781.781 0 0 0-.148 0 2.062 2.062 0 0 0-.906-.188h-.078a.281.281 0 0 0-.165-.039.578.578 0 0 0-.195.04.258.258 0 0 0 .234.335c0 .04 0 .219-.148.25s-.203.234-.203.234a.71.71 0 0 0 .242-.109.516.516 0 0 1-.172.18.508.508 0 0 0-.14.304.46.46 0 0 1 .289-.054h.054a.414.414 0 0 0-.367.265m1.633-1.093a.305.305 0 0 1 .234 0 .172.172 0 0 1-.234.14.469.469 0 0 0 0-.156m-.734.977h-.047c-.047 0-.282-.079-.282-.18 0-.102 0 .055.305.101.32.055.336 0 .336 0s0 .125-.312.086m.21-.586c.063.04-.109 0-.124.047-.016.047.062.078.062.094v.164c0 .031 0 .094-.078.094h-.047s-.039 0-.047-.055a.875.875 0 0 1 .04-.21h.077c.016 0 0 0 0 0s-.125-.063-.109-.095c.016-.03.125 0 0-.046-.125-.047 0 0-.078 0 0 0 0-.047.055-.047l.28.054v.086c0 .086 0 0 0 0h-.062c-.062 0 0 0 0 .055m.305.125h-.063a.187.187 0 0 1-.124.227.14.14 0 0 0 .054-.118.117.117 0 0 0 0-.093h.055c.086 0 .039-.157.039-.164l.086.156m0-.422s-.078.133-.164.125c-.086-.008-.094-.055-.117-.133.093.007.187.007.28 0m-.78-.101.273.054c-.039.07-.062.117-.148.102-.086-.016-.133-.164-.125-.156m-.04.25s-.07.109 0 .164h.047a.133.133 0 0 0-.054.086.156.156 0 0 0 .039.125.187.187 0 0 1-.078-.243l-.055-.039s.04-.125.11-.14m-.344-.446c.148-.062.203 0 .203 0a.71.71 0 0 0-.063.157c-.18 0-.14-.164-.14-.164m.648.78v.18l.055-.156h-.063l.008-.023zm-2.031 4.79a.195.195 0 1 0 0-.39.195.195 0 0 0 0 .39m2-6.43a.203.203 0 0 0-.156-.226h-.04a.21.21 0 0 0-.124.047.203.203 0 0 0-.063.156.43.43 0 0 0 .063.273.39.39 0 0 1 0-.273v-.04l.32.063zm-1.196 5.64a.195.195 0 1 0-.195-.194c.004.106.09.19.196.195m1.18-5.883a.055.055 0 0 0 .046 0 .04.04 0 0 0-.039 0h-.047c0 .023.016.043.04.047m-1.657 6.086a.195.195 0 1 0 0-.39.195.195 0 0 0 0 .39m2.016-5.594a.125.125 0 0 0 .07.117l.047-.265a.047.047 0 0 0-.047 0 .148.148 0 0 0-.102.078m-.133 0a.047.047 0 1 0 .086 0 .055.055 0 0 0-.007.023.047.047 0 0 0-.047.04m.195-.368a.094.094 0 0 0-.078-.11.086.086 0 0 0-.102.079.094.094 0 0 0 .078.11c.05.004.094-.03.102-.079m-.727.531a.047.047 0 0 0 0-.039.04.04 0 0 0 0-.047.047.047 0 0 0-.046.04v.046m.398-.336-.047.266h.04a.133.133 0 0 0 .109-.094v-.039a.14.14 0 0 0-.078-.11m.132.118h.133a.156.156 0 0 1 .094-.086l-.274-.047a.164.164 0 0 1 .055.11m.14-.57a.195.195 0 0 1-.093.1h.203a.227.227 0 0 1-.062-.093c.048.021.09.057.117.102v-.203s-.078.062-.14.062a.305.305 0 0 1 .1-.164h-.202c.037.043.056.1.054.156-.054 0-.117-.062-.117-.101v.203a.18.18 0 0 1 .14-.063m-.241.43h.117l-.063-.258h-.125l.07.258zm.257.047h.125l.157-.242h-.125l-.157.242zm.164-.32a.047.047 0 0 0 .047-.04v-.046a.047.047 0 0 0-.047.039.047.047 0 0 0 0 .047" fill="#FFF"/>
    </g>
</svg>
